<?xml version="1.0" encoding="UTF-8"?>
<svg id="Camada_1" xmlns="http://www.w3.org/2000/svg" version="1.1" viewBox="0 0 213.61 100">
  <!-- Generator: Adobe Illustrator 29.6.0, SVG Export Plug-In . SVG Version: 2.1.1 Build 207)  -->
  <defs>
    <style>
      .st0 {
        fill: #f8f4ce;
      }
    </style>
  </defs>
  <g id="Logo_Goethe">
    <g id="_Ícone" data-name="Ícone">
      <path id="Círculo_1" class="st0" d="M81.76,4.06c7.82,0,14.17,6.34,14.17,14.17s-6.35,14.18-14.17,14.18-14.17-6.34-14.17-14.18,6.34-14.17,14.17-14.17M81.76,36.47c10.07,0,18.23-8.16,18.23-18.24S91.83,0,81.76,0s-18.24,8.16-18.24,18.23,8.16,18.24,18.24,18.24"/>
      <path id="Semicírculo_1" class="st0" d="M36.04,50c0-7.7,6.25-13.95,13.95-13.95v-3.99c-9.92,0-17.95,8.02-17.95,17.94s8.04,17.95,17.95,17.95,17.93-8.04,17.93-17.95h-3.95c0,7.71-6.28,13.95-13.98,13.95s-13.95-6.25-13.95-13.95"/>
      <path id="Semicírculo_2" class="st0" d="M24.09,50c0,14.31,11.6,25.91,25.91,25.91s25.93-11.6,25.93-25.91h-3.97c0,12.11-9.86,21.93-21.96,21.93s-21.93-9.82-21.93-21.93,9.82-21.92,21.93-21.92v-3.98c-14.31,0-25.91,11.6-25.91,25.91"/>
      <path id="Semicírculo_3" class="st0" d="M16.05,50c0,18.75,15.2,33.94,33.94,33.94s33.91-15.2,33.91-33.94h-4c0,16.51-13.41,29.89-29.91,29.89s-29.88-13.38-29.88-29.89,13.38-29.88,29.88-29.88v-4.02c-18.74,0-33.94,15.16-33.94,33.91"/>
      <path id="Semicírculo_4" class="st0" d="M50,8c-23.19,0-42,18.8-42,42s18.8,42,42,42,41.97-18.8,41.97-41.99h-3.99c0,20.96-17.02,37.94-37.98,37.94S12.05,70.96,12.05,50,29.04,12.05,50,12.05v-4.05h0Z"/>
      <path id="Semicírculo_5" class="st0" d="M50,96.02c-25.42,0-46.02-20.6-46.02-46.02S24.58,3.99,50,3.99V0C22.38,0,0,22.39,0,50s22.38,50,50,50,50-22.38,50-50h-3.95c0,25.41-20.63,46.02-46.04,46.02"/>
    </g>
    <g id="Goethe_Institut">
      <g id="Goethe">
        <path id="Goethe_G" class="st0" d="M123.4,43.66c2,0,4.45-.45,5.79-1.07v-10.83h-6.82v3.41h2.71v4.86c-.48.08-1.2.12-1.79.12-3.02,0-5.36-1.59-5.36-6.71s2.37-6.63,5.88-6.63c1.47,0,3.41.31,4.64.81l.42-3.44c-1.36-.55-3.59-.89-5.29-.89-6.06,0-9.98,3.17-9.98,10.21s3.62,10.18,9.79,10.18"/>
        <path id="Goethe_O" class="st0" d="M140.62,26.52c2.68,0,3.96,1.68,3.96,6.9s-1.29,6.95-3.94,6.95-3.99-1.73-3.99-6.95,1.31-6.9,3.96-6.9M140.62,43.85c5.59,0,8.29-3,8.29-10.43s-2.7-10.4-8.29-10.4-8.29,3.13-8.29,10.4,2.81,10.43,8.29,10.43"/>
        <path id="Goethe_E1" class="st0" d="M156.42,34.9h6.94v-3.47h-6.94v-4.32h8.18v-3.51h-12.4v19.68h12.68v-3.51h-8.45v-4.86h0Z"/>
        <path id="Goethe_T" class="st0" d="M174.91,43.27v-16.13h4.27v-3.54h-12.82v3.54h4.27v16.13h4.27Z"/>
        <path id="Goethe_H" class="st0" d="M192.11,43.27h4.22v-19.67h-4.22v7.77h-6.32v-7.77h-4.22v19.67h4.22v-8.4h6.32v8.4Z"/>
        <path id="Goethe_E" class="st0" d="M213.19,39.76h-8.45v-4.86h6.94v-3.47h-6.94v-4.32h8.17v-3.51h-12.4v19.67h12.68v-3.51h0Z"/>
      </g>
      <g id="Institut">
        <path id="Institut_I1" class="st0" d="M119.19,69.01v-18.98h-4.17v18.98h4.17Z"/>
        <path id="Institut_N" class="st0" d="M132.94,61.11l-5.84-11.08h-3.77v18.99h3.77v-11.08l5.84,11.08h3.77v-18.99h-3.77v11.08Z"/>
        <path id="Institut_S" class="st0" d="M143.66,55.08c0-.98.51-1.96,2.57-1.96,1.3,0,2.44.35,3.59.85l.46-3.32c-1.31-.61-2.68-.94-4.4-.94-4.38,0-6.27,2.53-6.27,5.75,0,6.11,7.55,4.94,7.55,8.33,0,1.31-.82,2.18-2.55,2.18s-3.14-.57-4.55-1.37l-.53,3.39c1.47.86,3.28,1.34,5.26,1.34,4.1,0,6.42-2.28,6.42-6,0-6.31-7.55-5.32-7.55-8.26"/>
        <path id="Institut_T1" class="st0" d="M151.63,53.44h3.91v15.57h4.13v-15.57h3.91v-3.42h-11.95v3.42Z"/>
        <path id="Institut_I2" class="st0" d="M169.85,69.01v-18.98h-4.17v18.98h4.17Z"/>
        <path id="Institut_T2" class="st0" d="M171.96,53.44h3.91v15.57h4.13v-15.57h3.91v-3.42h-11.95v3.42Z"/>
        <path id="Institut_U" class="st0" d="M195.65,62.4c0,2.2-.76,3.42-2.81,3.42s-2.84-1.24-2.84-3.42v-12.38h-4.13v12.53c0,4.56,2.35,6.78,6.96,6.78s6.9-2.22,6.9-6.78v-12.53h-4.09v12.38h0Z"/>
        <path id="Institut_T3" class="st0" d="M201.66,50.02v3.42h3.91v15.57h4.13v-15.57h3.91v-3.42h-11.95Z"/>
      </g>
    </g>
  </g>
</svg>