<?xml version="1.0" encoding="UTF-8" standalone="no"?>
<!-- Created with Inkscape (http://www.inkscape.org/) -->

<svg
   version="1.1"
   id="svg1"
   width="474.82666"
   height="441.53333"
   viewBox="0 0 474.82666 441.53333"
   sodipodi:docname="ToiĀria_Logo_Tagline_White.eps"
   xmlns:inkscape="http://www.inkscape.org/namespaces/inkscape"
   xmlns:sodipodi="http://sodipodi.sourceforge.net/DTD/sodipodi-0.dtd"
   xmlns="http://www.w3.org/2000/svg"
   xmlns:svg="http://www.w3.org/2000/svg">
  <defs
     id="defs1"
  >
    <style>
      path {
        fill: #f8f4ce;
      }
    </style>
  </defs>
  <sodipodi:namedview
     id="namedview1"
     bordercolor="#000000"
     borderopacity="0.25"
     inkscape:showpageshadow="2"
     inkscape:pageopacity="0.0"
     inkscape:pagecheckerboard="0"
     inkscape:deskcolor="#d1d1d1">
    <inkscape:page
       x="0"
       y="0"
       inkscape:label="1"
       id="page1"
       width="474.82666"
       height="441.53333"
       margin="0"
       bleed="0" />
  </sodipodi:namedview>
  <g
     id="g1"
     inkscape:groupmode="layer"
     inkscape:label="1">
    <g
       id="group-R5">
      <path
         id="path2"
         d="m 875.805,635.648 h -51.692 v -178.25 h 51.692 c 55.054,0 90.98,37.09 90.98,88.743 0,51.687 -35.926,89.507 -90.98,89.507 z m 0,-220.179 h -97.762 v 262.109 h 97.762 c 82.386,0 139.295,-56.519 139.295,-130.656 0,-74.152 -56.909,-131.453 -139.295,-131.453"
         style="fill-opacity:1;fill-rule:nonzero;stroke:none"
         transform="matrix(0.13333333,0,0,-0.13333333,0,441.53333)" />
      <path
         id="path3"
         d="M 1271.04,636.391 H 1122.76 V 568.25 h 131.44 v -41.199 h -131.44 v -70.379 h 150.18 v -41.203 h -196.26 v 262.109 h 194.36 v -41.187"
         style="fill-opacity:1;fill-rule:nonzero;stroke:none"
         transform="matrix(0.13333333,0,0,-0.13333333,0,441.53333)" />
      <path
         id="path4"
         d="m 1434.48,567.512 c 55.4,-13.473 84.25,-33.332 84.25,-77.16 0,-49.403 -38.56,-78.633 -93.62,-78.633 -40.07,0 -77.9,13.863 -109.34,41.972 l 27.73,32.95 c 25.09,-21.719 50.17,-34.071 82.73,-34.071 28.46,0 46.42,13.078 46.42,33.289 0,19.129 -10.45,29.231 -59.16,40.461 -55.79,13.469 -87.22,29.969 -87.22,78.629 0,45.692 37.44,76.391 89.47,76.391 38.21,0 68.53,-11.621 95.13,-32.949 l -24.7,-34.852 c -23.62,17.621 -47.2,26.992 -71.16,26.992 -26.95,0 -42.71,-13.859 -42.71,-31.48 0,-20.59 12,-29.571 62.18,-41.539"
         style="fill-opacity:1;fill-rule:nonzero;stroke:none"
         transform="matrix(0.13333333,0,0,-0.13333333,0,441.53333)" />
      <path
         id="path5"
         d="M 1627.5,677.578 V 415.469 h -46.07 v 262.109 h 46.07"
         style="fill-opacity:1;fill-rule:nonzero;stroke:none"
         transform="matrix(0.13333333,0,0,-0.13333333,0,441.53333)" />
      <path
         id="path6"
         d="m 1827.6,410.98 c -82.04,0 -135.93,58.43 -135.93,135.161 0,73.8 56.13,135.929 135.15,135.929 45.69,0 73.8,-12.691 100.74,-35.531 l -29.19,-34.848 c -20.25,17.231 -40.07,28.071 -73.4,28.071 -48.32,0 -85.03,-41.934 -85.03,-92.84 0,-54.332 35.58,-94.012 89.13,-94.012 24.74,0 47.2,7.86 63.3,19.86 v 49.062 h -67.01 v 40.066 h 111.57 V 451.789 c -25.86,-22.07 -62.91,-40.809 -109.33,-40.809"
         style="fill-opacity:1;fill-rule:nonzero;stroke:none"
         transform="matrix(0.13333333,0,0,-0.13333333,0,441.53333)" />
      <path
         id="path7"
         d="m 2185.74,677.578 h 45.3 V 415.469 h -38.56 l -144.53,186.5 v -186.5 h -45.34 v 262.109 h 42.71 l 140.42,-181.226 v 181.226"
         style="fill-opacity:1;fill-rule:nonzero;stroke:none"
         transform="matrix(0.13333333,0,0,-0.13333333,0,441.53333)" />
      <path
         id="path8"
         d="m 2617.38,635.648 h -149.06 v -71.5 H 2600.5 V 522.172 H 2468.32 V 415.469 h -46.07 v 262.109 h 195.13 v -41.93"
         style="fill-opacity:1;fill-rule:nonzero;stroke:none"
         transform="matrix(0.13333333,0,0,-0.13333333,0,441.53333)" />
      <path
         id="path9"
         d="m 2796.5,639.762 c -52.08,0 -88.39,-41.543 -88.39,-92.84 0,-51.301 37.09,-93.621 89.12,-93.621 52.08,0 88.39,41.539 88.39,92.84 0,51.339 -37.09,93.621 -89.12,93.621 z m 0,-228.782 c -80.54,0 -136.67,61.02 -136.67,135.161 0,74.179 56.91,135.929 137.4,135.929 80.53,0 136.67,-61.011 136.67,-135.148 0,-74.152 -56.91,-135.942 -137.4,-135.942"
         style="fill-opacity:1;fill-rule:nonzero;stroke:none"
         transform="matrix(0.13333333,0,0,-0.13333333,0,441.53333)" />
      <path
         id="path10"
         d="m 3108.61,635.648 h -67.02 v -88 H 3109 c 32.95,0 53.93,17.231 53.93,44.172 0,28.852 -20.21,43.828 -54.32,43.828 z m 55.06,-220.179 -64.39,91.371 h -57.69 v -91.371 h -46.07 v 262.109 h 116.85 c 60.28,0 97.37,-31.816 97.37,-83.117 0,-43.441 -25.86,-69.652 -62.53,-79.762 l 70.78,-99.23 h -54.32"
         style="fill-opacity:1;fill-rule:nonzero;stroke:none"
         transform="matrix(0.13333333,0,0,-0.13333333,0,441.53333)" />
      <path
         id="path11"
         d="M 877.66,224.672 H 824.113 V 130.32 h 53.547 c 34.848,0 56.567,19.078 56.567,47.149 0,31.09 -22.11,47.203 -56.567,47.203 z M 876.148,88.7305 H 824.113 V 4.48828 h -46.07 V 266.602 h 103.375 c 61.012,0 99.617,-34.422 99.617,-88.012 0,-59.16 -47.195,-89.8595 -104.887,-89.8595"
         style="fill-opacity:1;fill-rule:nonzero;stroke:none"
         transform="matrix(0.13333333,0,0,-0.13333333,0,441.53333)" />
      <path
         id="path12"
         d="m 1269.18,117.969 c 0,-78.2893 -44.21,-117.590094 -112.74,-117.590094 -68.14,0 -111.58,39.300794 -111.58,115.340094 v 150.883 h 46.07 V 117.578 c 0,-48.6678 25.09,-74.8788 66.28,-74.8788 40.81,0 65.9,24.6992 65.9,73.0198 v 150.883 h 46.07 V 117.969"
         style="fill-opacity:1;fill-rule:nonzero;stroke:none"
         transform="matrix(0.13333333,0,0,-0.13333333,0,441.53333)" />
      <path
         id="path13"
         d="m 1510.52,81.6094 c 0,22.4926 -17.62,35.5816 -53.93,35.5816 h -73.02 V 45.2891 h 76.39 c 31.43,0 50.56,12.3515 50.56,36.3203 z m -14.64,110.4996 c 0,21.332 -16.45,33.68 -46.03,33.68 h -66.28 v -69.648 h 62.91 c 29.58,0 49.4,11.609 49.4,35.968 z m 46.08,7.473 c 0,-32.223 -17.97,-48.672 -37.44,-58.773 30.7,-10.489 52.03,-28.11 52.03,-64.0395 0,-47.1992 -38.56,-72.28122 -96.98,-72.28122 H 1338.23 V 266.602 h 117.58 c 52.81,0 86.15,-25.832 86.15,-67.02"
         style="fill-opacity:1;fill-rule:nonzero;stroke:none"
         transform="matrix(0.13333333,0,0,-0.13333333,0,441.53333)" />
      <path
         id="path14"
         d="m 1614.42,266.602 h 46.07 V 46.4102 h 137.79 V 4.48828 H 1614.42 V 266.602"
         style="fill-opacity:1;fill-rule:nonzero;stroke:none"
         transform="matrix(0.13333333,0,0,-0.13333333,0,441.53333)" />
      <path
         id="path15"
         d="M 1900.66,266.602 V 4.48828 h -46.07 V 266.602 h 46.07"
         style="fill-opacity:1;fill-rule:nonzero;stroke:none"
         transform="matrix(0.13333333,0,0,-0.13333333,0,441.53333)" />
      <path
         id="path16"
         d="m 2098.09,0 c -76.39,0 -133.3,59.5391 -133.3,135.148 0,74.922 55.79,135.942 135.15,135.942 48.32,0 77.51,-16.84 102.6,-40.809 l -29.58,-34.07 c -20.94,19.469 -43.44,32.559 -73.36,32.559 -50.22,0 -86.54,-41.149 -86.54,-92.84 0,-51.6917 36.32,-93.6214 86.54,-93.6214 32.17,0 52.77,13.0898 75.26,34.0703 l 29.58,-29.9687 C 2177.11,17.9609 2147.14,0 2098.09,0"
         style="fill-opacity:1;fill-rule:nonzero;stroke:none"
         transform="matrix(0.13333333,0,0,-0.13333333,0,441.53333)" />
      <path
         id="path17"
         d="m 2500.88,0 c -82.04,0 -135.93,58.4219 -135.93,135.148 0,73.801 56.13,135.942 135.15,135.942 45.69,0 73.8,-12.699 100.74,-35.539 l -29.19,-34.852 c -20.25,17.231 -40.07,28.071 -73.4,28.071 -48.32,0 -85.03,-41.93 -85.03,-92.84 0,-54.3206 35.58,-94.0081 89.13,-94.0081 24.74,0 47.2,7.8594 63.3,19.8672 V 110.84 h -67.02 v 40.07 h 111.58 V 40.8008 C 2584.35,18.7383 2547.3,0 2500.88,0"
         style="fill-opacity:1;fill-rule:nonzero;stroke:none"
         transform="matrix(0.13333333,0,0,-0.13333333,0,441.53333)" />
      <path
         id="path18"
         d="m 2800.99,228.77 c -52.08,0 -88.39,-41.54 -88.39,-92.84 0,-51.3011 37.09,-93.6214 89.12,-93.6214 52.08,0 88.39,41.543 88.39,92.8394 0,51.34 -37.09,93.622 -89.12,93.622 z m 0,-228.77 c -80.53,0 -136.67,61.0117 -136.67,135.148 0,74.192 56.91,135.942 137.4,135.942 80.54,0 136.67,-61.02 136.67,-135.16 C 2938.39,61.7891 2881.48,0 2800.99,0"
         style="fill-opacity:1;fill-rule:nonzero;stroke:none"
         transform="matrix(0.13333333,0,0,-0.13333333,0,441.53333)" />
      <path
         id="path19"
         d="m 3125.15,228.77 c -52.08,0 -88.39,-41.54 -88.39,-92.84 0,-51.3011 37.09,-93.6214 89.12,-93.6214 52.08,0 88.39,41.543 88.39,92.8394 0,51.34 -37.09,93.622 -89.12,93.622 z m 0,-228.77 c -80.53,0 -136.67,61.0117 -136.67,135.148 0,74.192 56.91,135.942 137.4,135.942 80.54,0 136.67,-61.02 136.67,-135.16 C 3262.55,61.7891 3205.64,0 3125.15,0"
         style="fill-opacity:1;fill-rule:nonzero;stroke:none"
         transform="matrix(0.13333333,0,0,-0.13333333,0,441.53333)" />
      <path
         id="path20"
         d="m 3421.93,224.672 h -51.68 V 46.4102 h 51.68 c 55.06,0 90.99,37.1015 90.99,88.7378 0,51.692 -35.93,89.524 -90.99,89.524 z m 0,-220.18372 h -97.76 V 266.602 h 97.76 c 82.39,0 139.31,-56.532 139.31,-130.672 0,-74.1409 -56.92,-131.44172 -139.31,-131.44172"
         style="fill-opacity:1;fill-rule:nonzero;stroke:none"
         transform="matrix(0.13333333,0,0,-0.13333333,0,441.53333)" />
      <path
         id="path21"
         d="M 1052.41,3073.09 H 738.176 v 227.54 h 874.974 v -227.54 h -314.23 v -751.72 h -246.51 v 751.72"
         style="fill-opacity:1;fill-rule:nonzero;stroke:none"
         transform="matrix(0.13333333,0,0,-0.13333333,0,441.53333)" />
      <path
         id="path22"
         d="M 743.594,2321.37 H 307.461 v -117.84 h 436.133 v 117.84"
         style="fill-opacity:1;fill-rule:nonzero;stroke:none"
         transform="matrix(0.13333333,0,0,-0.13333333,0,441.53333)" />
      <path
         id="path23"
         d="m 403.625,1454.52 113.773,279.02 116.485,-279.02 z m 192.332,632.53 H 452.387 L 0,1107.78 h 264.117 l 67.723,169.31 h 375.183 l 70.43,-169.31 h 270.887 l -452.383,979.27"
         style="fill-opacity:1;fill-rule:nonzero;stroke:none"
         transform="matrix(0.13333333,0,0,-0.13333333,0,441.53333)" />
      <path
         id="path24"
         d="m 1516.98,1614.35 h -138.15 v 270.89 h 138.15 c 104.3,0 150.35,-52.83 150.35,-135.45 0,-82.62 -46.05,-135.44 -150.35,-135.44 z m 674.52,-455.1 c -113.78,0 -184.21,37.93 -306.11,166.6 l -135.44,142.22 c 71.78,36.57 163.89,113.77 163.89,281.72 0,204.52 -147.64,337.26 -377.9,337.26 h -399.56 v -979.27 h 242.45 v 311.53 h 117.84 l 269.53,-285.79 c 142.22,-151.7 261.41,-193.692 386.02,-193.692 67.72,0 132.73,17.613 177.43,39.281 v 204.521 c -37.92,-16.25 -85.33,-24.38 -138.15,-24.38"
         style="fill-opacity:1;fill-rule:nonzero;stroke:none"
         transform="matrix(0.13333333,0,0,-0.13333333,0,441.53333)" />
      <path
         id="path25"
         d="m 2089.91,1351.58 h 239.74 v 735.47 h -239.74 v -735.47"
         style="fill-opacity:1;fill-rule:nonzero;stroke:none"
         transform="matrix(0.13333333,0,0,-0.13333333,0,441.53333)" />
      <path
         id="path26"
         d="M 1052.41,3073.09 H 738.176 v 227.54 h 874.974 v -227.54 h -314.23 v -751.72 h -246.51 v 751.72"
         style="fill-opacity:1;fill-rule:nonzero;stroke:none"
         transform="matrix(0.13333333,0,0,-0.13333333,0,441.53333)" />
      <path
         id="path27"
         d="m 2814.54,3300.63 h 246.51 v -979.26 h -246.51 v 979.26"
         style="fill-opacity:1;fill-rule:nonzero;stroke:none"
         transform="matrix(0.13333333,0,0,-0.13333333,0,441.53333)" />
      <path
         id="path28"
         d="m 2161.7,2539.43 c -136.8,0 -239.74,116.49 -239.74,272.25 0,155.76 102.94,272.24 239.74,272.24 136.8,0 239.74,-116.48 239.74,-272.24 0,-155.76 -102.94,-272.25 -239.74,-272.25 z m 0,772.04 c -277.66,0 -494.37,-215.36 -494.37,-499.79 0,-284.44 216.71,-499.79 494.37,-499.79 277.66,0 494.37,215.35 494.37,499.79 0,284.43 -216.71,499.79 -494.37,499.79"
         style="fill-opacity:1;fill-rule:nonzero;stroke:none"
         transform="matrix(0.13333333,0,0,-0.13333333,0,441.53333)" />
      <path
         id="path29"
         d="m 2817.25,1454.52 113.78,279.02 116.48,-279.02 z m 743.59,-77.2 -128.67,170.66 c -23.02,-48.76 -81.26,-88.04 -132.73,-88.04 l -289.86,627.11 h -143.57 l -452.38,-979.27 h 264.11 l 67.73,169.31 h 375.18 l 70.43,-169.31 h 270.89 l -81.27,176.08 c 73.14,10.84 132.74,37.93 180.14,93.46"
         style="fill-opacity:1;fill-rule:nonzero;stroke:none"
         transform="matrix(0.13333333,0,0,-0.13333333,0,441.53333)" />
    </g>
  </g>
</svg>
