<?xml version="1.0" encoding="UTF-8"?>
<svg id="Layer_1" xmlns="http://www.w3.org/2000/svg" xmlns:xlink="http://www.w3.org/1999/xlink" version="1.1" viewBox="0 0 955.48 247.34">
  <!-- Generator: Adobe Illustrator 29.6.0, SVG Export Plug-In . SVG Version: 2.1.1 Build 207)  -->
  <defs>
    <style>
      .st0 {
        fill: none;
      }

      .st1 {
        clip-path: url(#clippath-1);
      }

      .st2 {
        clip-path: url(#clippath-3);
      }

      .st3 {
        clip-path: url(#clippath-4);
      }

      .st4 {
        clip-path: url(#clippath-2);
      }

      .st5 {
        clip-path: url(#clippath-6);
      }

      .st6 {
        clip-path: url(#clippath-5);
      }

      .st7 {
        fill: #f8f4ce;
      }

      .st8 {
        clip-path: url(#clippath);
      }
    </style>
    <clipPath id="clippath">
      <rect class="st0" x="-1102.4" y="-695.65" width="3378.65" height="2388.95"/>
    </clipPath>
    <clipPath id="clippath-1">
      <rect class="st0" x="-1102.4" y="-695.65" width="3378.65" height="2388.95"/>
    </clipPath>
    <clipPath id="clippath-2">
      <rect class="st0" x="-1102.4" y="-695.65" width="3378.65" height="2388.95"/>
    </clipPath>
    <clipPath id="clippath-3">
      <rect class="st0" x="-1102.4" y="-695.65" width="3378.65" height="2388.95"/>
    </clipPath>
    <clipPath id="clippath-4">
      <rect class="st0" x="-1102.4" y="-695.65" width="3378.65" height="2388.95"/>
    </clipPath>
    <clipPath id="clippath-5">
      <rect class="st0" x="-1102.4" y="-695.65" width="3378.65" height="2388.95"/>
    </clipPath>
    <clipPath id="clippath-6">
      <rect class="st0" x="-1102.4" y="-695.65" width="3378.65" height="2388.95"/>
    </clipPath>
  </defs>
  <g class="st8">
    <path class="st7" d="M59.1,156.77c-5.23-6.04-11.92-4.23-11.92-4.23,0,0,2.31,1.97,3.78,5.97,1.46,4.01,1.46,6.29,1.46,6.29,0,0-2.94-.9-8.71,1.18-6.02,2.2-5.82,8.89-5.82,8.89,0,0,5.25-4.53,12.11-1.59,5.89,2.53,8.19,10.44,8.19,10.44,0,0,.35-3.02,1.36-4.91,1.13-2.1,2.65-3.58,3.94-7.4,1.2-3.56.8-8.61-4.4-14.64"/>
    <path class="st7" d="M43.11,155.86c-1.09-5.09-.06-6.95-.06-6.95,0,0,4.73-3.49,11.13-.79,5.15,2.18,6.32,7.01,6.32,7.01,0,0,3.55-2.94,3.94-7.41.41-4.47-1.75-7.5-4.28-9.72-2.55-2.21-7.75-4.41-7.75-4.41,0,0,3.75-2.03,4.82-4.13.42-.83.68-1.65.93-2.45.39-1.26.73-2.5,1.56-3.72,1.35-2.01,4.67-3.89,4.67-3.89,0,0-5.25-2.14-10.61.18-5.37,2.31-6.71,4.56-12.71,7-.38.16-.76.3-1.12.43h-.03c-6.41,2.15-10.85.04-10.85.04,0,0,2.28,2.46,2.28,8.97s-.49,11.73,2.36,17.63c3.52,7.31,11.77,8.54,11.77,8.54,0,0-1.28-1.23-2.37-6.34M88.49,198.23c-3.11-3.56-4.89-9.99-8.65-16.65-5.92-10.46-13.28-12.77-13.28-12.77,0,0,2.13,5.16-.11,9.44-3.03,5.75-5.54,3.44-5.54,3.44,0,0,.08,4.24,3.87,6.4,5.74,3.29,9.35-.95,9.35-.95,0,0-.41,5.71,5.24,9.95,5.04,3.77,8.96,3.72,11.41,4.48,1.49.48,2.93,1.12,2.93,1.12,0,0-2.1-.87-5.22-4.45M26.61,62.46c2.43-2.15,4.59-2.11,4.59-2.11,0,0-1.77-1.06-3.36-5.12-1.59-4.06-.52-6.97-.52-6.97,0,0-3.19,2.81-4.6,8.2-1.41,5.39,1.16,10.88,1.16,10.88,0,0,.35-2.74,2.74-4.87"/>
    <path class="st7" d="M32.7,52.21c1.38,3.95,1.59,6.55,1.68,8.74.06,1.69.97,3.09.97,3.09,0,0-5.6.63-7.34,3.45-2.81,4.59.17,9.19.17,9.19,0,0,.8-3.36,4.52-4.07,2.04-.39,5.65-.28,9.45,3.09,4.77,4.25,11.04,4.51,11.04,4.51,0,0-1.51-3.98-.37-8.13,1.14-4.15,2.4-5.56,5.05-9.73,2.66-4.13,2.38-5.73,2.11-8.56-.26-2.79-1.85-5.74-1.85-5.74,0,0-.88,2.99-3.34,4.33-2.48,1.33-4.25,2.57-6.27,4.33-2.04,1.76-2.4,4.14-2.4,4.14,0,0-.53-5.39-3.17-8.57-2.66-3.17-5.96-6.51-9.09-7.32-4.78-1.24-6.73-.35-6.73-.35,0,0,3.71,2.3,5.57,7.58M59.64,65.91c-.28,2.83,0,6.26-.61,10.42-.63,4.16-4.42,6.54-4.42,6.54,0,0,6.45,1.85,10.07-3.98,2.75-4.42.54-9.8-1.16-12.55-1.67-2.74-1.41-7.05-1.41-7.05,0,0-2.2,3.78-2.46,6.61M18.44,83.03c2.4-3.73,7.16-2.61,7.16-2.61,0,0-5.93-9.58-11.75-1.86-6.79,9,6.72,15.64,6.72,15.64,0,0-5.19-6.44-2.12-11.16M50.34,102.12c-6.63-.28-9.63,13.46-7.73,20.94,7.27-15.01,22.06-12.12,22.06-12.12,0,0-7.8-8.55-14.34-8.82"/>
    <path class="st7" d="M33.22,120.85c2.57,3.01,6.1,3.98,6.1,3.98,0,0-2.47-9.55.37-17.67,2.83-8.12,9.25-11.49,13.24-12.45,3.97-.98,5.3-.98,7.77-2.11,1.92-.9,2.6-2.2,3.62-4.07-2.56.35-4.34.26-7.07-.79-2.73-1.06-5.29-2.48-10.33-5.91-5.04-3.45-6.99-3.57-11.74-3.98-4.07-.35-5.83,1.58-5.83,1.58,0,0,3.13,1.39,4.51,3.62,2.11,3.45.79,6.81.79,6.81,0,0-2.13-1.06-4.95-1.5-2.83-.45-4.51-.06-6.18-.37-1.5-.25-2.03-1.49-2.03-1.49,0,0-.88,3.09,1.06,7.7,1.94,4.58,4.58,4.94,4.58,4.94,0,0-7.07,1.13-8.83,8.03-2.38,9.37,4.96,15.1,4.96,15.1,0,0,.45-4.69,2.73-5.65,2.29-.96,5.12-2.74,5.12-2.74,0,0-.44,3.98,2.11,6.99"/>
    <path class="st7" d="M148.87,136.88,55.31,195.9c.43-1.01,1.45-1.73,2.62-1.73.49,0,.9.14,1.32.34,1.23.67,3.55,2.16,5.67,2.64,2.46.58,3.93.13,4.08-.56.17-.71-2.51-3.45-5.44-3.94-2.94-.47-7.34-.59-13.33.47-5.99,1.05-8.19-.14-8.6-1.06-.42-.92.09-1.24.43-1.93-.84.06-1.46.41-1.85,1.15-1.08,2.09-1.77,4.58-1.72,9.36.06,4.79.25,8.65,3.03,9.27,2.78.61,4.81-1.32,6.81-1.61,2-.32,2.73.65,2.73.65l4.25-13.07ZM165.28,195.9c-.44-1.01-1.46-1.73-2.64-1.73-.48,0-.88.14-1.31.34-1.22.67-3.54,2.16-5.67,2.64-2.47.58-3.93.13-4.09-.56-.16-.71,2.52-3.45,5.45-3.94,2.93-.47,7.35-.59,13.34.47,5.98,1.05,8.19-.14,8.6-1.06.41-.92-.11-1.24-.44-1.93.85.06,1.46.41,1.86,1.15,1.07,2.09,1.77,4.58,1.71,9.36-.04,4.79-.24,8.65-3.03,9.27-2.77.61-4.8-1.32-6.81-1.61-2-.32-2.74.65-2.74.65l-4.24-13.07Z"/>
    <path class="st7" d="M168.77,214.32c-13.84,9.58-34.88,15.66-58.45,15.66s-44.58-6.08-58.38-15.62c-.31-.22-.51-.57-.51-.98,0-.14.02-.28.06-.41l5.33-16.39c.18-.43.62-.73,1.11-.73.31,0,.6.13.85.35,8.23,8.68,28.19,14.79,51.53,14.79s43.53-6.19,51.73-14.93c.22-.2.51-.29.82-.29.5,0,.82.32,1.03.78,0,0,5.39,16.4,5.41,16.4.06.13.09.28.1.43,0,.43-.28.76-.63.96M104.21,32.9c.33.48.87.48,1.21,0l3.43-4.05c.33-.46.13-.86-.45-.86h-7.28c-.58,0-.77.4-.44.85l3.53,4.06ZM118.61,33.21c.46,0,1.14-.37,1.54-.82l3.12-3.66c.39-.46.34-.83-.12-.83h-6.46c-.46,0-1.16.37-1.54.83l-3.13,3.66c-.4.45-.34.82.12.82h6.46ZM148.51,33.21c.45,0,1.14-.37,1.53-.82l3.13-3.66c.37-.46.33-.83-.13-.83h-2.92c-.46,0-1.16.37-1.54.83l-3.13,3.66c-.38.45-.33.82.13.82h2.94ZM155.28,33.21c-.92,0-.43-.73.23-1.61l2.17-2.45c.67-.67,1.95-1.2,2.86-1.2h2.99c.91,0,.88.71-.03,1.61-3.6,3.51-8.23,3.66-8.23,3.66M139.01,33.2c.46,0,1.15-.37,1.53-.82l3.13-3.66c.4-.46.34-.83-.12-.83h-2.92c-.45,0-1.14.37-1.53.83l-3.13,3.66c-.39.45-.35.82.11.82h2.93ZM129.42,33.2c.45,0,1.14-.37,1.54-.82l3.12-3.66c.39-.46.33-.83-.12-.83h-4.03c-.45,0-1.14.37-1.54.83l-3.12,3.66c-.38.45-.33.82.12.82h4.04ZM92.54,33.33c-.47,0-1.15-.37-1.54-.83l-3.14-3.66c-.39-.45-.34-.83.12-.83h6.46c.47,0,1.15.38,1.54.83l3.12,3.66c.4.45.35.83-.11.83h-6.46ZM72.14,33.33c-.45,0-1.15-.37-1.55-.83l-3.13-3.66c-.39-.45-.32-.83.12-.83h2.93c.45,0,1.14.38,1.53.83l3.12,3.66c.4.45.33.83-.12.83h-2.92ZM81.73,33.33c-.45,0-1.16-.37-1.54-.83l-3.13-3.66c-.39-.45-.33-.83.12-.83h4.03c.45,0,1.14.38,1.53.83l3.13,3.66c.39.45.34.83-.13.83h-4.01ZM65.35,33.33c.91,0,.43-.73-.22-1.61l-2.19-2.46c-.66-.66-1.95-1.19-2.86-1.19h-2.98c-.9,0-.88.69.03,1.61,3.58,3.5,8.21,3.65,8.21,3.65"/>
    <path class="st7" d="M134.08,66.71c-.02-.67-.05-1.28-.11-1.75-.96-10.28-3.52-19.52-8.71-28-.26-.79-1.04-1.06-1.83-.54-.49,0-.53.44-.34.92,0,0,1.79,2.35,2.5,3.56,1.07,1.83,1.76,3.87,1.7,6.09.01.79-.07,1.56-.23,2.34-1.05,4.96-5.17,9.06-9.72,11.2-1.28.47-2.61.8-3.97.98-2.87.36-6.04.15-8.25-1.71-.71-.55-1.32-1.2-1.82-1.95-.87-1.41-1.36-3.27-1.2-5.06.03-.61.18-1.43.69-1.84l.12-.17c1.77-2.43,2.32,2.22,6.74,2.94.71.14,1.46.16,2.22.02.71-.27,1.36-.74,1.9-1.36.63-.68,1.06-1.48,1.25-2.3.13-.58.14-1.15.06-1.73-.23-1.03-.78-1.89-1.58-2.55-2.29-1.94-6.02-3.33-7.23-6.22-.23-.83-.25-1.52-.04-2.21.2-.69.67-1.43,1.11-2.14.11-.18,2.05-2.47,2.08-2.47l3.55-4.07c.28-1.07-1.04-.8-1.31-.55-2.66,2.62-4.01,6.03-7.18,7.85-3.97,1.28-7.67,2.56-10.59,6.21-4.51,3.14-9.01,6.51-13.77,8.84-.53,1.05-.28,2.37-.03,3.43,2.36,1.59,5.51,1.63,8.4,2.44,1.31,1.85,1.55,4.75,1,6.86,1.83.54,6.28-3.12,7.69-6.26,2.11.28,3.93,2.4,4.18,4.51.15,1.73-.24,3.29-.92,4.66-2.12,4.23-7.02,6.73-7.02,6.73,1.99.81,3.45,2.35,4.13,2.54.71.19,2.92-4.59,3.86-4.81,1.18-.28,5.33,2.99,6.24,2.99.75,0,3.49-3.87,4.67-3.8,1.34.08,4.12,4.61,5.04,4.74.63.07,4.81-3.99,6.14-3.84.96.1,2.74,3.66,3.45,3.95.76.26,2.15-1.82,7.21-2.77,0,0,.04-3.29-.05-5.73"/>
    <path class="st7" d="M108.84,34.96c-.35.23-.52.44-.79.74-.54.66-.85,1.37-1.01,1.92-.14.52-.14,1.04.02,1.65,1.07,2.52,4.88,4.11,6.97,5.88.93.76,1.6,1.81,1.86,3.04.11.68.1,1.4-.05,2.08-.24,1.01-.74,1.94-1.46,2.7-.63.74-1.4,1.28-2.26,1.59-.95.19-1.81.17-2.62.03-2.28-.38-4.09-1.87-5.67-3.57-.18.2-.28.35-.37.48l-.12.12c-.25.17-.36.94-.38,1.22-.15,1.61.3,3.31,1.08,4.55.44.67.98,1.25,1.63,1.75,1.91,1.65,4.8,1.87,7.62,1.52,1.3-.16,2.58-.49,3.74-.91,4.37-2.08,8.24-5.98,9.2-10.61.16-.71.23-1.44.23-2.14.05-2.03-.58-3.91-1.57-5.64-.75-1.26-1.52-2.3-2.75-3.54-.59-.59-1.15-.98-1.59-1.42.54-1.06,1.86-.78,2.38-1.57-4.21-.56-12.77-.36-12.77-.36-.54.06-.85.16-1.3.48M108.14,58.34c-.12.05-.26.1-.42.04.16-.06.23-.27.19-.46.04-.08.16-.04.26.04.11.22.05.31-.04.38M111.07,59c-.2.18-.42.36-.76.36.25-.21.24-.67.04-1.02.04-.16.28-.16.54-.08.13.03.18.05.2.12.14.24.09.44-.02.62M113.72,59.19c.29-.5-.02-1.23-.59-1.65-.04-.27.33-.43.83-.5.22-.03.32,0,.41.06.36.29.4.66.35,1.03-.19.42-.44.85-1,1.06M117.55,58.03c.07-.76-.53-1.65-1.22-2.04-.17-.35.13-.68.58-.9.21-.08.28-.1.41-.05.46.3.66.78.75,1.29,0,.61-.08,1.25-.51,1.7M118.73,53.88c-.37-.26-.34-.79-.12-1.24.12-.2.2-.27.33-.27.59.04,1.08.45,1.48.91.43.67.79,1.38.71,2.07-.44-.81-1.54-1.43-2.41-1.48M120.29,50.98c-.55-.05-.84-.64-.85-1.26,0-.3.04-.4.17-.48.67-.31,1.43-.16,2.17.11.83.46,1.65,1,1.99,1.81-.97-.62-2.52-.64-3.47-.18M125.01,47.23c-1.37-.65-3.41-.4-4.57.39-.75.02-1.22-.68-1.35-1.51-.07-.4-.04-.53.14-.67.81-.5,1.84-.45,2.84-.23,1.18.46,2.36,1.02,2.94,2.02M124.08,43.32c-1.86-.68-3.96-.71-5.4.53-.97.09-1.78-.55-2.39-1.22-.17-.24-.14-.7.07-.92,1.02-.79,2.37-.87,3.7-.71,1.56.47,3.17,1.07,4.01,2.33M110.77,38.16c1.32-1.04,3.17-1.29,5.01-1.28,2.22.35,4.47.84,5.77,2.16-2.62-.55-5.52-.3-7.38,1.24-1.32.26-2.51-.38-3.41-1.08-.28-.26-.27-.79,0-1.05"/>
  </g>
  <g class="st1">
    <path class="st7" d="M143.26,136.95v-31.89"/>
    <path class="st7" d="M145.02,103.49v33.57"/>
    <path class="st7" d="M154.6,178.24c-2.25-4.28-.1-9.44-.1-9.44,0,0-7.37,2.31-13.29,12.77-3.76,6.66-5.54,13.09-8.65,16.65-3.11,3.58-5.23,4.45-5.23,4.45,0,0,1.43-.63,2.93-1.11,2.46-.76,6.38-.71,11.41-4.49,5.65-4.23,5.24-9.94,5.24-9.94,0,0,3.6,4.25,9.36.95,3.78-2.16,3.88-6.39,3.88-6.39,0,0-2.52,2.3-5.55-3.44M181.14,127h-.03c-.38-.13-.74-.26-1.13-.43-5.99-2.43-7.35-4.69-12.72-7-5.36-2.31-10.61-.18-10.61-.18,0,0,3.31,1.88,4.67,3.89.83,1.22,1.17,2.46,1.56,3.72.25.81.51,1.62.93,2.45,1.06,2.1,4.82,4.13,4.82,4.13,0,0-5.2,2.2-7.73,4.41-2.54,2.22-4.71,5.25-4.3,9.72.4,4.47,3.96,7.41,3.96,7.41,0,0,1.18-4.83,6.32-7.01,6.4-2.7,11.14.79,11.14.79,0,0,1.02,1.85-.06,6.95-1.09,5.11-2.37,6.34-2.37,6.34,0,0,8.26-1.23,11.77-8.54,2.86-5.91,2.37-11.13,2.37-17.64s2.28-8.97,2.28-8.97c0,0-4.44,2.11-10.84-.04"/>
    <path class="st7" d="M177.33,165.98c-5.77-2.08-8.71-1.18-8.71-1.18,0,0,0-2.29,1.47-6.29,1.47-4,3.77-5.97,3.77-5.97,0,0-6.69-1.81-11.92,4.23-5.22,6.02-5.62,11.08-4.41,14.64,1.3,3.82,2.83,5.3,3.96,7.4,1.01,1.89,1.37,4.91,1.37,4.91,0,0,2.3-7.91,8.18-10.44,6.86-2.94,12.11,1.59,12.11,1.59,0,0,.2-6.69-5.82-8.89M193.72,48.25s1.06,2.91-.53,6.97c-1.59,4.06-3.36,5.12-3.36,5.12,0,0,2.16-.04,4.6,2.11,2.38,2.13,2.74,4.88,2.74,4.88,0,0,2.56-5.48,1.14-10.88-1.41-5.39-4.6-8.21-4.6-8.21"/>
    <path class="st7" d="M168.21,72.09c1.16,4.15-.37,8.13-.37,8.13,0,0,6.28-.26,11.05-4.51,3.8-3.37,7.41-3.48,9.45-3.09,3.71.71,4.51,4.07,4.51,4.07,0,0,3-4.6.16-9.19-1.75-2.82-7.33-3.45-7.33-3.45,0,0,.91-1.41.97-3.09.1-2.2.3-4.79,1.68-8.74,1.85-5.29,5.57-7.58,5.57-7.58,0,0-1.95-.88-6.71.35-3.15.81-6.46,4.15-9.11,7.32-2.65,3.18-3.18,8.57-3.18,8.57,0,0-.36-2.38-2.4-4.14-2.03-1.77-3.78-3.01-6.26-4.33-2.47-1.33-3.35-4.33-3.35-4.33,0,0-1.59,2.95-1.85,5.73-.27,2.83-.53,4.43,2.12,8.56,2.65,4.17,3.9,5.58,5.05,9.73M166.45,82.87s-3.8-2.38-4.43-6.54c-.61-4.16-.35-7.58-.61-10.42-.28-2.83-2.46-6.61-2.46-6.61,0,0,.24,4.31-1.42,7.05-1.68,2.74-3.9,8.12-1.14,12.55,3.62,5.83,10.07,3.98,10.07,3.98M178.44,123.06c1.91-7.48-1.1-21.23-7.73-20.94-6.55.28-14.34,8.82-14.34,8.82,0,0,14.8-2.89,22.07,12.12M207.19,78.56c-5.84-7.72-11.74,1.87-11.74,1.87,0,0,4.75-1.12,7.14,2.6,3.09,4.73-2.11,11.16-2.11,11.16,0,0,13.51-6.64,6.71-15.64"/>
    <path class="st7" d="M193.91,99.12s2.66-.36,4.58-4.94c1.95-4.61,1.06-7.7,1.06-7.7,0,0-.53,1.24-2.03,1.49-1.67.31-3.35-.08-6.17.37-2.83.44-4.96,1.5-4.96,1.5,0,0-1.31-3.36.81-6.81,1.38-2.23,4.51-3.62,4.51-3.62,0,0-1.77-1.93-5.84-1.58-4.75.41-6.71.53-11.74,3.98-5.03,3.42-7.59,4.84-10.34,5.91-2.73,1.06-4.5,1.14-7.06.79,1.03,1.87,1.7,3.16,3.62,4.07,2.48,1.14,3.8,1.14,7.77,2.11,3.98.97,10.43,4.33,13.26,12.46,2.83,8.12.35,17.67.35,17.67,0,0,3.54-.97,6.09-3.98,2.56-3.01,2.12-6.98,2.12-6.98,0,0,2.83,1.78,5.13,2.74,2.29.97,2.72,5.65,2.72,5.65,0,0,7.34-5.73,4.96-15.1-1.75-6.9-8.83-8.03-8.83-8.03M143.09,77.16c-.77-.94-8.74,3.33-8.74,3.33,0,0-.13-4.27-1.18-5.07-3.17.25-5.57,1.83-7.71,3.92h0c-.83-2.35-2.11-4.46-2.72-4.5-1.16-.08-5.96,4.27-5.96,4.27,0,0-2.85-5.1-4.41-5.25-.67-.06-3.16,2.69-4.48,4.42-1.57-1.6-4.93-4.11-6.16-3.84-.73.15-2.3,3.46-3.31,5.85-.86-.87-5.28-4.27-7.5-4.63-1.06,1.56-1.1,5.8-1.1,5.8,0,0-4.5-4.15-7.6-4.56-.8,1.05.63,7,3.87,9.79-.1-.84-1.55-3.71-1.27-5.55,1.59-.79,5.37,1.46,5.37,1.46,0,0,.69-2.99,2.29-3.76,2.37.28,6.3,2.95,6.3,2.95,0,0,1.86-3.4,3.45-4.44,2.37-.51,5.78,2.42,5.78,2.42,0,0,2.5-2.95,4.36-2.94,1.82.81,4.19,3.62,4.19,3.62,0,0,3.54-2.38,5.68-3.04,1.27.65,2.79,3.7,2.79,3.7,0,0,4.46-2.95,6.81-2.66.8.79,1.58,3.31,1.58,3.31,0,0,4.88-1.81,6.97-1.72-.3,2.58-1.61,4.47-2.68,6.56,2.46-1.28,6.73-7.76,5.35-9.43"/>
    <path class="st7" d="M111.65,87.69c1.83.27,2.82-7.37.7-7.69-1.79-.27-2.48,7.43-.7,7.69M118.74,87.82c1.92.77,4.68-6.34,2.72-7.11-1.71-.67-4.37,6.41-2.72,7.11M102.49,81.55c-.02,2.63,1.46,6.69,2.83,6.34.96-.25.59-6.05-1.52-7.38-.79-.28-1.32.51-1.32,1.04M126,88.01c1.57,1.01,6.03-5.29,4.07-6.45-1.39-.85-5.89,5.3-4.07,6.45M93.26,82c-.28,2.62,2.34,6.63,3.64,6.08.83-.35-.48-5.79-2.85-6.6-.51-.27-.79.25-.79.52M132.72,87.6c1.27.98,4.51-3.33,3.72-4.18-.96-1.03-4.72,3.42-3.72,4.18M90.04,88.29c1.2-.65-.9-4.77-2.06-4.23-.94.43.99,4.82,2.06,4.23"/>
    <path class="st7" d="M106.63,89.76c-.53,0-.81.33-.65.74l1.92,4.66c.16.4.73.75,1.25.75h7.73c.53,0,.82-.35.67-.75l-1.93-4.66c-.18-.41-.73-.74-1.26-.74h-7.73ZM118.97,90.61c-.38,0-.59.24-.47.54l1.38,3.35c.13.29.54.52.91.52h5.57c.37,0,.59-.22.46-.52l-1.38-3.35c-.12-.3-.52-.54-.91-.54h-5.56ZM128.26,90.98c-.27,0-.42.17-.33.37l.98,2.36c.08.19.37.37.63.37h3.89c.26,0,.42-.18.33-.37l-.97-2.36c-.08-.2-.38-.37-.64-.37h-3.9ZM135.24,91.21c-.19,0-.3.1-.23.26l.68,1.64c.06.14.26.26.45.26h2.72c.18,0,.28-.12.22-.26l-.67-1.64c-.06-.15-.26-.26-.45-.26h-2.72ZM104.76,95.02c.38,0,.59-.23.48-.52l-1.38-3.35c-.11-.3-.53-.54-.9-.54h-5.56c-.39,0-.59.24-.48.54l1.39,3.35c.12.29.52.52.91.52h5.55ZM95.48,94.66c.25,0,.4-.16.32-.37l-.97-2.35c-.08-.21-.37-.38-.64-.38h-3.88c-.26,0-.41.17-.33.38l.96,2.35c.1.2.37.37.65.37h3.9ZM88.5,94.45c.18,0,.3-.12.22-.26l-.67-1.65c-.06-.14-.26-.26-.46-.26h-2.71c-.19,0-.3.12-.24.26l.68,1.65c.07.14.26.26.45.26h2.72Z"/>
  </g>
  <path class="st7" d="M110.28,145.33l2.52-7.89-2.46-14.99-.06,22.88Z"/>
  <path class="st7" d="M107.68,137.48l2.59,7.86.06-22.87-2.66,15.01Z"/>
  <path class="st7" d="M107.83,153.27l2.47,14.94-.03-22.88-2.44,7.94Z"/>
  <path class="st7" d="M110.3,168.22l2.65-15.01-2.68-7.87.03,22.88Z"/>
  <path class="st7" d="M96.89,126.82l10.8,10.65,2.59,7.86-13.39-18.51Z"/>
  <path class="st7" d="M103.57,140.53l-6.68-13.71,13.39,18.52-6.71-4.8Z"/>
  <path class="st7" d="M123.76,163.86l-10.8-10.65-2.68-7.87,13.48,18.52Z"/>
  <path class="st7" d="M117.08,150.16l6.67,13.7-13.48-18.52,6.81,4.82Z"/>
  <path class="st7" d="M88.56,138.24l15.01,2.29,6.71,4.8-21.71-7.09Z"/>
  <path class="st7" d="M102.03,145.34l-13.46-7.09,21.72,7.09h-8.25Z"/>
  <path class="st7" d="M132.07,152.44l-14.99-2.28-6.81-4.82,21.8,7.11Z"/>
  <path class="st7" d="M118.61,145.34l13.46,7.11-21.8-7.11h8.34Z"/>
  <path class="st7" d="M88.55,152.41l13.48-7.07h8.25l-21.73,7.07Z"/>
  <path class="st7" d="M103.65,150.28l-15.1,2.12,21.73-7.07-6.63,4.95Z"/>
  <path class="st7" d="M132.08,138.29l-13.46,7.05h-8.34l21.8-7.05Z"/>
  <path class="st7" d="M116.97,140.42l15.11-2.13-21.8,7.05,6.7-4.92Z"/>
  <path class="st7" d="M96.85,163.84l6.8-13.56,6.63-4.95-13.43,18.5Z"/>
  <path class="st7" d="M107.83,153.27l-10.98,10.57,13.42-18.5-2.44,7.94Z"/>
  <path class="st7" d="M123.78,126.85l-6.81,13.57-6.7,4.92,13.51-18.48Z"/>
  <path class="st7" d="M112.8,137.44l10.98-10.59-13.5,18.48,2.52-7.89Z"/>
  <g class="st4">
    <path class="st7" d="M238.73,46.19h-.12l-1.29,21.99c-.24,4.07-.18,6.05,4.82,6.11v2.41h-13.06v-2.41c4.59-.06,4.7-1.42,5-6.55l1.29-22.36c.18-3.15,0-4.51-3.94-4.7v-2.41h12.41l11.47,25.94,11-25.94h12.65v2.41c-4.24.25-4.53.25-4.24,4.7l1.41,22.79c.3,5.18.47,5.74,5.18,6.11v2.41h-18.53v-2.41h1c2.47,0,4.53,0,4.53-4.01,0-.99-.06-1.98-.12-2.91l-1.35-21.92h-.12l-13.18,31.25h-1.41l-13.41-30.51ZM300.03,62.44l-2.47,7.22c-1.06,3.15-1,4.63,4.65,4.63h.76v2.41h-15.59v-2.41h.88c2.82,0,4.29-1.36,5.76-5.68l10.06-29.46-.65-1.79h8.7l11.77,31.37c1.53,4.08,2.82,5.31,5.88,5.56v2.41h-19.11v-2.41h2.05c3.59,0,4.12-1.67,2.94-4.7l-2.76-7.16h-12.89ZM306.15,44.59l-4.94,14.45h10.35l-5.41-14.45ZM335.86,65.34h2.3c1.94,6.12,5.41,9.26,10.06,9.26,3.88,0,6.83-2.59,6.83-6.05,0-9.2-18.89-8.89-18.89-21.12,0-5.93,4.94-10.07,11.94-10.07,4.53,0,8.06,1.61,8.94,1.61.41,0,.76-.12,1.3-.68h1.24l1.12,10h-2.35c-1.3-5-5.06-8.28-9.59-8.28-3.29,0-5.76,1.85-5.76,4.26,0,5.68,9.76,6.73,16.35,13.65,2.41,2.53,3.35,5.19,3.35,8.15,0,6.42-5.53,11.49-12.53,11.49-4.71,0-9-1.98-10.06-1.98-.53,0-.94.31-1.24.99h-1.53l-1.47-11.24ZM371.04,65.34h2.3c1.94,6.12,5.41,9.26,10.06,9.26,3.88,0,6.83-2.59,6.83-6.05,0-9.2-18.89-8.89-18.89-21.12,0-5.93,4.94-10.07,11.94-10.07,4.53,0,8.06,1.61,8.95,1.61.41,0,.76-.12,1.29-.68h1.24l1.12,10h-2.36c-1.29-5-5.06-8.28-9.59-8.28-3.29,0-5.76,1.85-5.76,4.26,0,5.68,9.76,6.73,16.35,13.65,2.41,2.53,3.36,5.19,3.36,8.15,0,6.42-5.53,11.49-12.53,11.49-4.71,0-9-1.98-10.06-1.98-.53,0-.94.31-1.24.99h-1.53l-1.47-11.24ZM431.87,41.69h-12.88v13.89h9.53c3.24,0,4.41-1.17,4.41-4.45h2.35v12.29h-2.35c0-3.33-.77-4.45-5.29-4.45h-8.65v11.12c0,2.66.47,3.21,2.18,3.21h9.82c3.82,0,5.65-1.11,6.77-6.3h2.24l-.71,9.7h-35.42v-2.4h2.42c3.41,0,4.59-1.42,4.59-4.45v-24.64c0-3.33-1.06-4.51-5.12-4.51h-.59v-2.41h32.41l.59,8.96h-2.23c-.59-4.2-1.36-5.56-4.06-5.56M471.05,69.72c0,2.97.88,4.57,5.12,4.57h.88v2.41h-20.06v-2.41h1.47c3.53,0,4.47-1.67,4.47-4.45v-8.59l-12.65-17.66c-1.71-2.34-2.41-2.9-5.35-2.9h-.41v-2.41h19.18v2.41h-.71c-3.41,0-3.88,1.48-2.64,3.15l9.41,13.03,6.82-11.24c1.53-2.53,2-4.94-2.12-4.94h-.71v-2.41h13.89v2.41c-3.41.25-4.41.93-6.53,4.32l-10.06,16.24v8.46ZM546.41,38.29h15.23v2.41h-.41c-4.7,0-5.41,2.16-5.41,5.12v15.38c0,13.77-9.53,16.37-16.53,16.37-10.59,0-17.3-4.82-17.3-14.27v-18.4c0-3.09-.82-4.2-4.12-4.2h-1v-2.41h18.41v2.41h-1c-2.47,0-4.17,1.18-4.17,4.2v18.4c0,7.53,5.29,10.13,10.65,10.13,7.71,0,11.53-4.57,11.53-11.36v-15.01c0-4.38-1.18-6.36-4.82-6.36h-1.06v-2.41ZM576.17,69.29c0,3.77,1.12,5,5.82,5v2.4h-14.23v-2.4h.35c3.59,0,4.47-1.36,4.47-3.89v-28.35c-1.3-.93-2.88-1.36-4.71-1.36v-2.41h12.12l24,26.31v-18.65c0-4.45-.88-5.25-5.59-5.25h-.59v-2.41h15.18v2.41h-.59c-3.64,0-4.82.8-4.82,3.15v33.04h-3.24l-28.18-30.94v23.34ZM618.77,38.29h18.71v2.41h-1c-3.17,0-4.47,1.42-4.47,4.64v24.46c0,3.02,1,4.51,4.59,4.51h.89v2.41h-18.71v-2.41h.82c3.12,0,4.29-1.55,4.29-4.26v-24.7c0-3.21-1.06-4.64-4.35-4.64h-.77v-2.41ZM650.12,45.88c-1.94-4.45-2.77-5.19-6.12-5.19h-.41v-2.41h20.41v2.41h-1c-4.94,0-5.7,1.73-4.06,5.37l9.23,20.63,9-22.48c.82-2.1-.53-3.52-3.88-3.52h-1.18v-2.41h14.94v2.41h-.41c-3.47,0-4.77,1.67-6.71,6.55l-12.24,30.32h-3.71l-13.88-31.68ZM718.54,41.69h-12.88v13.89h9.53c3.24,0,4.41-1.17,4.41-4.45h2.35v12.29h-2.35c0-3.33-.77-4.45-5.3-4.45h-8.64v11.12c0,2.66.47,3.21,2.18,3.21h9.82c3.82,0,5.65-1.11,6.77-6.3h2.24l-.71,9.7h-35.42v-2.4h2.42c3.41,0,4.59-1.42,4.59-4.45v-24.64c0-3.33-1.06-4.51-5.12-4.51h-.59v-2.41h32.41l.59,8.96h-2.24c-.59-4.2-1.35-5.56-4.06-5.56M747.84,69.78c0,3.15,1.3,4.51,4.65,4.51h1.76v2.41h-20.59v-2.41h.94c3.59,0,5.12-.93,5.12-4.51v-24.39c0-2.97-.76-4.7-4.71-4.7h-1.23v-2.41c2.94-.18,5.18-.31,7.58-.49,3.29-.25,7.53-.43,9.65-.43,8.64,0,13.35,1.17,16.29,4.26,1.94,2.04,2.82,4.39,2.82,7.04,0,4.7-3.23,8.4-8.7,9.94,3.88,3.4,5.94,8.28,10.12,12.66,2.41,2.53,4.06,3.27,7.77,3.64v2.41c-1.3.06-1.88.06-3.65.06-7.29,0-10.29-1.11-13.06-4.01-2.94-3.09-6.35-9.58-10.12-12.97h-4.65v9.39ZM747.84,57.8h2.29c7.12,0,11.24-2.29,11.24-8.89s-4.76-8.89-10.47-8.89h-3.06v17.79ZM783.9,65.34h2.29c1.94,6.12,5.41,9.26,10.06,9.26,3.88,0,6.83-2.59,6.83-6.05,0-9.2-18.89-8.89-18.89-21.12,0-5.93,4.94-10.07,11.94-10.07,4.53,0,8.06,1.61,8.94,1.61.41,0,.77-.12,1.29-.68h1.24l1.12,10h-2.36c-1.29-5-5.06-8.28-9.59-8.28-3.29,0-5.76,1.85-5.76,4.26,0,5.68,9.76,6.73,16.35,13.65,2.41,2.53,3.35,5.19,3.35,8.15,0,6.42-5.53,11.49-12.53,11.49-4.71,0-9-1.98-10.06-1.98-.53,0-.94.31-1.24.99h-1.53l-1.47-11.24ZM817.02,38.29h18.71v2.41h-1c-3.17,0-4.47,1.42-4.47,4.64v24.46c0,3.02,1,4.51,4.59,4.51h.89v2.41h-18.71v-2.41h.82c3.12,0,4.3-1.55,4.3-4.26v-24.7c0-3.21-1.06-4.64-4.35-4.64h-.77v-2.41ZM865.85,69.66c0,3.21.94,4.63,5.12,4.63h1.41v2.41h-21.18v-2.41h2c3.23,0,4.53-1.36,4.53-4.63v-28.16h-6.94c-4.53,0-5.24.74-6.36,7.29h-2.41l1.06-11.55h1.89c.47.43.76.74,1.12.87.41.12.88.18,1.71.18h28c1.59,0,1.88-.12,2.83-1.05h1.88l1.06,11.55h-2.41c-1.12-6.49-1.83-7.29-6.35-7.29h-6.94v28.16ZM912.32,69.72c0,2.97.88,4.57,5.12,4.57h.88v2.41h-20.06v-2.41h1.47c3.53,0,4.47-1.67,4.47-4.45v-8.59l-12.65-17.66c-1.7-2.34-2.41-2.9-5.35-2.9h-.41v-2.41h19.18v2.41h-.71c-3.42,0-3.88,1.48-2.64,3.15l9.41,13.03,6.82-11.24c1.53-2.53,2-4.94-2.12-4.94h-.71v-2.41h13.88v2.41c-3.41.25-4.41.93-6.53,4.32l-10.06,16.24v8.46ZM244.79,130.16c0,2.22.65,3.2,3.53,3.2h.98v1.66h-14.62v-1.66h1.38c2.23,0,3.13-.94,3.13-3.2v-19.42h-4.79c-3.13,0-3.61.51-4.38,5.02h-1.67l.73-7.97h1.3c.33.3.53.51.77.6.29.09.61.13,1.18.13h19.33c1.1,0,1.3-.09,1.95-.73h1.3l.73,7.97h-1.67c-.77-4.47-1.26-5.02-4.38-5.02h-4.79v19.42ZM279.49,110.86h-8.89v9.59h6.57c2.24,0,3.05-.81,3.05-3.07h1.63v8.48h-1.63c0-2.3-.53-3.07-3.65-3.07h-5.97v7.67c0,1.83.33,2.22,1.5,2.22h6.78c2.64,0,3.9-.76,4.67-4.35h1.54l-.49,6.69h-24.44v-1.66h1.67c2.35,0,3.17-.98,3.17-3.06v-17c0-2.31-.73-3.11-3.54-3.11h-.41v-1.66h22.37l.41,6.18h-1.54c-.41-2.9-.94-3.84-2.81-3.84M317.16,130.24c0,2.39,1.06,3.11,3.21,3.11h.57v1.66h-13.24v-1.66h.73c2.07,0,3.13-.73,3.13-3.2v-16.74c0-2.26-.77-3.23-3.17-3.23h-.69v-1.66h13.24v1.66h-.69c-2.64,0-3.09,1.06-3.09,3.4v7.67c1.62-.21,3.54-1.32,5.36-3.24,1.34-1.4,3.94-4.86,3.94-6.43,0-.9-.73-1.4-2.44-1.4h-.45v-1.66h10.84v1.66c-2.44.16-3.33.38-4.43,1.53-1.83,1.92-3.69,6-6.69,8.39,1.18.64,3.04,2.86,4.3,4.56l3.53,4.73c2.07,2.81,3.66,3.96,6.17,3.96v1.66h-13.85v-1.66c1.71,0,2.84-.26,2.84-1.16s-3.73-5.32-6.29-8c-1.3-1.37-1.87-1.54-2.84-1.54v7.58ZM360.95,108.51h10.51v1.66h-.28c-3.25,0-3.74,1.48-3.74,3.54v10.61c0,9.51-6.58,11.29-11.41,11.29-7.31,0-11.94-3.32-11.94-9.84v-12.69c0-2.14-.57-2.9-2.84-2.9h-.69v-1.66h12.71v1.66h-.69c-1.71,0-2.88.8-2.88,2.9v12.69c0,5.2,3.65,6.99,7.35,6.99,5.32,0,7.96-3.15,7.96-7.84v-10.36c0-3.02-.81-4.38-3.33-4.38h-.73v-1.66ZM381.89,129.9c0,2.6.77,3.46,4.02,3.46v1.66h-9.82v-1.66h.24c2.48,0,3.09-.94,3.09-2.68v-19.56c-.89-.64-1.99-.94-3.25-.94v-1.66h8.37l16.56,18.15v-12.87c0-3.06-.61-3.62-3.86-3.62h-.41v-1.66h10.48v1.66h-.41c-2.52,0-3.33.56-3.33,2.18v22.79h-2.24l-19.45-21.35v16.11ZM430.8,110.86h-8.89v9.59h6.57c2.24,0,3.05-.81,3.05-3.07h1.62v8.48h-1.62c0-2.3-.53-3.07-3.66-3.07h-5.96v7.67c0,1.83.32,2.22,1.5,2.22h6.78c2.64,0,3.9-.76,4.67-4.35h1.54l-.49,6.69h-24.44v-1.66h1.67c2.36,0,3.17-.98,3.17-3.06v-17c0-2.31-.73-3.11-3.54-3.11h-.41v-1.66h22.37l.41,6.18h-1.54c-.41-2.9-.94-3.84-2.8-3.84M448.01,129.9c0,2.6.77,3.46,4.02,3.46v1.66h-9.83v-1.66h.24c2.48,0,3.09-.94,3.09-2.68v-19.56c-.89-.64-1.99-.94-3.25-.94v-1.66h8.37l16.56,18.15v-12.87c0-3.06-.61-3.62-3.86-3.62h-.41v-1.66h10.47v1.66h-.41c-2.52,0-3.33.56-3.33,2.18v22.79h-2.24l-19.45-21.35v16.11ZM508.45,123.9c-2.15.04-2.88.72-2.88,2.68v6.35c-2.92,1.4-7.1,2.68-10.59,2.68-10.27,0-15.23-6.01-15.23-14.19s6.13-13.55,14.78-13.55c4.18,0,7.42,1.48,8.8,1.48.61,0,.94-.16,1.22-.55h1.02v7.79h-1.63c-1.1-4.35-4.18-6.91-8.4-6.91-5.77,0-9.75,4.78-9.75,11.68s4.18,12.18,9.83,12.18c1.54,0,3.25-.43,4.34-1.11v-5.88c0-2.13-.85-2.6-4.99-2.68v-1.62h13.48v1.62ZM521.92,125.17l-1.71,4.98c-.73,2.17-.69,3.19,3.21,3.19h.53v1.66h-10.76v-1.66h.61c1.94,0,2.96-.94,3.98-3.92l6.94-20.33-.44-1.23h6.01l8.12,21.64c1.06,2.81,1.95,3.67,4.06,3.84v1.66h-13.2v-1.66h1.42c2.47,0,2.84-1.15,2.03-3.24l-1.91-4.94h-8.89ZM526.13,112.86l-3.41,9.97h7.15l-3.74-9.97ZM573.54,130.24c0,2.39,1.06,3.11,3.21,3.11h.57v1.66h-13.24v-1.66h.73c2.07,0,3.13-.73,3.13-3.2v-16.74c0-2.26-.77-3.23-3.17-3.23h-.69v-1.66h13.24v1.66h-.69c-2.64,0-3.09,1.06-3.09,3.4v7.67c1.62-.21,3.53-1.32,5.36-3.24,1.34-1.4,3.93-4.86,3.93-6.43,0-.9-.73-1.4-2.43-1.4h-.45v-1.66h10.84v1.66c-2.44.16-3.33.38-4.43,1.53-1.83,1.92-3.69,6-6.7,8.39,1.18.64,3.05,2.86,4.31,4.56l3.53,4.73c2.07,2.81,3.65,3.96,6.17,3.96v1.66h-13.85v-1.66c1.71,0,2.85-.26,2.85-1.16s-3.74-5.32-6.29-8c-1.3-1.37-1.87-1.54-2.84-1.54v7.58ZM597.69,108.51h12.91v1.66h-.69c-2.19,0-3.09.98-3.09,3.19v16.87c0,2.09.69,3.11,3.17,3.11h.61v1.66h-12.91v-1.66h.57c2.15,0,2.97-1.06,2.97-2.94v-17.04c0-2.22-.73-3.19-3.01-3.19h-.53v-1.66ZM642.21,130.16c0,2.47.89,3.2,3.53,3.2h1.22v1.66h-13.81v-1.66h.61c2.23,0,2.84-.52,2.84-2.43v-18.27c0-1.97-.61-2.48-2.84-2.48h-.89v-1.66c1.59-.09,3.78-.34,6.58-.47,2.68-.13,5.32-.21,6.46-.21,7.83,0,11.16,3.96,11.16,8.35,0,4.94-3.98,8.09-10.23,8.09-1.46,0-2.93-.13-4.63-.43v6.31ZM642.21,122.11c.85.21,1.75.3,2.93.3,3.77,0,5.88-2.3,5.88-6.47,0-3.92-2.19-6.22-5.93-6.22-.97,0-1.91.09-2.88.3v12.1ZM682.24,108.51h10.52v1.66h-.28c-3.25,0-3.74,1.48-3.74,3.54v10.61c0,9.51-6.58,11.29-11.41,11.29-7.31,0-11.94-3.32-11.94-9.84v-12.69c0-2.14-.57-2.9-2.84-2.9h-.69v-1.66h12.71v1.66h-.69c-1.71,0-2.88.8-2.88,2.9v12.69c0,5.2,3.65,6.99,7.35,6.99,5.32,0,7.96-3.15,7.96-7.84v-10.36c0-3.02-.81-4.38-3.33-4.38h-.73v-1.66ZM706.59,130.24c0,2.18.89,3.11,3.21,3.11h1.21v1.66h-14.2v-1.66h.65c2.48,0,3.54-.64,3.54-3.11v-16.83c0-2.04-.53-3.23-3.25-3.23h-.85v-1.66c2.03-.13,3.58-.21,5.24-.34,2.27-.17,5.19-.3,6.66-.3,5.97,0,9.22.81,11.24,2.94,1.34,1.4,1.95,3.02,1.95,4.86,0,3.24-2.23,5.8-6.01,6.86,2.68,2.35,4.1,5.71,6.99,8.74,1.66,1.74,2.8,2.26,5.36,2.51v1.67c-.89.04-1.3.04-2.52.04-5.03,0-7.11-.77-9.01-2.77-2.03-2.14-4.39-6.61-6.98-8.95h-3.21v6.47ZM706.59,121.98h1.58c4.92,0,7.76-1.58,7.76-6.14s-3.29-6.13-7.23-6.13h-2.11v12.28ZM750.38,110.86h-8.89v9.59h6.58c2.23,0,3.05-.81,3.05-3.07h1.63v8.48h-1.63c0-2.3-.53-3.07-3.66-3.07h-5.97v7.67c0,1.83.33,2.22,1.5,2.22h6.78c2.63,0,3.9-.76,4.67-4.35h1.54l-.49,6.69h-24.44v-1.66h1.66c2.36,0,3.17-.98,3.17-3.06v-17c0-2.31-.73-3.11-3.53-3.11h-.41v-1.66h22.37l.41,6.18h-1.55c-.41-2.9-.93-3.84-2.8-3.84M781.35,133.35c2.15,0,3.04-.98,3.04-3.28v-7.59h-13.4v7.67c0,2.26.85,3.2,3.12,3.2h.61v1.66h-13.03v-1.66h.69c2.07,0,3.01-.98,3.01-3.11v-16.95c0-2.13-.89-3.11-3.05-3.11h-.65v-1.66h13.03v1.66h-.57c-2.11,0-3.16.72-3.16,3.11v6.69h13.4v-6.56c0-2.39-.89-3.23-3.25-3.23h-.37v-1.66h12.99v1.66h-.73c-2.07,0-3.05.8-3.05,3.11v16.87c0,2.22.77,3.2,3.13,3.2h.65v1.66h-12.99v-1.66h.57ZM818.65,108.51h10.51v1.66h-.28c-3.25,0-3.73,1.48-3.73,3.54v10.61c0,9.51-6.58,11.29-11.41,11.29-7.31,0-11.94-3.32-11.94-9.84v-12.69c0-2.14-.57-2.9-2.84-2.9h-.69v-1.66h12.71v1.66h-.69c-1.71,0-2.89.8-2.89,2.9v12.69c0,5.2,3.66,6.99,7.35,6.99,5.32,0,7.95-3.15,7.95-7.84v-10.36c0-3.02-.81-4.38-3.33-4.38h-.73v-1.66ZM843,130.24c0,2.18.89,3.11,3.21,3.11h1.22v1.66h-14.21v-1.66h.65c2.48,0,3.53-.64,3.53-3.11v-16.83c0-2.04-.53-3.23-3.25-3.23h-.86v-1.66c2.04-.13,3.58-.21,5.24-.34,2.28-.17,5.2-.3,6.66-.3,5.97,0,9.21.81,11.24,2.94,1.34,1.4,1.95,3.02,1.95,4.86,0,3.24-2.24,5.8-6.01,6.86,2.68,2.35,4.1,5.71,6.99,8.74,1.66,1.74,2.8,2.26,5.35,2.51v1.67c-.89.04-1.3.04-2.52.04-5.03,0-7.1-.77-9.01-2.77-2.03-2.14-4.38-6.61-6.98-8.95h-3.21v6.47ZM843,121.98h1.58c4.92,0,7.76-1.58,7.76-6.14s-3.29-6.13-7.23-6.13h-2.11v12.28ZM885.21,107.7c8.48,0,14.5,5.59,14.5,13.54s-5.57,14.36-15.27,14.36-14.78-6.26-14.78-13.42c0-8.44,6.5-14.48,15.55-14.48M885.38,133.78c5.64,0,8.28-5.11,8.28-10.99,0-6.86-3.25-13.25-9.42-13.25-5.16,0-8.53,4.17-8.53,10.61,0,8.13,3.94,13.63,9.67,13.63M914.35,125.17l-1.71,4.98c-.73,2.17-.69,3.19,3.21,3.19h.53v1.66h-10.76v-1.66h.61c1.94,0,2.96-.94,3.98-3.92l6.94-20.33-.44-1.23h6.01l8.12,21.64c1.06,2.81,1.95,3.67,4.06,3.84v1.66h-13.2v-1.66h1.42c2.47,0,2.84-1.15,2.03-3.24l-1.91-4.94h-8.89ZM918.57,112.86l-3.41,9.97h7.15l-3.74-9.97Z"/>
  </g>
  <path class="st7" d="M668.34,102.12h19.82"/>
  <g class="st2">
    <path class="st7" d="M235.77,185.57v21.03c0,3.62.8,5.12,1.5,6.12,2.11,2.82,5.41,3.34,7.75,3.34,9.17,0,9.17-7.2,9.17-9.64v-20.85h4.56v20.93c0,1.84-.05,5.65-2.78,9.03-3.34,4.19-8.51,4.71-10.96,4.71-3.19,0-8.83-.9-11.99-5.41-1.03-1.5-1.98-3.48-1.98-8.54v-20.72h4.71Z"/>
  </g>
  <path class="st7" d="M265.08,185.57h6.53l16.69,28.09v-28.09h4.33v33.97h-6.02l-17.26-28.83v28.83h-4.27v-33.97ZM301.07,185.57h4.69v33.97h-4.69v-33.97ZM327.92,219.54h-5.18l-12.08-33.97h5.22l9.65,29.03,10.15-29.03h4.75l-12.51,33.97ZM344.95,185.57h21.3v4.01h-16.6v10.59h15.8v3.93h-15.8v11.29h16.98v4.15h-21.68v-33.97Z"/>
  <g class="st3">
    <path class="st7" d="M373.59,185.58h12.14c1.75,0,5.31,0,7.81,1.6,2.53,1.61,3.75,4.19,3.75,6.92,0,2.4-.89,4.51-2.39,6.02-1.46,1.45-2.97,1.92-4.01,2.21,3.25.84,4.7,2.29,5.17,6.53.47,4,.79,6.91,2.12,10.68h-5.04c-.75-2.26-1.22-6.4-1.55-8.99-.56-4.94-1.73-6.34-7.43-6.34h-5.93v15.34h-4.65v-33.96ZM378.15,200.21h7.42c.53,0,3.21,0,4.48-.75.65-.38,2.3-1.6,2.3-4.42,0-5.51-4.88-5.51-6.77-5.51h-7.42v10.68ZM407.88,209.61c.09,2.35.37,6.72,8.19,6.72,7.06,0,7.95-4.37,7.95-6.07,0-3.8-3.06-4.56-7.81-5.73-5.16-1.28-7.48-1.85-9.21-3.02-2.77-1.89-3.53-4.42-3.53-6.68,0-6.91,6.54-9.93,12.93-9.93,2.26,0,6.83.39,9.55,3.35,1.87,2.06,1.97,4.37,2.06,5.78h-4.88c-.24-4.24-3.82-5.17-7.16-5.17-4.7,0-7.52,2.11-7.52,5.5,0,3,1.97,4.03,6.11,5.02,8.09,2.07,8.99,2.26,10.96,3.57,3.15,2.07,3.39,5.37,3.39,6.78,0,6.02-4.7,10.58-13.41,10.58-2.58,0-7.85-.42-10.52-3.86-1.94-2.5-1.98-5.22-1.98-6.86h4.89Z"/>
  </g>
  <path class="st7" d="M435.31,185.57h4.69v33.97h-4.69v-33.97ZM456.61,219.54v-29.96h-11.37v-4h27.41v4h-11.38v29.96h-4.66ZM488.26,206.19l-13.26-20.62h5.82l10.02,16.66,10.16-16.66h5.27l-13.26,20.85v13.11h-4.75v-13.35Z"/>
  <g class="st6">
    <path class="st7" d="M525.42,189.25c3.53-3.81,8.2-4.56,11.33-4.56,9.41,0,15.34,6.02,15.34,17.55,0,9.02-3.62,18.1-15.71,18.1s-15.33-8.23-15.33-17.55c0-3.86.66-9.55,4.37-13.54M529,213.24c1.92,2.4,4.85,3.1,7.52,3.1s5.55-.75,7.54-3.1c2.77-3.38,3.06-8.76,3.06-11.05,0-7.71-2.54-13.55-10.31-13.55-8.6,0-10.81,6.91-10.81,13.87,0,3.72.65,7.81,3.01,10.72"/>
  </g>
  <path class="st7" d="M558.21,185.57h20.22v4.01h-15.42v10.59h14.53v3.93h-14.53v15.44h-4.8v-33.97ZM597.43,185.57h6.54l16.69,28.09v-28.09h4.33v33.97h-6.03l-17.26-28.83v28.83h-4.28v-33.97ZM631.73,185.57h21.31v4.01h-16.6v10.59h15.8v3.93h-15.8v11.29h16.98v4.15h-21.68v-33.97ZM662.44,185.57l7.34,27.95,8.09-27.95h5.83l7.66,28.18,7.71-28.18h4.61l-10.06,33.97h-5.23l-7.85-29.02-8.41,29.02h-5.08l-9.64-33.97h5.03ZM718.78,214.83l19.62-25.11h-19.1v-4.15h24.69v4.66l-19.79,25.16h20.12v4.14h-25.54v-4.71ZM749.46,185.57h21.3v4.01h-16.6v10.59h15.8v3.93h-15.8v11.29h16.98v4.15h-21.68v-33.97ZM789.36,185.57h5.01l13.75,33.97h-5.15l-3.66-8.85h-15.75l-3.67,8.85h-4.84l14.32-33.97ZM785.06,206.89h12.84l-6.26-16.66-6.58,16.66ZM812.54,185.57h4.65v29.77h15.81v4.19h-20.46v-33.97ZM850.02,185.57h5.02l13.74,33.97h-5.12l-3.66-8.85h-15.76l-3.66,8.85h-4.84l14.3-33.97ZM845.75,206.89h12.84l-6.28-16.66-6.56,16.66ZM872.61,185.57h6.53l16.71,28.09v-28.09h4.31v33.97h-6.02l-17.26-28.83v28.83h-4.27v-33.97Z"/>
  <g class="st5">
    <path class="st7" d="M907.32,185.57h9.82c4.56,0,9.91,0,13.7,4.43,2.99,3.53,4.17,8.17,4.17,12.84,0,7.33-3.04,11.84-5.63,13.92-3.36,2.78-7.53,2.78-12.52,2.78h-9.54v-33.96ZM912.01,215.68h4.62c3.24,0,6.63-.19,8.87-1.88,4.34-3.25,4.49-8.8,4.49-10.77,0-1.27-.1-7.06-3.31-10.59-2.16-2.39-4.88-2.96-9.02-2.96h-5.65v26.2Z"/>
  </g>
  <path class="st7" d="M231.03,162.64h703.95v-3.11H231.03v3.11Z"/>
  <path class="st7" d="M148.89,136.9v-37.27h-77.1v37.27s-2.56,45.81,38.54,66.31c41.12-20.5,38.56-66.31,38.56-66.31M137.31,154.15l-16.65-1.27,6.35,15.44-12.73-10.8-3.94,16.22-3.94-16.22-12.73,10.8,6.36-15.44-16.65,1.27,14.21-8.77-14.21-8.76,16.65,1.26-6.36-15.44,12.73,10.82,3.94-16.24,3.94,16.24,12.73-10.82-6.35,15.44,16.65-1.26-14.21,8.76,14.21,8.77ZM145.04,137.09s.76,11.2-5.66,24.25c4.52-13.17,3.91-24.36,3.91-24.36v-31.89h-65.91v31.89s-.6,11.19,3.92,24.36c-6.43-13.05-5.67-24.25-5.67-24.25v-33.57h69.4v33.57Z"/>
</svg>