<?xml version="1.0" encoding="UTF-8"?>
<svg id="svg8656" xmlns="http://www.w3.org/2000/svg" xmlns:svg="http://www.w3.org/2000/svg" version="1.1" viewBox="0 0 1024 312">
  <!-- Generator: Adobe Illustrator 29.6.0, SVG Export Plug-In . SVG Version: 2.1.1 Build 207)  -->
  <defs>
    <style>
      .st0 {
        fill: #f8f4ce;
      }
    </style>
  </defs>
  <path id="path7759" class="st0" d="M308.03,152.32v71.87c0,33.89,15.28,51.21,45.35,51.21s46.88-17.06,46.88-51.21v-71.87h-8.66v71.87c0,29.56-12.23,43.31-38.22,43.31-30.07,0-36.44-23.44-36.44-43.31v-71.87h-8.91ZM507.79,158.95v11.72h7.65v-11.72h-7.65ZM825.3,158.95v11.72h7.89v-11.72h-7.89ZM858.67,158.95v26.5h-15.8v7.13h15.8v60.39c0,6.63,1.52,11.47,5.09,14.78,5.1,5.1,13.77,5.1,20.65,4.85h.77v-6.89h-.77c-7.13.26-11.72-.26-14.53-3.06-2.29-2.04-3.32-5.6-3.32-11.21v-58.86h21.67c.26,1.02,32.87,78.23,33.12,78.74-3.82,10.96-6.11,17.07-8.66,19.61-4.08,4.08-8.16,5.36-17.33,5.36h-.77v6.87h.77c9.43,0,15.54-.26,20.38-4.08,3.57-2.8,6.37-8.91,10.19-17.83l36.95-95.55h-8.4v-.26s-27.52,73.37-28.8,76.69c-1.27-3.31-31.34-76.69-31.34-76.69h-27.78v-26.5h-7.89ZM457.34,183.41c-13.5,0-25.22,7.13-30.06,18.34v-16.3h-7.89v86.89h7.89v-46.9c0-21.15,11.71-34.91,30.06-34.91,23.44,0,23.45,20.39,23.45,27.27v54.79h7.89v-53.51c-.26-9.94-.26-35.67-31.35-35.67h0ZM643.86,183.41c-10.19,0-18.86,3.57-25.48,10.19-8.41,8.41-13,21.91-13,36.69-.26,13.76,4.08,25.48,11.98,33.63,6.63,6.88,16.06,10.45,26.5,10.45,20.89,0,34.15-11.21,37.71-31.59l.26-.77h-7.89v.51c-3.06,15.54-14.02,24.72-29.82,24.72-8.15,0-15.03-2.8-20.38-8.15-6.63-6.63-10.19-17.08-10.19-28.54v-.26h69.05v-4.08c0-13.25-4.08-24.71-11.21-32.36-7.13-6.63-16.31-10.45-27.52-10.45h0ZM774.59,183.41c-7.39,0-31.6,1.53-31.6,22.68,0,18.86,17.33,22.42,30.07,24.97l2.3.51c13.5,2.8,26.5,5.34,26.5,18.34,0,15.8-18.35,17.33-26.25,17.33-15.8,0-26.5-9.43-27.52-24.21v-.77h-7.64v.77c.51,19.11,14.01,31.08,35.42,31.08,7.9,0,34.14-1.78,34.14-24.46-.76-18.09-14.79-22.16-31.6-25.47l-2.54-.51c-13-2.8-25.23-5.36-25.23-17.59,0-11.47,12.23-15.8,23.95-15.8,9.17,0,24.46,2.81,24.46,21.16v.77h7.89v-.77c0-18.09-11.46-28.03-32.36-28.03h0ZM736.36,184.94c-14.01-.51-27.78,7.13-32.37,17.83v-17.32h-7.89v86.89h7.89v-47.41c.76-13,3.58-17.84,9.44-24.21,9.17-8.92,19.87-8.4,22.93-8.15h.77v-7.64h-.77ZM507.79,185.45v86.89h7.65v-86.89h-7.65ZM524.87,185.45l34.91,86.89h8.91l32.88-86.89h-8.67s-27.51,74.65-28.53,77.2c-1.02-2.55-30.58-77.2-30.58-77.2h-8.91ZM825.3,185.45v86.89h7.89v-86.89h-7.89ZM643.86,190.54c19.37,0,29.82,16.57,30.58,33.13h-60.9c1.53-16.56,12.22-33.13,30.32-33.13Z"/>
  <path id="path7783" class="st0" d="M509.07,8.87c-42.3-1.27-65.48,31.6-66.5,60.64-.76,36.95,28.29,63.45,62.94,64.21,29.81,1.02,64.2-20.38,65.22-61.41.76-40.77-32.11-62.94-61.66-63.45ZM849.25,9.38c-17.07,0-36.95,10.19-36.95,31.59,0,14.52,8.66,23.71,25.99,32.37,17.07,8.66,30.06,12.22,30.06,29.29,0,8.66-5.1,23.95-24.21,23.95-7.64,0-13.75-2.54-18.59-6.62-11.47-10.7-11.21-19.36-11.98-22.68h-1.79v26.76c8.15,4.84,20.13,9.94,33.12,9.94h.77c18.86-.26,38.99-14.27,38.99-36.44,0-23.95-16.81-29.56-33.63-38.22-17.07-8.41-24.22-12.74-24.22-23.95,0-7.64,4.59-18.86,19.88-18.86,4.84,0,9.17,1.28,12.74,3.06,12.23,6.88,13,16.56,14.53,22.68h1.79l-1.02-27c-7.9-3.31-14.02-4.85-18.35-5.36-2.55-.26-5.09-.51-7.13-.51h0ZM301.14,10.65v1.79c3.82.26,5.87.51,7.14,2.04.26.51.77,1.26,1.02,1.77.26.51.24,1.28.24,2.04v100.65c0,9.68-1.78,11.21-8.66,11.47v1.79h25.99v-1.79c-6.88-.51-8.66-1.78-8.66-11.47V34.6c0-1.53-.26-4.59-.26-4.59l1.53,4.59,42.04,97.08h2.55l42.81-99.89,1.26-4.08s-.24,2.04-.24,3.83v87.4c0,9.68-1.79,11.21-8.67,11.47v1.79h34.65v-1.79c-6.88-.51-8.66-1.78-8.66-11.47V20.59c0-7.13,1.78-7.64,8.66-8.15v-1.79h-27l-38.73,91.72-39.24-91.72h-27.78ZM579.91,10.65v1.79c6.63.26,8.66,1.01,8.66,8.15v98.36c0,9.68-1.78,11.21-8.66,11.47v1.79h26.23v-1.79c-6.88-.51-8.66-1.78-8.66-11.47V30.52c0,1.53,67.52,83.84,82.3,101.67h2.81V20.59c0-7.13,1.78-7.64,8.66-8.15v-1.79h-25.72v1.79c6.63.26,8.66,1.01,8.66,8.15v77.21l-71.34-87.15h-22.93ZM747.83,10.65c-6.12,14.52-34.65,81.79-44.33,104.98-1.78,4.08-4.59,10.45-6.63,12.74-1.53,1.78-3.06,1.79-4.59,2.04v1.79h23.2v-1.79c-1.78,0-5.87,0-6.12-3.57,0-1.02.26-2.28.77-3.56.76-2.04,5.35-14.02,11.21-27.27h46.12c4.59,11.21,8.66,20.9,10.7,25.23.51,1.27,1.79,4.32,1.79,5.6,0,3.31-3.05,3.57-6.36,3.57v1.79h32.36v-1.79c-4.08-.26-5.35-1.27-8.15-7.89l-47.65-111.86h-2.3ZM900.47,10.65v1.79c6.88.51,8.66,1.78,8.66,11.47v94.79c0,9.68-1.78,11.21-8.66,11.47v1.79h34.65v-1.79c-6.88-.51-8.67-1.78-8.67-11.47v-45.1h62.17v45.35c0,9.68-1.78,11.21-8.66,11.47v1.79h34.65v-1.79c-6.88-.51-8.66-1.78-8.66-11.47V24.16c0-9.94,1.78-11.21,8.66-11.72v-1.79h-34.65v1.79c6.88.51,8.66,1.78,8.66,11.47v42.29h-62.17V23.9c0-9.68,1.79-11.21,8.67-11.47v-1.79h-34.65ZM506.77,16.76c26.76,0,44.6,21.92,44.34,56.58,0,32.11-17.59,52.49-44.09,52.49-21.91,0-45.1-17.59-45.1-56.83,0-32.87,18.34-52.24,44.84-52.24ZM744,38.43s10.97,27.52,20.14,49.94h-40.01c7.9-19.37,19.87-49.94,19.87-49.94h0Z"/>
  <path id="use7800" class="st0" d="M188.01,69h-2.04V26.19c1.78,4.33,2.04,8.66,2.04,12.23v30.58ZM106.98,51.93c2.55.76,5.35,1.27,8.41,1.53v-2.04c-2.55-.26-5.35-.76-7.9-1.53-3.31-.76-6.37-1.53-9.43-1.53-1.53,0-3.06.26-4.33.76v2.29c1.02-.51,2.55-.76,4.33-.76,2.8-.26,5.86.51,8.92,1.27ZM82.27,50.4c1.78,0,3.31.26,4.33.76v-2.29c-1.27-.51-2.8-.76-4.33-.76-3.06,0-6.12.76-9.43,1.53-2.55.76-5.1,1.27-7.9,1.53v2.04c2.8-.26,5.61-.76,8.41-1.53,3.31-.51,6.12-1.27,8.92-1.27ZM82.27,45.3c1.78,0,3.31.51,4.33.76v-2.29c-1.27-.51-2.8-.51-4.33-.76-3.06,0-6.12.76-9.43,1.53-2.55.76-5.1,1.27-7.9,1.53v2.04c3.06-.26,5.61-.76,8.41-1.53,3.31-.76,6.12-1.53,8.92-1.27ZM82.27,55.75c1.78,0,3.31.26,4.33.76v-2.29c-1.27-.51-2.8-.51-4.33-.76-3.06,0-6.12.76-9.43,1.53-2.55.76-5.1,1.27-7.9,1.53v2.04c3.06-.26,5.61-1.02,8.41-1.53,3.31-.76,6.12-1.53,8.92-1.27ZM82.27,39.95c1.78,0,3.31.51,4.33.76v-2.29c-1.27-.51-2.8-.76-4.33-.76-3.06,0-6.12.76-9.43,1.53-2.55.76-5.1,1.27-7.9,1.53v2.04c2.8-.26,5.61-.76,8.41-1.53,3.31-.51,6.12-1.27,8.92-1.27ZM68.51,195.9c-25.23-41.53-24.72-82.05-24.72-87.14V10.65h191.11v98.1c0,5.1.51,45.61-24.72,87.14-22.42,37.71-56.31,54.27-70.84,59.37-14.27-5.1-48.16-21.66-70.84-59.37ZM119.47,188.25l-5.1-4.08,2.8-6.12-6.63,1.27-2.8-5.86-3.06,5.86-6.37-1.27,2.8,6.12-5.1,4.08,6.37,1.53v6.63l5.35-4.08,5.1,4.08v-6.63l6.63-1.53ZM146.73,229.79l6.37-3.06-6.37-2.8,2.29-6.63-6.63,2.55-2.8-6.37-2.8,6.12-6.63-2.55,2.55,6.63-6.37,2.8,6.37,3.06-2.55,6.63,6.63-2.55,2.8,6.37,2.8-6.37,6.63,2.55-2.29-6.37ZM132.72,153.85l-5.1,4.33,6.37,1.53v6.63l5.1-4.08,5.35,4.08.26-6.63,6.37-1.53-5.1-4.33,2.8-6.12-6.63,1.27-2.8-5.86-2.8,5.86-6.63-1.27,2.8,6.12ZM155.14,195.64l3.82-4.08-5.61-1.02-2.55-5.1-2.55,5.1-5.61,1.02,4.08,4.08-1.02,5.61,5.1-2.55,5.1,2.55-.76-5.61ZM174,175.51l3.06-5.1h-5.86l-2.8-5.1-2.8,5.1h-5.86l3.06,5.1-3.06,5.1h5.86l2.8,5.1,2.8-5.1h5.86l-3.06-5.1ZM218.84,52.69c-1.53.76-2.8,2.04-3.57,3.57-.76,1.27-1.02,2.55-1.02,3.82v1.02c.76-.51,1.53-1.02,2.29-1.53.51-.51,1.02-1.27,1.53-1.78.51-1.02.76-2.55.76-3.82v-1.27h0ZM198.97,82c1.53.76,3.31,1.02,5.1.76,1.78-.26,3.06-1.02,4.33-2.29-1.53-.76-3.06-1.02-4.84-.76-1.78.26-3.31,1.27-4.59,2.29h0ZM198.97,79.19c.76-1.27,1.27-2.8,1.27-4.33v-.51c-1.53.76-2.8,1.78-3.82,3.06h0c-.76,1.27-1.27,2.8-1.27,4.33v.51c1.78-.51,3.06-1.53,3.82-3.06ZM201.01,78.68s0,.26,0,0c.51,0,.76,0,1.02-.26,1.02-.76,1.53-1.78,2.04-3.06.26-.76.51-1.78.51-2.55s-.26-1.53-.51-2.29c-1.02.76-1.78,1.53-2.29,2.55,0,2.29-.26,4.08-.76,5.61h0ZM205.85,74.61q0,.26,0,0c.51,0,.76-.26,1.02-.51.76-1.02,1.02-2.04,1.27-3.31v-.76c0-1.27-.51-2.8-1.27-4.08-.76,1.02-1.53,2.04-1.78,3.06.76,2.29,1.02,3.82.76,5.61h0ZM209.42,69.51q0,.26,0,0c.51,0,.76-.26,1.02-.76.26-.76.51-1.53.51-2.55v-1.02c-.26-1.53-1.02-3.06-2.29-4.33-.51,1.02-.76,2.29-.76,3.31.76,2.04,1.27,3.57,1.53,5.35h0ZM211.96,63.65q0,.26,0,0c.51-.26.51-.51.76-1.02v-.51c0-1.02-.26-2.04-.51-3.06-.51-1.53-1.78-2.55-3.31-3.57-.26.51-.26,1.27-.26,1.78s0,1.02.26,1.53c1.53,1.78,2.55,3.31,3.06,4.84h0ZM212.98,57.54h0c.26-.26.51-.76.51-1.02-.26-1.27-.51-2.29-1.27-3.31-1.02-1.27-2.29-2.29-4.08-2.8,0,1.27.26,2.55.76,3.57,1.78.76,3.06,2.04,4.08,3.57h0ZM212.73,50.15c-.51-1.27-1.02-2.29-2.04-3.06-1.27-1.02-2.55-1.53-4.33-1.78.26,1.27.76,2.29,1.53,3.06,1.78.51,3.31,1.53,4.59,2.55h.26v-.76h0ZM210.69,45.3c0-.51-.26-.76-.26-1.27-.76-1.02-1.53-1.78-2.55-2.29-1.53-.76-3.06-1.02-4.84-.76.76,1.02,1.27,2.04,2.29,2.8,2.04,0,3.82.51,5.35,1.53h0ZM209.67,77.92c1.53-.51,2.8-1.78,3.82-3.31-1.78-.26-3.57-.26-5.1.26-1.27.51-2.55,1.78-3.57,3.06.76,0,1.78.26,2.55.51.76,0,1.53,0,2.29-.51h0ZM214,72.06c1.27-1.02,2.29-2.55,3.06-4.33-1.78,0-3.57.51-4.84,1.53h0c-1.27,1.02-2.29,2.29-2.8,3.82.76-.26,1.78-.26,2.55-.26s1.53-.26,2.04-.76h0ZM218.59,60.34c-1.53.51-3.06,1.27-4.33,2.55-1.02,1.27-1.53,2.8-1.78,4.59.76-.26,1.53-.51,2.55-.76.76-.51,1.27-1.02,1.78-1.53,1.27-1.27,1.78-3.06,1.78-4.84h0ZM217.06,45.05c-1.27,1.27-2.29,2.55-2.8,4.33-.26.51-.26,1.27-.26,2.04,0,1.02.26,2.04.51,2.8.51-.76,1.27-1.27,1.78-1.78.51-.76.76-1.53,1.02-2.29.26-.51.26-1.27.26-1.78.26-1.02,0-2.04-.51-3.31h0ZM211.96,43.01c0,1.53.51,3.06,1.53,4.59.26-.76.76-1.53,1.27-2.29.26-.76.51-1.53.51-2.29h0c0-1.78-.51-3.31-1.53-4.84-1.02,1.53-1.78,3.06-1.78,4.84h0ZM207.89,35.62c0,.51,0,1.27.26,1.78.26,1.53,1.27,2.8,2.55,4.08.26-.76.51-1.78.76-2.55v-.51c0-.51,0-1.02-.26-1.78-.51-1.53-1.27-3.06-2.8-4.33-.26,1.02-.51,2.04-.51,3.31h0ZM207.12,38.68c-1.02-.76-2.04-1.27-3.06-1.78-1.53-.51-3.31-.26-4.84.26.76,1.02,1.78,1.78,2.8,2.29,1.78-.26,3.82-.26,5.35.26h.26c-.26-.26-.26-.51-.51-1.02h0ZM202.28,29c0,1.27.26,2.55.76,3.82.76,1.53,2.04,2.55,3.57,3.31,0-1.02,0-1.78.26-2.8-.26-.76-.26-1.53-.76-2.04-.76-1.53-2.04-2.8-3.57-3.57-.26.51-.26.76-.26,1.27ZM195.66,29.51c.51,1.78,1.53,3.31,2.8,4.08,1.27.76,2.8,1.27,4.33,1.53-.51-.51-.76-1.02-1.27-1.78h0c-.26-.51-.51-1.27-.76-1.78q-.26-.26-.51-.51c-1.02-1.02-2.55-1.53-4.59-1.53h0ZM175.78,69.51c0,1.27,1.02,2.8,3.31,2.8h4.33c-.51,1.53-1.02,3.82-1.02,6.12,0,3.06.51,5.61,1.53,7.39-3.31-.51-5.61-1.27-7.9-2.55h-.26l-.51,1.27h.26c2.04,1.02,3.82,1.53,6.12,2.29,0,0,1.78.26,3.06.51-.26.26-.51.76-.51,1.27,0,1.02.76,1.78,1.78,1.78s1.78-.76,1.78-1.78c0-.51-.26-1.02-.51-1.27,1.27-.26,2.8-.51,2.8-.51,2.29-.51,4.33-1.02,6.37-2.29h.26l-.51-1.53h-.26c-2.29,1.27-4.59,2.04-7.9,2.55.76-1.78,1.53-4.33,1.53-7.39,0-2.29-.26-4.59-1.02-6.12h4.33c2.29,0,3.31-1.27,3.31-2.8,0-1.02-.76-2.04-2.04-2.04-1.02,0-2.04.76-2.04,2.04,0,.26,0,.51.26.76.26.26.26.76-.51.76h-2.55v-32.36c0-4.33-.26-9.68-2.8-14.78l-.76-1.53-.76,1.53c-2.55,5.1-2.8,10.45-2.8,14.78v32.36h-2.55c-.76,0-.51-.51-.51-.76s.26-.51.26-.76c0-1.02-.76-2.04-1.78-2.04-.76.26-1.78,1.27-1.78,2.29h0ZM170.43,73.33c-.51-1.02-1.27-1.78-2.29-2.55-.26.76-.51,1.53-.51,2.29s.26,1.78.51,2.55c.26,1.27,1.02,2.04,1.78,3.06.26,0,.76.26,1.02.26v-.26c-.51-1.53-.76-3.31-.51-5.35h0ZM168.9,40.97c-1.53-.26-3.31,0-4.84.76-1.02.51-2.04,1.27-2.55,2.29,0,.51,0,.76-.26,1.27h.26c1.53-1.02,3.31-1.53,5.35-1.53.76-.76,1.53-1.78,2.04-2.8h0ZM167.12,69.26c-.26-1.02-1.02-2.04-1.78-3.06-.76,1.27-1.27,2.55-1.27,4.08v.76c0,1.27.51,2.29,1.27,3.31.26.26.76.51,1.02.76v-.26c-.26-2.04,0-3.57.76-5.61h0ZM161.26,66.45c0,.76.26,1.53.51,2.55.26.26.51.51.76.76,0,0,0-.26.26-.26.26-1.78.76-3.57,1.78-5.1,0-1.27-.51-2.29-1.02-3.31-1.27,1.27-2.04,2.8-2.29,4.33v1.02h0ZM163.29,59.32c.26-.51.26-1.02.26-1.53s-.26-1.27-.26-1.78c-1.53,1.02-2.55,2.04-3.31,3.57-.51,1.02-.51,2.04-.51,3.06v.51c.26.26.51.76.51,1.02,0,0,.26,0,.26-.26.51-1.78,1.53-3.31,3.06-4.59h0ZM159.47,50.15v1.02h.26c1.27-1.27,2.8-2.04,4.59-2.55.76-1.02,1.27-2.04,1.53-3.06-1.78.26-3.31.76-4.59,1.78-.76.51-1.53,1.78-1.78,2.8h0ZM158.71,56.52c.26.26.26.76.26,1.27h.26c1.02-1.53,2.29-2.8,4.08-3.57.51-1.02.76-2.29.76-3.57-1.78.51-3.06,1.53-4.08,2.8-.76.76-1.27,1.78-1.27,3.06h0ZM157.69,62.89c-1.02-1.27-2.55-2.04-4.33-2.55.26,1.78.76,3.31,1.78,4.59.51.51,1.27,1.02,1.78,1.53.76.26,1.53.51,2.29.76,0-1.53-.51-3.06-1.53-4.33h0ZM155.14,67.73c.51,1.78,1.53,3.31,2.8,4.33.51.51,1.27.76,2.04,1.02,1.02,0,1.78,0,2.55.26-.76-1.53-1.53-3.06-2.8-3.82h0c-1.02-1.27-2.8-1.78-4.59-1.78h0ZM158.71,74.86c1.02,1.53,2.04,2.55,3.82,3.31.76.26,1.53.51,2.29.51.76-.26,1.78-.26,2.55-.51-1.02-1.27-2.29-2.55-3.57-3.06-1.53-.76-3.31-.76-5.1-.26h0ZM163.8,80.72c1.27,1.27,2.8,2.04,4.59,2.29,1.53.26,3.31-.26,4.84-.76-1.27-1.27-2.8-2.04-4.59-2.29h0c-1.53-.51-3.31,0-4.84.76ZM177.05,82.25v-.51c0-1.53-.51-3.06-1.27-4.33h0c-1.02-1.27-2.29-2.29-3.82-3.06v.51c0,1.53.51,3.06,1.27,4.33.76,1.53,2.04,2.55,3.82,3.06ZM170.43,33.33c-.26.51-.76,1.27-1.27,1.78,1.53,0,3.06-.51,4.33-1.53,1.27-1.02,2.29-2.55,3.06-4.08-1.78,0-3.57.51-4.84,1.53q-.26.26-.51.51c-.26.51-.51,1.27-.76,1.78h0ZM165.33,33.33c.26,1.02.26,1.78.26,2.8,1.53-.76,2.8-2.04,3.31-3.31.76-1.27,1.02-2.55,1.02-3.82,0-.51,0-.76-.26-1.27-1.53.76-2.8,2.04-3.57,3.57-.26.76-.51,1.27-.76,2.04h0ZM164.57,39.95s.26,0,0,0c2.04-.51,3.82-.51,5.61-.26,1.02-.51,2.04-1.27,2.8-2.29-1.53-.51-3.31-.76-4.84-.26-1.27.26-2.29.76-3.06,1.78-.26.26-.26.51-.51,1.02h0ZM160.49,38.42v.51c.51.76.76,1.78.76,2.55,1.27-1.27,2.04-2.55,2.55-4.08.26-.51.26-1.27.26-1.78,0-1.02-.26-2.29-.76-3.31-1.27,1.27-2.29,2.55-2.8,4.33.26.51,0,1.02,0,1.78h0ZM156.92,43.01c0,.76.26,1.53.51,2.29.51.76,1.02,1.53,1.27,2.29.76-1.27,1.53-2.8,1.53-4.59h0c0-1.53-.76-3.31-1.53-4.84-1.02,1.53-1.78,3.06-1.78,4.84h0ZM154.38,48.36c0,.76,0,1.27.26,1.78.26.76.51,1.53,1.02,2.29.76.51,1.27,1.02,1.78,1.78.26-1.02.51-2.04.51-2.8s0-1.27-.26-2.04c-.51-1.53-1.53-3.06-2.8-4.33-.26,1.02-.51,2.29-.51,3.31h0ZM153.1,53.71c0,1.27.26,2.8,1.02,3.82.26.76.76,1.27,1.53,1.78.76.26,1.53.76,2.29,1.27v-1.02c0-1.27-.26-2.55-1.02-3.82-.76-1.53-2.04-2.8-3.82-3.57v1.53ZM91.18,73.84c1.78-1.27,4.08-1.78,6.88-1.78,3.06,0,6.12.51,9.43,1.53,3.31.76,7.13,1.78,10.7,1.53V30.02c-3.82.26-7.64-.76-11.21-1.53-3.06-.76-6.12-1.53-8.66-1.27-3.82,0-5.86,1.27-7.13,2.29v44.34ZM62.39,74.86c3.57.26,7.13-.51,10.7-1.53,3.31-.76,6.37-1.53,9.43-1.53,2.8,0,5.1.76,6.88,1.78V29.51c-1.27-1.27-3.31-2.29-7.13-2.29-2.8,0-5.61.51-8.66,1.27-3.57,1.02-7.13,1.78-11.21,1.53v1.02c0,6.37,0,42.3,0,43.83ZM55.51,82h30.83c.76,1.27,2.04,2.29,3.82,2.29s3.31-1.02,3.82-2.29h30.83V31.03h-3.82l.26,1.02v46.38h-28.54c-.51.76-1.02,1.02-2.55,1.02-1.27,0-1.78-.26-2.29-1.02h-28.79v-46.38l.26-1.02h-3.82v50.96ZM66.72,184.18l72.62-65.23,72.88,65.49c4.84-9.17,8.15-18.09,10.96-26.5l-83.83-75.42-83.58,75.17c2.55,8.41,6.12,17.33,10.96,26.5ZM82.27,60.85c1.78,0,3.31.26,4.33.76v-2.29c-1.27-.51-2.8-.51-4.33-.76-3.06,0-6.12.76-9.43,1.53-2.55.76-5.1,1.27-7.9,1.53v2.04c2.8-.26,5.61-1.02,8.41-1.53,3.31-.51,6.12-1.27,8.92-1.27ZM82.27,66.2c1.78,0,3.31.26,4.33.76v-2.29c-1.27-.51-2.8-.76-4.33-.76-3.06,0-6.12.76-9.43,1.53-2.55.76-5.1,1.27-7.9,1.53v2.04c2.8-.26,5.61-1.02,8.41-1.53,3.31-.76,6.12-1.53,8.92-1.27ZM82.27,34.86c1.78,0,3.31.51,4.33.76v-2.29c-1.27-.51-2.8-.51-4.33-.76-3.06,0-6.12.76-9.43,1.53-2.55.76-5.1,1.27-7.9,1.53v2.04c2.8-.26,5.61-.76,8.41-1.53,3.31-.76,6.12-1.27,8.92-1.27ZM106.98,46.83c2.55.76,5.35,1.27,8.41,1.53v-2.04c-2.55-.26-5.35-.76-7.9-1.53-3.31-.76-6.37-1.53-9.43-1.53-1.53,0-3.06.26-4.33.76v2.29c1.02-.51,2.55-.76,4.33-.76,2.8-.51,5.86.26,8.92,1.27ZM106.98,36.39c2.55.76,5.35,1.27,8.41,1.53v-2.04c-2.55-.26-5.35-.76-7.9-1.53-3.31-.76-6.37-1.53-9.43-1.53-1.53,0-3.06.26-4.33.76v2.29c1.02-.51,2.55-.76,4.33-.76,2.8-.26,5.86.26,8.92,1.27ZM106.98,57.03c2.55.51,5.61,1.27,8.41,1.53v-2.04c-2.8-.26-5.35-.76-7.9-1.53-3.31-.76-6.37-1.53-9.17-1.53-1.53,0-3.06.26-4.33.51v2.29c1.02-.51,2.55-.76,4.33-.76,2.55,0,5.61.76,8.66,1.53h0ZM106.98,41.48c2.55.76,5.35,1.27,8.41,1.53v-2.04c-2.55-.26-5.35-.76-7.9-1.53-3.31-.76-6.37-1.53-9.43-1.53-1.53,0-3.06.26-4.33.76v2.29c1.02-.51,2.55-.76,4.33-.76,2.8-.26,5.86.51,8.92,1.27ZM106.98,62.38c2.55.76,5.35,1.27,8.41,1.53v-2.04c-2.55-.26-5.35-1.02-7.9-1.53-3.31-.76-6.37-1.53-9.43-1.53-1.53,0-3.06.26-4.33.76v2.29c1.02-.51,2.55-.76,4.33-.76,2.8-.26,5.86.51,8.92,1.27ZM106.98,67.47c2.55.76,5.35,1.27,8.41,1.53v-2.04c-2.55-.26-5.35-.76-7.9-1.53-3.31-.76-6.37-1.53-9.43-1.53-1.53,0-3.06.26-4.33.76v2.29c1.02-.51,2.55-.76,4.33-.76,2.8-.26,5.86.51,8.92,1.27ZM269.55,175.77l-.51,1.27c-4.84,16.05-13,32.11-18.86,42.55l-1.27,2.04-8.41-7.64c-.26.51-.76,1.27-1.02,1.78-21.4,34.14-51.47,58.86-87.4,72.11l-12.74,4.59-12.74-4.59c-35.67-13-66-37.97-87.14-72.11-.26-.51-.51-1.27-1.02-1.78l-8.66,7.64-1.27-2.29c-5.86-10.7-13.76-26.75-18.86-42.55l-.25-1.02,20.64-18.6,2.55-2.29,1.02,3.06c1.02,3.82,2.29,7.39,3.57,10.96l5.86-5.35,2.29-2.04,1.02,3.06c4.33,13,10.19,25.23,17.07,36.18,18.09,28.79,43.32,49.69,73.13,60.64,0,0,2.04.76,3.06,1.02,1.02-.26,3.06-1.02,3.06-1.02,29.81-10.96,55.29-31.85,73.13-60.64,6.88-10.96,12.74-23.19,17.07-36.18l1.02-3.06,8.15,7.39c1.27-3.57,2.55-7.13,3.57-10.96l1.02-3.06,22.93,20.89ZM26.46,206.34l-3.82-24.21,11.21-10.19c-1.27-3.06-2.29-6.37-3.31-9.68-3.31,3.06-14.78,13.25-16.31,14.78,3.31,10.19,7.64,20.38,12.23,29.3ZM36.4,210.42c-2.55-4.33-5.1-8.92-7.13-13.5l2.8,17.58c.76-1.02,2.55-2.55,4.33-4.08ZM249.68,196.92c-2.04,4.59-4.59,9.17-7.13,13.5h0c1.78,1.53,3.31,3.06,4.33,4.08l2.8-17.58ZM251.2,182.9c-1.78-1.53-12.74-11.47-15.8-14.27-4.33,12.23-9.68,23.95-16.31,34.4-18.35,29.56-44.34,50.96-75.17,62.43l-4.59,1.53-4.33-1.53c-30.83-11.21-56.57-32.87-75.17-62.43-6.63-10.45-11.98-22.17-16.31-34.4-3.31,2.8-14.01,12.74-15.8,14.27,4.08,10.7,9.43,21.15,15.29,30.58,20.89,33.38,50.45,57.59,85.36,70.33,0,0,10.19,3.57,11.21,4.08,1.27-.51,11.47-4.08,11.47-4.08,34.91-12.74,64.47-37.2,85.36-70.33,5.35-9.17,10.7-19.62,14.78-30.58h0ZM264.71,176.79c-1.53-1.53-13-11.72-16.31-14.78-1.02,3.31-2.04,6.63-3.31,9.68l11.21,10.19-3.82,24.46c4.33-8.92,8.92-19.11,12.23-29.56h0ZM45.06,207.87l.26,1.02-.76.51c-.51-.76-.76-1.53-1.27-2.55-.51-.76-1.02-1.53-1.53-2.55l.76-.26.76.76c.76-.76,2.04-1.78,2.55-2.8l-1.78-3.31-3.57.76.26,1.02-.51.26c-.26-.76-.76-1.27-1.02-2.04-.26-.51-.51-1.02-1.02-1.78l.76-.26.76.76c2.55,0,7.9-1.02,11.21-1.53.51.76,1.27,1.27,1.78,1.78l.26,1.02-3.31,4.08c-1.78,1.78-3.82,4.33-4.59,5.1h0ZM47.1,200.99l3.06-3.31h0l-4.59,1.02,1.53,2.29ZM65.7,219.85l.51-.51c-.51-.51-.76-1.02-1.27-1.78-.51-.51-.76-1.27-1.27-1.78l-.76.51.51,1.02c-1.78,1.27-5.86,4.59-5.86,4.59h0c1.02-3.06,2.29-6.63,3.57-9.68-.51-.51-.76-1.02-1.27-1.53-.26-.51-.76-1.02-1.02-1.53l-.51.51.51,1.02c-.76.76-1.53,1.27-2.55,2.04l-2.8,2.04c-1.02.76-1.78,1.27-2.8,1.78l-.76-.76-.51.51c.51.51.76,1.02,1.27,1.78.51.51.76,1.27,1.27,1.78l.51-.51-.76-1.27c1.78-1.27,4.08-3.06,6.12-4.59h0c-1.27,3.06-2.29,6.37-3.57,9.94.26.26.51.76.76,1.02.26.26.51.76.76,1.02,1.02-.76,2.04-1.78,3.57-2.8l2.8-2.04c1.02-.76,2.04-1.27,2.8-1.78l.76,1.02ZM66.72,229.28c-2.8,2.55-2.55,6.37-.26,8.66,1.53,1.53,3.06,2.55,5.86,2.8l.26-1.53c-1.53-.26-2.8-.76-3.57-1.78-1.78-1.78-1.78-4.33.26-6.37,2.04-2.04,4.33-1.27,5.61.26.76.76,1.27,1.78,1.27,2.8l-.51,1.02.51.76c.76-.51,1.78-1.27,2.55-1.53-.51-1.53-1.27-2.55-2.29-3.82-2.8-3.31-6.88-3.82-9.68-1.27h0ZM91.44,252.72c-2.29,2.8-5.86,3.06-9.43.26-3.31-2.8-3.82-6.12-1.27-9.43,2.29-2.8,6.12-3.06,9.43-.26,3.31,2.8,3.82,6.37,1.27,9.43ZM88.89,244.82c-1.78-1.53-4.08-.76-5.86,1.02-1.78,2.04-1.78,4.33,0,5.86s4.08.76,5.86-1.02c1.53-2.04,1.78-4.59,0-5.86h0ZM109.27,261.13c-.76,1.53-2.55,1.78-4.33,1.02.26,1.27.76,5.61,1.02,6.37l.26.51-.51.76c-1.02-.76-2.29-1.27-3.31-1.78,0-2.04-.26-5.1-.51-6.88l-.76-.51-.51,1.02c-.76,1.02-1.27,2.04-1.53,2.8l.76.76-.51.76c-.76-.51-1.53-1.02-2.29-1.53-.76-.51-1.53-1.02-2.55-1.53l.51-.76,1.02.51c.76-.76,1.27-1.78,2.04-2.8l1.78-3.06c.76-1.02,1.27-2.04,1.78-2.8l-.76-.76.51-.76c.51.51,1.27.76,1.78,1.27.76.51,1.53.76,2.29,1.27.76.51,1.53.76,2.29,1.27,2.55,1.53,2.55,3.31,1.53,4.84h0ZM105.45,256.8c-.76-.51-1.02-.51-1.53-.76-.26.51-.76,1.27-1.27,2.04l-.51.76c.26.26.51.51.76.76,1.53,1.02,2.8,1.02,3.57-.26.51-1.02.26-1.78-1.02-2.55h0ZM124.82,270.56c-.26,2.29-.51,5.61-.51,6.88l.76.51-.26.76c-.76-.51-1.78-.76-2.55-1.27-.76-.51-1.78-.76-2.55-1.02l.26-.76,1.02.26c.26-1.02.51-2.55.51-3.57l-3.57-1.53-2.29,2.8.76.51-.26.76c-.76-.26-1.53-.76-2.04-1.02-.51-.26-1.27-.51-1.78-.76l.26-.76,1.02.26c2.04-1.53,5.61-5.35,8.15-8.15,1.02.26,1.78.26,2.55.51l1.02.76-.51,4.84ZM122.27,265.97h0l-3.06,3.57,2.55,1.27.51-4.84ZM159.73,274.89c-.51-1.02-1.02-1.78-1.53-3.06l-1.27-3.06c-.51-1.27-1.02-2.04-1.27-3.06l1.02-.51-.26-.76c-.76.51-1.78.76-2.55,1.27-.76.26-1.78.76-2.55,1.02l.26.76,1.02-.26c.51,1.02,1.02,1.78,1.53,3.06l1.27,3.06c.51,1.27.76,2.04,1.27,3.06l-1.02.51.26.76c.76-.51,1.78-.76,2.55-1.27.76-.26,1.78-.76,2.55-1.02l-.26-.76-1.02.26ZM181.64,263.17c-.51-.76-1.27-1.78-1.78-2.8l-1.78-3.06c-.76-1.02-1.27-2.04-1.53-2.8l.76-.76-.51-.76c-.76.51-1.53,1.02-2.04,1.27-.76.51-1.53.76-2.29,1.27.51,1.53,1.53,7.64,1.78,8.92-1.27-1.02-5.86-4.59-6.88-5.86-.76.51-1.53,1.02-2.04,1.27-.76.51-1.53.76-2.29,1.27l.51.76,1.02-.26.76,1.53c.76,1.53,3.57,6.12,4.08,7.39l-.76.76.51.76c.51-.26,1.27-.76,1.78-1.02.51-.26,1.27-.76,1.78-1.02l-.51-.76-1.02.51c-.51-.76-1.27-1.78-1.78-2.8l-1.02-1.78c-.76-1.53-1.53-2.55-1.78-3.06h0c4.33,3.82,6.88,5.61,7.9,6.63l1.53-1.02-2.04-10.19h0c.26.51,1.02,1.53,1.78,3.06l1.02,1.78c.76,1.02,1.02,2.04,1.53,3.06l-.76.76.26.76c.76-.51,1.53-1.02,2.29-1.53.76-.51,1.78-1.02,2.55-1.53l-.26-.76h-.76ZM193.36,254.25c-.76-.76-1.53-1.53-2.29-2.55l-1.53-2.04c-.76-.76-1.53-1.78-2.04-2.8.26-.26.51-.76,1.02-1.02,1.27-1.02,2.29-.76,3.06,0,.76,1.02,1.02,2.29-.26,3.06-.26.26-.51.51-.76.51l.51,1.53c.51-.26,1.02-.76,1.53-1.02,2.55-2.04,2.55-4.59,1.27-6.37-1.27-1.53-3.31-1.78-5.35,0-.51.51-1.02,1.02-1.78,1.53-.76.76-1.53,1.27-2.04,1.78-.51.51-1.27,1.02-2.04,1.53l.51.51,1.02-.51c.76.76,1.53,1.53,2.29,2.55l2.04,2.8c.76,1.02,1.53,1.78,2.04,2.55l-.76.76.51.51c.76-.51,1.53-1.27,2.29-1.78.76-.51,1.53-1.02,2.55-2.04l-.51-.51-1.27,1.02ZM213.49,235.9l.51.51c-.76.51-1.27,1.27-2.04,2.04-.76.76-1.27,1.53-2.04,2.04l-.51-.51.51-.76c-.76-.51-2.29-1.27-3.31-1.78l-2.8,2.8,1.78,3.06.76-.51.51.51c-.51.51-1.02,1.02-1.53,1.53-.51.51-1.02,1.02-1.27,1.53l-.51-.51.51-.76c-.76-2.29-3.31-7.13-4.84-10.45.51-.76,1.02-1.53,1.27-2.29l1.02-.51,4.59,2.04c2.04,1.02,5.1,2.29,6.12,2.55l1.27-.51ZM205.59,236.67l-4.33-2.04h0l2.29,4.08,2.04-2.04ZM226.49,219.34l.51.51c-.76,1.02-1.53,2.04-2.04,3.06-2.29,0-5.35-.26-7.13-.26l-.51.76.76.76c1.02.76,1.78,1.27,2.8,1.78l.76-.76.76.51c-.51.76-1.27,1.53-1.78,2.29-.51.76-1.02,1.53-1.78,2.29l-.76-.51.51-1.02c-.76-.76-1.53-1.27-2.55-2.04l-2.8-2.04c-1.02-.76-1.78-1.27-2.8-2.04l-.76.76-.76-.51c.51-.51,1.02-1.02,1.27-1.78.51-.76,1.02-1.27,1.53-2.04.51-.76,1.02-1.27,1.53-2.04,2.04-2.8,3.82-2.55,5.1-1.53,1.27,1.02,1.53,2.8.76,4.33,1.27,0,5.61-.26,6.37-.26l1.02-.25ZM217.06,218.32c-.76-.76-1.78-.51-2.55.76-.51.51-.76,1.02-1.02,1.27.51.26,1.02,1.02,2.04,1.53l.76.51.76-.76c1.02-1.27,1.02-2.29,0-3.31h0ZM235.15,207.62c-2.29,3.82-5.61,4.84-8.92,2.8-3.06-1.78-4.08-5.35-1.78-9.17,2.29-3.82,5.35-4.84,8.92-2.8,3.06,1.53,4.08,5.35,1.78,9.17h0ZM231.58,201.25c-2.29-1.27-4.59-1.02-5.86.76-1.27,2.04-.26,4.08,2.04,5.61,2.29,1.27,4.59,1.02,5.86-.76,1.27-2.04.26-4.33-2.04-5.61ZM139.34,273.36c-1.27,0-2.55,1.27-2.55,2.8s1.27,2.8,2.55,2.8c1.53,0,2.8-1.27,2.8-2.8s-1.27-2.8-2.8-2.8ZM39.97,188.51c1.53,0,2.8-1.27,2.8-2.55,0-1.53-1.27-2.8-2.8-2.8s-2.55,1.27-2.55,2.8c0,1.27,1.27,2.55,2.55,2.55ZM239.23,188.51c1.53,0,2.8-1.27,2.8-2.55,0-1.53-1.27-2.8-2.8-2.8-1.27,0-2.55,1.27-2.55,2.8-.26,1.27,1.02,2.55,2.55,2.55Z"/>
</svg>