<?xml version="1.0" encoding="UTF-8"?>
<svg id="Layer_2" data-name="Layer 2" xmlns="http://www.w3.org/2000/svg" viewBox="0 0 362.3 124.35">
  <defs>
    <style>
      .cls-1 {
        fill: #f8f4ce;
      }
    </style>
  </defs>
  <g id="Layer_1-2" data-name="Layer 1">
    <path class="cls-1" d="M29.22,63.33c-.51,0-1.01.11-1.47.31-1.17.52-2.85,1.5-3.73,1.88-5.86,2.54-13.85,5.39-20.27,5.39-.59,0-2.94-.17-3.37-.35-.49-.21-.44-.83-.18-1.2.54-.77,3.86-.93,4.89-1.14,3.1-.61,6.65-1.37,9.59-2.46,1.67-.62,4.98-1.97,4.9-2.13-.08-.16-.35-.15-.54-.15-3.29-.12-6.61.05-9.9,0-.75-.01-2.92-.07-3.05-.04-.3.09-1.29,1.24-2.7,1.54-4.4.92-4.83-7.02.51-5.53.91.25,1.41.83,2,1.41,2.95-.18,5.87-.26,8.82-.31.37,0,.72,0,1.09,0,.33,0,2.59.19,3.45-.01.18-.04.2-.29.04-.37-3.81-1.94-7.86-3.03-12.05-3.9-1.23-.25-5.74-.73-6.36-1.37-.42-.43-.38-1.07.23-1.31.36-.14,1.72-.29,2.16-.31,6.67-.3,14.96,2.63,21.04,5.22,1.34.57,3.32,1.82,4.65,1.99,2.62.33,5.58-.15,8.25.14.14.01.21-.16.1-.24-1.77-1.53-4.1-2.9-6.17-3.93-9.08-4.53-18.58-6.5-28.55-8.08l-.8-.75c0-.42.69-.75,1.05-.81,3.19-.57,10.14.62,13.51,1.25,6.34,1.18,15.19,3.58,20.78,6.72,2.36,1.33,3.94,2.95,6.03,4.48,2.15,1.58,2.87,1.44,5.5,1.54.75.03,1.59.02,2.36.03,1.2.03,2.42-.07,3.61.03.53.04,1.03-.22,1.29-.68l.65-1.19c.22-.41.13-.91-.22-1.22-2.61-2.26-4.65-5.34-7.82-6.81-2.37-1.1-4.38-.88-6.88-1.31-7.55-1.3-17.51-7.17-23.76-11.63-2.55-1.82-6.19-4.45-8.21-6.78-.68-.79-2.01-2.33,0-2.17,5.99,3.87,11.34,8.2,17.87,11.19,5.06,2.31,10.43,4.41,15.97,5.12.07-.27-.11-.31-.23-.46-.74-.97-4.64-4.89-5.59-5.54-1.26-.86-3.54-1.32-5.04-1.92-5.77-2.3-11.72-5.13-16.5-9.15-1.38-1.16-2.91-2.58-3.72-4.17,0-.73.84-.78,1.41-.62.87.23,3.89,2.7,4.95,3.39,3.8,2.48,7.76,4.81,12.2,5.96-2-2.3-4.36-4.24-6.5-6.41-.76-.77-1.44-1.82-2.24-2.55-1.47-1.34-2.02-.56-3.53-1.26-1.96-.9-1.87-3.49-.33-4.78,1.95-1.63,4-.32,4.68,1.82.28.87.02.93.05,1.52.02.41,3.14,2.88,3.7,3.38,2.21,2.03,4.29,4.22,6.49,6.26-1.33-4.47-3.72-8.49-6.27-12.35-.68-1.03-2.86-3.56-3.09-4.49-.12-.47.09-1.2.64-1.25.86-.07,4.27,3.67,4.93,4.5,4.84,6.09,6.71,12.03,9.6,18.99,1.1,2.66,4.98,5.05,6.72,7.42-.18-2.48-.88-5.17-1.66-7.53-3.19-9.72-8.63-17.76-14.49-25.99-.64-1.53.8-1.21,1.7-.47,3.87,3.19,8.63,10.34,11.23,14.73,3.47,5.87,6.87,12.21,7.84,19.05.24,1.73.11,3.58.71,5.24.19.52.49.99.86,1.4,1.92,2.07,4.35,3.98,6,6.2h0c.2.28.55.39.87.29l1.22-.39c.29-.09.54-.3.68-.57h0s-.14-9.3-.14-9.3c0-.55-.14-1.1-.39-1.59-.86-1.66-2.38-2.94-3.51-4.47-4.75-6.43-7.65-17.28-9.01-25.14-.5-2.89-1.72-10.19-.94-12.74.15-.48.85-.82,1.21-.35,1.36,4.74,1.7,9.79,2.88,14.58,1.46,5.97,4.8,14.05,8.18,19.17.43.65.85,1.36,1.45,1.87-.07-2.08.09-4.18,0-6.26-.13-3.28-.53-3.4-1.73-6.15-2.79-6.35-6.56-16.66-5.47-23.6.34-2.14,1.72-.77,2.06.74,1.07,4.84,1.35,9.95,3.57,14.51l1.42,2.83v-7.5s.38-6.4.38-6.4c-.85-.73-1.54-1.7-1.62-2.86-.33-4.9,7.66-3.28,5.44,1.11-.26.51-1.17,1.32-1.23,1.55-.25.87-.02,1.92-.02,2.74,0,3.52-.14,7.16,0,10.67,0,.19-.12.57.15.54,2.23-4.33,3.46-8.8,4.44-13.57.22-1.09.63-5.31,1.29-5.81.19-.15.56-.23.81-.22.34.08.51.68.56,1,1.02,6.55-2.26,16.39-4.9,22.42-.31.7-1.47,3.18-2.09,4.51-.27.57-.41,1.19-.41,1.82v7.46c1.7-1.77,3.23-4.34,4.35-6.54,2.11-4.16,4.57-10.55,5.62-15.08.99-4.28,1.33-9.1,2.46-13.3.2-.74.33-1.44,1.26-.94.53.42.42,4.48.37,5.34-.55,9.68-4.73,26.52-10.89,34.07-1.31,1.6-2.56,2.09-2.97,4.29s-.46,8.4-.18,10.6h0c.05.37.28.68.62.82.9.38,1.13,1.06,2.23.05s2.33-2.59,3.39-3.72c1.3-1.38,3.58-3.01,3.93-4.88.24-1.29.16-2.93.34-4.29,1.27-9.69,9.15-22.29,15.29-29.83.75-.92,3.89-4.63,4.87-4.71.3-.03.71.1.76.44.09.66-1.46,2.72-1.9,3.38-3.27,4.91-6.59,9.09-9.13,14.51-1.45,3.09-3.13,7.03-4.08,10.29-.54,1.86-1.15,4.08-1.12,5.99,1.42-1.51,3.01-2.88,4.41-4.4.49-.53,1.73-1.78,2.01-2.32.63-1.19,1.17-3.5,1.73-4.91,2.34-5.86,6.08-13.23,10.7-17.58.31-.29,1.7-1.47,1.98-1.58.57-.22,1.03.38,1.03.89,0,.8-2.62,4.01-3.24,4.94-2.5,3.8-4.83,7.74-6.18,12.13.29.07.37-.16.54-.31,1.64-1.37,3.25-3.36,4.87-4.87,1.49-1.39,3.08-2.71,4.65-4.01l.13-.3c-.6-1.38.92-3.78,2.29-4.07,3.24-.68,5.14,4.38,1.85,5.56-1.12.4-2.2,0-3.05.97l-8.96,9.19c4.5-1.3,8.56-3.63,12.44-6.18,1.04-.69,4.22-3.29,5.14-3.37.33-.03.85.22.94.54.15.53-.7,1.41-1.06,1.83-5.65,6.55-15.46,10.34-23.45,13.26-.33.12-.63.31-.87.56l-5.66,5.71c2.37-.11,4.96-.78,7.23-1.5,9.83-3.11,18.08-8.67,26.36-14.59l.68-.25.37.19c.31.45.15.78-.06,1.2-.29.59-2.65,2.82-3.27,3.37-7.01,6.17-21.67,15.13-30.92,16.21-1.42.17-3.48,0-4.73.37-1.63.48-6.84,5.79-8.16,7.29-.2.23-1.06,1.22-1.08,1.4-.04.43.31.83.61,1.1.23.2.52.32.83.34,1.14.06,4.37.2,5.91.16,1.34-.04,3.27.23,4.6-.02,1.43-.27,3.76-2.76,5.07-3.74,6.25-4.64,16.43-7.43,24.07-8.85,3.73-.69,9.53-1.71,13.22-1.27,1.33.16,1.8,1.12.37,1.57-4.16,1.34-9.74,1.59-14.16,2.69-5.77,1.43-15.02,5.13-19.77,8.67-.15.11-1.19.77-.97.96.4.03.87.02,1.26,0,2.35-.09,5.56.17,7.74-.19,1.22-.21,5.33-2.49,6.92-3.13,5.2-2.1,12.54-4.27,18.16-4.11.42.01,2.31.19,2.58.32.42.19.28,1.01-.03,1.32-.67.67-3.74.83-4.83,1.05-4.76.95-9.38,2.08-13.73,4.28-.22.22.01.28.23.31.65.08,1.63.01,2.33,0,1.97-.02,4.02-.09,6.03-.01,1.13.04,4.03.37,5.17.24.39-.04.7-.82,1.35-1.12,2.91-1.33,5.51.88,4.1,3.79-.77,1.59-2.88,1.5-4.64.69-.23-.11-.38-.24-.47-.35-.17-.21-.42-.33-.69-.35-.97-.08-2.09.03-2.97.05-3.29.04-6.61-.13-9.9,0-.19,0-.58-.12-.54.15,4.15,2.09,8.41,3.34,12.95,4.28,1.23.25,5.49.69,6.14,1.28,1.07.97,0,1.4-.95,1.53-6.81.94-17.12-2.68-23.34-5.52-.58-.27-3.43-1.88-3.68-1.88h-8.73c.05.48.74.84,1.12,1.12,4.88,3.49,13.57,7.07,19.4,8.57,4.55,1.17,10.07,1.38,14.44,2.72.86.26,1.43,1.07.47,1.46-.78.32-3.34.25-4.29.2-10.76-.51-26.94-4.67-35.38-11.44-.63-.51-1.89-1.91-2.47-2.17-.98-.44-3.19-.56-4.33-.61-2.3-.1-4.64-.03-6.93.1-.45.03-.82.37-.86.82s-.14.88-.24,1.31c-.12.51.04,1.05.43,1.41,1.57,1.44,2.55,2.65,4.1,4.11.48.46,1.33,1.38,1.97,1.8,1.7,1.12,4.56.84,6.6,1.13,9.19,1.31,23.48,10.05,30.46,16.21.59.52,3.1,2.93,3.34,3.46.36.82-.05,1.4-.93,1.09-5.82-3.81-11.18-8.11-17.52-11.07-2.59-1.2-5.98-2.66-8.68-3.53-.85-.27-7.07-1.95-7.34-1.7,0,.33.4.69.65.88.14.11.28.22.4.35,1.54,1.49,3.04,3,4.58,4.49.41.4.91.71,1.46.91,6.8,2.44,13.76,5.36,19.42,9.9.87.7,4.03,3.61,4.33,4.49.21.59-.55.95-1.07.91-.83-.07-4.4-2.88-5.42-3.55-3.59-2.36-7.34-4.55-11.52-5.71,1.99,2.15,4.12,4.18,6.11,6.33.55.59,2.96,3.63,3.4,3.71,1.35.25,1.8-.14,3.08.93,3.33,2.8-2.03,7.15-4.22,3.91-.75-1.11-.39-1.9-.68-2.88-.2-.71-2.79-2.69-3.45-3.35-2.16-2.13-4.11-4.49-6.41-6.49,1.37,4.79,3.91,9.09,6.64,13.21.65.99,2.9,3.51,2.93,4.49.02.5-.4,1.07-.92.93-.32-.09-1.54-1.11-1.85-1.4-5.03-4.59-8.96-12.75-11.4-19.04-.51-1.32-1.53-3.81-1.9-4.72-.09-.23-.23-.43-.41-.6-.92-.88-3.98-3.8-5.45-5.38.25,3.26,1.24,6.66,2.4,9.73,1.61,4.26,3.78,9.12,6.19,12.97s5.38,7.41,7.69,11.32c.15,1.69-1.33.65-2.06.05-2.47-2.03-5.5-6.3-7.39-8.99-4.64-6.62-10.52-16.78-11.46-24.85-.25-2.13.26-3.85-.95-5.69-1.68-2.56-4.6-4.67-6.62-6.98-.45-.21-1.1.31-1.59.57-.32.16-.59.51-1.07.71-.6.25-.96.86-.92,1.5.2,2.78-.36,5.66.48,8.36.86,2.73,2.73,4.1,4.28,6.39,5.03,7.42,8.84,23.12,9.34,32.07.05.84.15,4.79-.38,5.2-.93.5-1.06-.2-1.26-.94-1.2-4.46-1.51-9.52-2.65-14.04-1.1-4.37-3.37-10.18-5.41-14.22-1.15-2.27-2.64-4.84-4.38-6.67v7.65c0,.4.08.8.25,1.17.84,1.9,3.57,8.09,4.04,9.37,1.93,5.23,3.81,12.47,3.11,18.02-.02.16-.12.76-.17.83-.22.3-1.01.13-1.28-.12-.58-.56-.99-4.64-1.21-5.74-.62-3-1.36-6.27-2.46-9.12-.59-1.51-1.42-2.91-1.97-4.44-.27-.04-.15.35-.15.54-.13,3.5,0,7.15,0,10.67,0,.82-.22,1.88.02,2.74.07.23.93.98,1.18,1.45,2.46,4.64-5.98,6.08-5.37,1.07.18-1.44,1.12-2,1.7-3.1-.56-4.43-.48-8.9-.48-13.37-.56.73-1.04,1.81-1.42,2.68-1.37,3.19-2.16,6.57-2.86,9.96-.26,1.26-.64,5.4-1.36,6.06-1.08.99-1.41-.43-1.48-1.31-.59-7.52,2.57-16.25,5.54-23.05.29-.66.97-2.09,1.32-2.81.14-.29.22-.61.24-.93.05-.82.14-2.45.17-3.17.06-1.82-.06-3.67,0-5.49-.58.54-1.02,1.21-1.45,1.87-6.51,9.93-8.93,21.77-10.86,33.33-1.1,1.78-1.52-.35-1.6-1.43-.36-5.1,1.38-13.17,2.68-18.19,1.62-6.29,3.58-12.9,7.46-18.18,1.19-1.62,3.75-3.95,3.93-5.96.2-2.22-.06-4.7-.06-7.02,0-.68-.43-1.28-1.08-1.51-.51-.18-.99-.43-1.48-.67s-1.02-.14-1.39.24c-2.09,2.16-4.6,4.03-5.88,6.82-.95,2.06-.8,3.63-1.13,5.82-1.23,8.26-7.07,18.11-11.9,24.87-1.96,2.74-4.58,6.32-7.15,8.45-.57.47-1.01.93-1.71.31l.1-.84c3.93-6.03,8.3-11.45,11.29-18.07,2.24-4.95,4.35-10.27,4.92-15.71l-5.58,5.53c-.33.33-.59.73-.75,1.18-2.55,7.03-5.47,14.24-10.21,20.09-.67.82-3.72,4.17-4.57,4.25-.78.08-.94-.58-.77-1.24.26-1.01,2.33-3.34,3.02-4.4,2.69-4.07,5.08-8.19,6.49-12.9l-9.42,9.2c-.84.8-.4,1.78-.81,2.9-1.48,3.99-7.89.17-4.76-3.17,1.18-1.26,1.99-.8,3.32-1.05.46-.09,2.14-2.39,2.63-2.93,2.04-2.26,4.69-4.48,6.57-6.72.15-.17.34-.43.31-.54-.11-.11-2.67.95-3.97,1.52-4.55,1.98-8.52,5.04-12.61,7.79-2.72.33-.86-1.77.04-2.74,4.72-5.08,12.6-8.77,18.97-11.31,1.1-.44,2.55-.75,3.54-1.25.79-.4,2.32-1.96,3.07-2.65,1.31-1.23,2.55-2.56,3.78-3.86-2.87.4-5.92,1.1-8.65,2.09-2.48.9-5.45,2.17-7.83,3.29-6.19,2.91-11.47,7.26-17.2,10.93-1.73.1-.71-1.34-.08-2.1,2.02-2.45,6.32-5.52,8.99-7.39,6.83-4.78,16.42-10.24,24.72-11.44,1.83-.27,3.79-.06,5.52-.82.19-.08.36-.2.51-.34.85-.82,4.2-4.07,5.58-5.4.37-.36.52-.89.38-1.39s-.26-.98-.33-1.47c-.1-.71-.7-1.23-1.41-1.24-3.1,0-6.25-.32-9.19.75-2.27.82-3.64,2.47-5.59,3.84-7.6,5.32-23.62,9.14-32.88,9.61-.93.05-4.4.23-4.8-.63s.96-1.04,1.59-1.19c4.32-1.02,8.99-1.39,13.3-2.47,4.26-1.06,9.43-3.11,13.42-4.97,2.62-1.22,5.49-2.89,7.62-4.82h-7.99ZM61.42,1.72c-2.07.45.37,4.32,1.81,1.81.73-1.27-.65-2.06-1.81-1.81ZM18.99,21.13c1.42.97,3.41-.07,2.29-1.75-1.04-1.56-2.79.33-2.29,1.75ZM103.62,18.86c-1.24.22-1.71,2.99.56,2.75,2.02-.22.75-2.98-.56-2.75ZM60.96,59.5c-1.46.33-2.84,2.64-2.88,4.09-.1,3.98,7.81,3.29,7.37-.29-.25-2.03-2.3-4.29-4.49-3.79ZM2.54,60.73c-1.74.31-.61,4.39,1.34,2.28,1.01-1.1-.23-2.47-1.34-2.28ZM121.55,60.73c-1.15.13-1.96,1.2-1.06,2.22,2.04,2.3,3.21-2.46,1.06-2.22ZM103.46,102.76c-1.25.37-.84,3.87,1.43,2.2,1.49-1.1,0-2.62-1.43-2.2ZM19.54,102.92c-2.74.63,1.55,4.53,1.83,1.37.11-1.22-.73-1.62-1.83-1.37ZM61.73,120.06c-1.22.22-1.81,2.84.41,2.59s1.04-2.85-.41-2.59Z"/>
    <g>
      <path class="cls-1" d="M151.48,39.24c0-12.1,3.66-15.87,15.43-15.87,9.88,0,15.21,2.22,15.21,11.99v.44h-7.27v-.11c0-5.11-2.5-5.83-7.94-5.83-6.66,0-7.99,1.5-7.99,9.38s1.33,9.38,7.99,9.38c5.88,0,7.99-.78,7.99-6.38v-.11h7.27v.5c0,10.32-5.16,12.49-15.26,12.49-11.77,0-15.43-3.77-15.43-15.87Z"/>
      <path class="cls-1" d="M188.3,23.82h7.21v4.94h.11c1.11-3.38,3.94-5.05,8.6-5.05h3.38v6.33h-3.5c-6.94,0-8.55,1.61-8.55,8.16v16.48h-7.27v-30.86Z"/>
      <path class="cls-1" d="M212.26,11.5h7.27v7.66h-7.27v-7.66ZM212.26,23.82h7.27v30.86h-7.27v-30.86Z"/>
      <path class="cls-1" d="M228.61,46.29v-16.37h-4.11v-6.1h4.11v-7.66h7.33v7.66h8.27v6.1h-8.27v14.98c0,2.89.72,3.5,4.16,3.5h4.11v6.27h-6.99c-6.49,0-8.6-2.55-8.6-8.38Z"/>
      <path class="cls-1" d="M249.62,11.5h7.27v7.66h-7.27v-7.66ZM249.62,23.82h7.27v30.86h-7.27v-30.86Z"/>
      <path class="cls-1" d="M263.14,39.24c0-12.1,3.66-15.87,15.43-15.87,9.88,0,15.21,2.22,15.21,11.99v.44h-7.27v-.11c0-5.11-2.5-5.83-7.94-5.83-6.66,0-7.99,1.5-7.99,9.38s1.33,9.38,7.99,9.38c5.88,0,7.99-.78,7.99-6.38v-.11h7.27v.5c0,10.32-5.16,12.49-15.26,12.49-11.77,0-15.43-3.77-15.43-15.87Z"/>
      <path class="cls-1" d="M298.58,45.46c0-7.05,3.83-9.49,13.87-9.49h8.49v-1.55c0-4.11-1.61-5.27-7.05-5.27s-6.99.94-6.99,4.44v.17h-7.21v-.55c0-7.38,3.94-9.82,14.1-9.82,10.66,0,14.32,2.83,14.32,10.6v20.7h-7.16v-4.16h-.11c-1.22,2.83-2.78,4.55-10.43,4.55-8.44,0-11.82-2.89-11.82-9.6ZM312.79,49.18c5.83,0,8.21-1.11,8.21-5.55v-2.33h-8.27c-5.27,0-6.88.89-6.88,4,0,2.94,1.55,3.88,6.94,3.88Z"/>
      <path class="cls-1" d="M335.13,11.5h7.27v43.18h-7.27V11.5Z"/>
      <path class="cls-1" d="M153.31,106.95c-1.28-1.44-1.83-3.22-1.83-6.27v-.89h7.33v.44c0,1.55.28,2.5,1.11,3.16.78.67,2.28.94,6.05.94,3.38,0,5.38-.11,6.33-.89.83-.55,1.05-1.39,1.05-2.55,0-1.55-.39-2.39-1.28-2.83-.78-.44-2.05-.61-7.6-1-5.33-.33-8.71-.78-10.49-2.22-1.61-1.28-2.39-3.16-2.39-6.77s.89-5.88,2.66-7.27c2.33-1.89,5.72-2.44,11.21-2.44,6.71,0,10.04.94,12.1,3.05,1.39,1.5,1.78,3.55,1.78,6.27v.5h-7.21v-.06c0-1.5-.22-2.44-.94-3-.94-.83-2.89-1.05-5.72-1.05-3.05,0-4.88.17-5.77.94-.67.5-.94,1.17-.94,2.44,0,1.5.39,2.11,1.11,2.55.83.44,2.28.61,6.55.89,6.66.5,9.82.94,11.71,2.33,1.94,1.44,2.55,3.88,2.55,7.05,0,3.72-.83,5.94-2.83,7.44-2.22,1.78-5.88,2.39-11.88,2.39-7.44,0-10.66-.94-12.65-3.16Z"/>
      <path class="cls-1" d="M186.53,66.5h7.27v7.66h-7.27v-7.66ZM186.53,78.82h7.27v30.86h-7.27v-30.86Z"/>
      <path class="cls-1" d="M200.99,111.45v-.44h7.27v.06c0,3.27,1.33,4.16,7.6,4.16,6.77,0,7.94-1.22,7.94-6.33v-4.77h-.06c-1.55,3.05-3.38,4.44-10.54,4.44-9.77,0-13.1-3.77-13.1-14.98s3.05-15.15,13.1-15.15c6.71,0,9.38,1.55,10.77,4.94h.06v-4.55h7.16v30.41c0,9.21-3.5,12.15-15.32,12.15-10.27,0-14.87-2.05-14.87-9.93ZM215.75,102.35c6.49,0,8.27-1.44,8.27-7.33v-3c0-5.83-1.78-7.27-8.27-7.27-6.94,0-8.16,1.39-8.16,8.82s1.22,8.77,8.16,8.77Z"/>
      <path class="cls-1" d="M238.43,78.82h7.21v4.55h.11c1.22-3.16,3.83-4.94,10.16-4.94,8.44,0,11.54,3.5,11.54,11.6v19.65h-7.27v-18.04c0-5.33-1.67-6.77-6.94-6.77-6.21,0-7.55,1.44-7.55,7.49v17.31h-7.27v-30.86Z"/>
      <path class="cls-1" d="M273.1,100.46c0-7.05,3.83-9.49,13.87-9.49h8.49v-1.55c0-4.11-1.61-5.27-7.05-5.27s-6.99.94-6.99,4.44v.17h-7.21v-.55c0-7.38,3.94-9.82,14.1-9.82,10.66,0,14.32,2.83,14.32,10.6v20.7h-7.16v-4.16h-.11c-1.22,2.83-2.78,4.55-10.43,4.55-8.44,0-11.82-2.89-11.82-9.6ZM287.3,104.18c5.83,0,8.21-1.11,8.21-5.55v-2.33h-8.27c-5.27,0-6.88.89-6.88,4,0,2.94,1.55,3.88,6.94,3.88Z"/>
      <path class="cls-1" d="M309.65,66.5h7.27v43.18h-7.27v-43.18Z"/>
      <path class="cls-1" d="M325,106.95c-1.28-1.44-1.83-3.22-1.83-6.27v-.89h7.33v.44c0,1.55.28,2.5,1.11,3.16.78.67,2.28.94,6.05.94,3.38,0,5.38-.11,6.33-.89.83-.55,1.05-1.39,1.05-2.55,0-1.55-.39-2.39-1.28-2.83-.78-.44-2.05-.61-7.6-1-5.33-.33-8.71-.78-10.49-2.22-1.61-1.28-2.39-3.16-2.39-6.77s.89-5.88,2.66-7.27c2.33-1.89,5.72-2.44,11.21-2.44,6.71,0,10.04.94,12.1,3.05,1.39,1.5,1.78,3.55,1.78,6.27v.5h-7.21v-.06c0-1.5-.22-2.44-.94-3-.94-.83-2.89-1.05-5.72-1.05-3.05,0-4.88.17-5.77.94-.67.5-.94,1.17-.94,2.44,0,1.5.39,2.11,1.11,2.55.83.44,2.28.61,6.55.89,6.66.5,9.82.94,11.71,2.33,1.94,1.44,2.55,3.88,2.55,7.05,0,3.72-.83,5.94-2.83,7.44-2.22,1.78-5.88,2.39-11.88,2.39-7.44,0-10.66-.94-12.65-3.16Z"/>
    </g>
  </g>
</svg>