<svg xmlns="http://www.w3.org/2000/svg" width="1175" height="513" fill="none" viewBox="0 0 1175 513"><path fill="#94eee5" d="M0 118.59q0-21.87 6.5-43.06a121 121 0 0 1 19.13-37.94 97 97 0 0 1 31.44-27Q75.87 0 100.82 0q33.15 0 54.34 15.05 21.18 14.7 29.05 43.74l-33.84 11.28q-5.12-18.8-18.8-28.02-13.32-9.57-30.75-9.57-16.75 0-29.4 7.51a61 61 0 0 0-20.16 18.8 86 86 0 0 0-11.96 25.3 107 107 0 0 0-3.76 27.67v16.07q0 13.66 3.76 27.68a91 91 0 0 0 11.96 25.63 66.5 66.5 0 0 0 20.17 18.8q12.64 7.17 29.39 7.17 17.43 0 30.75-9.22 13.68-9.57 18.8-28.37l33.84 11.28q-7.87 29.05-29.05 44.08-21.2 14.7-54.34 14.7-24.96 0-43.75-10.25a101 101 0 0 1-31.44-27.34A121 121 0 0 1 6.5 164.04 146 146 0 0 1 0 120.98zm330.46 117.56-12.98-61.51q-2.06-8.89-4.79-14.36t-6.5-8.54a20 20 0 0 0-8.54-4.1 51 51 0 0 0-10.59-1.03h-51.95v89.54h-35.2V4.1h93.98q14.36 0 27 5.13a64 64 0 0 1 21.88 13.67 64 64 0 0 1 15.03 21.19q5.81 11.96 5.81 26.65 0 21.2-10.93 36.57-10.95 15.38-32.81 23.24 14.7 4.79 22.56 15.38t9.56 20.16l13.67 70.06zM235.11 35.88v79.3h50.24q10.6 0 18.46-3.43a42 42 0 0 0 13.67-8.88 40 40 0 0 0 8.2-12.65 41 41 0 0 0 2.73-14.7q0-7.5-2.73-14.35-2.4-7.17-7.86-12.64a39 39 0 0 0-13.67-9.23q-7.86-3.42-18.8-3.42zm178.06 200.27h-35.2V4.1h35.2zm109.52 0h-35.2V35.88h-58.44V4.1h152.08v31.78h-58.44zm109.43 0h-35.2V4.1h35.2zM648 118.6q0-21.87 6.5-43.06a121 121 0 0 1 19.13-37.94 97 97 0 0 1 31.44-27Q723.87 0 748.82 0q33.15 0 54.34 15.05 21.18 14.7 29.05 43.74l-33.84 11.28q-5.12-18.8-18.8-28.02-13.32-9.57-30.75-9.57-16.75 0-29.4 7.51a61 61 0 0 0-20.16 18.8 86 86 0 0 0-11.96 25.3 107 107 0 0 0-3.76 27.67v16.07q0 13.66 3.76 27.68a91 91 0 0 0 11.96 25.63 66.5 66.5 0 0 0 20.17 18.8q12.64 7.17 29.39 7.17 17.43 0 30.75-9.22 13.67-9.57 18.8-28.37l33.84 11.28q-7.87 29.05-29.05 44.08-21.2 14.7-54.34 14.7-24.96 0-43.75-10.25a101 101 0 0 1-31.44-27.34 121 121 0 0 1-19.14-37.94 146 146 0 0 1-6.5-43.06zm331.17 69.03h-98.43l-16.75 48.53h-37.93L913.55 4.1h32.8l87.5 232.05h-37.94zm-10.94-31.78L929.95 45.45l-38.27 110.39zm81.44 80.31V4.1h35.2v200.27h89.88v31.78zM178.74 346.13h-35.2q0-10.6-4.1-18.1a35.6 35.6 0 0 0-10.94-12.31 38 38 0 0 0-15.38-7.18q-8.54-2.4-17.43-2.39-9.23 0-18.11 2.4a59 59 0 0 0-16.06 6.14 38 38 0 0 0-11.28 10.26 22.5 22.5 0 0 0-4.1 13.32q0 11.97 9.9 19.49 9.91 7.17 24.96 12.64a911 911 0 0 0 32.12 10.25 178 178 0 0 1 32.47 12.3q15.04 7.53 24.94 19.14 9.92 11.63 9.92 30.08 0 16.74-7.18 29.73a71.5 71.5 0 0 1-19.14 22.22q-11.96 8.88-28.02 13.67a113 113 0 0 1-33.15 4.78q-16.4 0-32.47-4.44a94 94 0 0 1-28.7-14.01 73 73 0 0 1-20.51-24.27q-7.86-14.7-7.86-35.2h35.2q0 11.62 4.78 20.5a43 43 0 0 0 12.3 14.02 58 58 0 0 0 17.43 8.2 74 74 0 0 0 19.83 2.73q9.23 0 18.45-2.05a72 72 0 0 0 17.09-6.5q7.52-4.1 11.96-10.24a22.2 22.2 0 0 0 4.78-14.01q0-12.3-9.9-19.14-9.92-6.84-24.95-11.62a430 430 0 0 0-32.47-9.57 180 180 0 0 1-32.13-12.3q-15.04-7.87-24.94-20.17t-9.91-32.8q0-16.41 7.17-29.06a68 68 0 0 1 19.48-21.53 94 94 0 0 1 27.68-12.98 112 112 0 0 1 31.1-4.45q15.39 0 30.08 4.45a73 73 0 0 1 26.65 13.32 64 64 0 0 1 18.46 22.56q7.18 13.67 7.18 32.13m56.04 163.02h-35.2V277.1h35.2zm54.84-124.4v16.07q0 13.66 3.75 27.68a91 91 0 0 0 11.97 25.63 66.5 66.5 0 0 0 20.16 18.8q12.64 7.17 29.4 7.17 8.53 0 17.08-3.41 8.55-3.76 15.38-9.57 6.83-6.15 10.93-14.02a35.4 35.4 0 0 0 4.45-17.08v-14.7h-57.76v-31.78h92.96v119.61h-31.1l-3.76-20.5a67 67 0 0 1-22.9 17.43q-13.32 6.49-30.76 6.49-16.74 0-33.83-7.18-17.1-7.5-30.76-22.21-13.67-14.7-22.21-36.91-8.55-22.56-8.55-52.29v-2.4q0-21.86 6.5-43.05 6.48-21.2 19.13-37.6a97 97 0 0 1 31.45-27q18.79-10.25 43.74-10.25 16.06 0 31.1 4.45a78 78 0 0 1 26.66 13.67 66 66 0 0 1 19.14 22.55q7.17 13.67 7.17 32.47h-35.2q0-9.9-4.1-17.43a37 37 0 0 0-10.25-12.65 47 47 0 0 0-15.04-7.86 58 58 0 0 0-17.77-2.73q-11.62 0-23.58 4.44a63 63 0 0 0-21.87 14.01q-9.57 9.57-15.72 24.61-5.81 14.7-5.81 35.54m203.83 124.4h-35.2V277.1h38.61l88.18 169.17-2.4-169.17h35.2v232.05h-38.61l-88.18-169.17zm293.13-48.53h-98.42l-16.75 48.53h-37.93l87.48-232.05h32.81l87.5 232.05h-37.94zm-10.94-31.78-38.27-110.39-38.28 110.39zm81.44 80.31V277.1h35.2v200.27h89.89v31.78zm296.57-163.01h-35.2q0-10.6-4.1-18.12a35.6 35.6 0 0 0-10.94-12.3 38 38 0 0 0-15.38-7.18q-8.54-2.4-17.43-2.39-9.23 0-18.11 2.4a59 59 0 0 0-16.06 6.14 37.5 37.5 0 0 0-11.28 10.26 22.5 22.5 0 0 0-4.1 13.32q0 11.97 9.91 19.49 9.9 7.17 24.95 12.64a909 909 0 0 0 32.12 10.25 178 178 0 0 1 32.47 12.3q15.03 7.53 24.95 19.14 9.9 11.63 9.91 30.08 0 16.74-7.18 29.73a71 71 0 0 1-19.14 22.22q-11.95 8.88-28.02 13.67a113 113 0 0 1-33.15 4.78q-16.4 0-32.47-4.44a94 94 0 0 1-28.71-14.01 73 73 0 0 1-20.5-24.27q-7.86-14.7-7.86-35.2h35.2q0 11.62 4.78 20.5a43 43 0 0 0 12.31 14.02 58 58 0 0 0 17.43 8.2 74 74 0 0 0 19.82 2.73q9.22 0 18.45-2.05a72 72 0 0 0 17.09-6.5q7.52-4.1 11.96-10.24a22.2 22.2 0 0 0 4.79-14.01q0-12.3-9.92-19.14-9.9-6.84-24.94-11.62a430 430 0 0 0-32.47-9.57 180 180 0 0 1-32.12-12.3q-15.05-7.87-24.95-20.17-9.91-12.3-9.91-32.8 0-16.41 7.17-29.06a68 68 0 0 1 19.48-21.53 94 94 0 0 1 27.69-12.98 112 112 0 0 1 31.09-4.45q15.38 0 30.08 4.45a73.5 73.5 0 0 1 26.66 13.32 64 64 0 0 1 18.45 22.56q7.18 13.67 7.18 32.13"/></svg>