<svg xmlns="http://www.w3.org/2000/svg" width="1024" height="576"><defs><filter id="a" width="1090" height="642" x="-33" y="-33" filterUnits="userSpaceOnUse" primitiveUnits="userSpaceOnUse"><feTurbulence baseFrequency=".0034" numOctaves="2" result="n" seed="98"/><feDisplacementMap in="SourceGraphic" in2="n" scale="57.87" xChannelSelector="R" yChannelSelector="G"/></filter><filter id="b" width="1077" height="629" x="-26" y="-26" filterUnits="userSpaceOnUse" primitiveUnits="userSpaceOnUse"><feTurbulence baseFrequency=".0241" numOctaves="2" result="n" seed="100"/><feDisplacementMap in="SourceGraphic" in2="n" scale="45" xChannelSelector="R" yChannelSelector="G"/></filter><filter id="c" width="1052" height="604" x="-14" y="-14" filterUnits="userSpaceOnUse" primitiveUnits="userSpaceOnUse"><feTurbulence baseFrequency=".15" numOctaves="2" result="n" seed="102"/><feDisplacementMap in="SourceGraphic" in2="n" scale="20" xChannelSelector="R" yChannelSelector="G"/></filter></defs><path fill="#806690" d="M0 0h1024v576H0z"/><path fill="#7e5889" fill-opacity=".75" d="M1162.33 688.13 629.75-171.84 565.72 441.3Z" filter="url(#a)"/><path fill="#827d96" fill-opacity=".75" d="m-89.11 586.47 5.76-585.4 677.6-167.95Z" filter="url(#a)"/><path fill="#7b4c82" fill-opacity=".45" d="M861.71 52.84-26.73 677.69l297.35-71.99Z" filter="url(#a)"/><path fill="#8aabb4" fill-opacity=".25" d="m162.63 237.14 490.36 482.98 183.81-35.4Z" filter="url(#a)"/><path fill="#753f6c" fill-opacity=".75" d="m741.75-275.85-12.7 424.29-257.8-296.74Z" filter="url(#a)"/><path fill="#90c9c2" fill-opacity=".25" d="m777.78 797.26-62.36-334.7-343.95 136.86Z" filter="url(#a)"/><path fill="#94f3c8" fill-opacity=".45" d="m110.74-67.67 255.6 36.25L46.76 34.05Z" filter="url(#a)"/><path fill="#806792" fill-opacity=".75" d="M208.43 61.65 564.04 521.8-5.85 300.33Z" filter="url(#a)"/><path fill="#889ab0" fill-opacity=".25" d="m-75.16 391.57 710.64-109.7-318.32-99.29Z" filter="url(#a)"/><path fill="#86779c" fill-opacity=".45" d="m387.05-141.17 598.49 634.33-34.92-160.98Z" filter="url(#a)"/><path fill="#7d5489" fill-opacity=".45" d="m473.4 1000.76-738.16-385.44L459.62 274Z" filter="url(#a)"/><path fill="#7d4385" fill-opacity=".55" d="M1175.6 611.49 774.12 99.75l407.58 333.92Z" filter="url(#a)"/><path fill="#7d5788" fill-opacity=".45" d="m185.86 489.05 230.91-546.3-205.8 295.82Z" filter="url(#a)"/><path fill="#848598" fill-opacity=".75" d="m738.03 288.13 43.64 195.2-57.07-63.23Z" filter="url(#a)"/><path fill="#7c5281" fill-opacity=".75" d="m805.74 508.57 56 181.06 325.24-296.12Z" filter="url(#a)"/><path fill="#867ba3" fill-opacity=".35" d="m696.71 346.61 658.26-249.18 114.51-256.33Z" filter="url(#a)"/><path fill="#836b98" fill-opacity=".65" d="M950.32-134.09 839.77 359.06 935.06 582Z" filter="url(#a)"/><path fill="#87a19c" fill-opacity=".35" d="M754.1-46.04 313.6 43.52 43 21.5Z" filter="url(#a)"/><path fill="#7e5587" fill-opacity=".75" d="M561.45 254.71 382.79 130.23 330.66-54.94Z" filter="url(#a)"/><path fill="#82779b" fill-opacity=".55" d="m179.49 533.08 54.81-4.86 266.94-422.18Z" filter="url(#a)"/><path fill="#782184" fill-opacity=".25" d="m713.05 456.28-112.6-118.73-118.09 165.2Z" filter="url(#a)"/><path fill="#84889c" fill-opacity=".35" d="M655.69 96.61 608.5 2.91 325.12 326.55Z" filter="url(#a)"/><path fill="#8595a0" fill-opacity=".75" d="m7.64 212.71-62.7-58.47 206.63-82.99Z" filter="url(#a)"/><path fill="#7c547f" fill-opacity=".55" d="M762.03 133.7 278.6 191.79l507.83-16.59Z" filter="url(#a)"/><path fill="#783970" fill-opacity=".25" d="M821.34 350.64 883 597.89 628.59 100.03Z" filter="url(#a)"/><path fill="#816994" fill-opacity=".55" d="M783.93 638.6 664.8 500.31-42.16 168.38Z" filter="url(#a)"/><path fill="#92f7ce" fill-opacity=".25" d="m39.5 390.84 73.99-78.35 42.03 39.5Z" filter="url(#a)"/><path fill="#7f4789" fill-opacity=".35" d="m1145.19 240.96-210.85-8.37-43.77 228.07Z" filter="url(#a)"/><path fill="#7e5883" fill-opacity=".45" d="M492.98 410.11 108.44-282.33l35.92 186.67Z" filter="url(#a)"/><path fill="#762464" fill-opacity=".25" d="M1220.47-106.15 936.53 110.28l461.72 147.68Z" filter="url(#a)"/><path fill="#7c458a" fill-opacity=".65" d="m640.24 515.77 112.14-147.33-83.37-69.46Z" filter="url(#a)"/><path fill="#794f7a" fill-opacity=".45" d="m-151.77 191.62 55.33-115.88L97.58 340.83Z" filter="url(#a)"/><path fill="#730d7e" fill-opacity=".25" d="m745.93 266.25 175.4 287.32L812.78 341.3Z" filter="url(#a)"/><path fill="#858ba2" fill-opacity=".65" d="m503.64 530.61 325.49-31.08-75.74 42.85Z" filter="url(#a)"/><path fill="#826d9a" fill-opacity=".65" d="m231.11 505.62-371.53-147.48 328.91 27.92Z" filter="url(#a)"/><path fill="#7d4c7e" fill-opacity=".25" d="M445.51 272.81-16.4 511.85l-66.98 199.04Z" filter="url(#a)"/><path fill="#827894" fill-opacity=".75" d="m939.55 308.15-242.25 3.86-241.41-41.38Z" filter="url(#a)"/><path fill="#7d518c" fill-opacity=".5" d="M502.46 723.75 875.9 394.53 594.6 577.79Z" filter="url(#a)"/><path fill="#95fcd8" fill-opacity=".25" d="m79.18 528.56 140.25-362.73 40.71-77.44Z" filter="url(#a)"/><path fill="#7e508d" fill-opacity=".25" d="M107.62 295.03 96.41 443.49 236.8 118.4Z" filter="url(#a)"/><path fill="#7c5784" fill-opacity=".35" d="M676.91-369.27 471.51 4.26l578.03 35.84Z" filter="url(#a)"/><path fill="#7e538a" fill-opacity=".55" d="m976.91 303.17-110.28-78.83-21.54-156.12Z" filter="url(#a)"/><path fill="#8aa0a9" fill-opacity=".25" d="m866.69 417.48 60.94-60.61-393.26 203.56Z" filter="url(#a)"/><path fill="#8bc0ba" fill-opacity=".55" d="m476.83 478.91-18.25 113.82 71.67-12.4Z" filter="url(#a)"/><path fill="#84899b" fill-opacity=".75" d="m204.86 192.76-179.1 1.77-70.15-111.61Z" filter="url(#a)"/><path fill="#7e518a" fill-opacity=".75" d="m18.28 524.55 30.04-124.14 136.09 196.64Z" filter="url(#a)"/><path fill="#91dfc7" fill-opacity=".5" d="M-336.4 328.81 71.66 6.94l-288.13 315.63Z" filter="url(#a)"/><path fill="#87a7a4" fill-opacity=".25" d="m263.92 67.52-56.94 114.76L402.52 73.21Z" filter="url(#a)"/><path fill="#8ee3c5" fill-opacity=".25" d="m397.73 193.16-40.91 27.73-158.41-27.33Z" filter="url(#a)"/><path fill="#7f6689" fill-opacity=".75" d="M115.37 3.43 27.91 144.59l-6.54 85.64Z" filter="url(#a)"/><path fill="#828c90" fill-opacity=".25" d="M225.08 504.84-93.37 698.47l249.58-233.39Z" filter="url(#b)"/><path fill="#7f6191" fill-opacity=".75" d="m259.59 191.37 134.93 231.65-292.11-321.79Z" filter="url(#b)"/><path fill="#827296" fill-opacity=".55" d="m601.51 215.61 43.79 169.4L408.39 18.28Z" filter="url(#b)"/><path fill="#806792" fill-opacity=".65" d="m585.97 423.92-76.44-100.55L52.88 102.31Z" filter="url(#b)"/><path fill="#752a70" fill-opacity=".25" d="m542.9 297.43 74.79-94.84 133.14 48.14Z" filter="url(#b)"/><path fill="#8696a8" fill-opacity=".35" d="M434.71 306.56 52.53 326.59l-2.36-30.8Z" filter="url(#b)"/><path fill="#773a7b" fill-opacity=".75" d="m328.32 573.76-103.99 29.5 5.14-62.59Z" filter="url(#b)"/><path fill="#97ebd9" fill-opacity=".25" d="M-58.43 393.56-93.2 472.2l134.23-13.21Z" filter="url(#b)"/><path fill="#826d99" fill-opacity=".35" d="m1033.43-27.59-17.83-25.6-1111.69 470.2Z" filter="url(#b)"/><path fill="#8ab7ac" fill-opacity=".75" d="M-334.83 57.43 55.84 376.32l-181.7-52.83Z" filter="url(#b)"/><path fill="#7a4a7e" fill-opacity=".35" d="M142.3 212.5 16.7 185.57l56.63 126.3Z" filter="url(#b)"/><path fill="#783a72" fill-opacity=".75" d="m991.6 350.57 146.87 262.96-101.23-286.39Z" filter="url(#b)"/><path fill="#7c5186" fill-opacity=".75" d="m367.28 173.74 88.41 190.48-36.97 30.03Z" filter="url(#b)"/><path fill="#7e548a" fill-opacity=".5" d="m373.26 57.3 219.12 188.36-148.65-10.14Z" filter="url(#b)"/><path fill="#8bbdb6" fill-opacity=".65" d="M188.26 64.84 18.41-94.24l176.97-120.08Z" filter="url(#b)"/><path fill="#86a4ae" fill-opacity=".25" d="m515.98 101.41 213.89-36.62-363.69 109.63Z" filter="url(#b)"/><path fill="#85a2b4" fill-opacity=".25" d="m898.72-73.45 26.53 270.1-20.38 101.85Z" filter="url(#b)"/><path fill="#8bcbbc" fill-opacity=".25" d="m328.23 180.06 329 142.43-141.01-74.65Z" filter="url(#b)"/><path fill="#8591a2" fill-opacity=".75" d="m268.54 94.18-10.73-54.33L115.06 62Z" filter="url(#b)"/><path fill="#95fac3" fill-opacity=".5" d="m1001.55 422.2 133.59-74.03 18.93 165.25Z" filter="url(#b)"/><path fill="#806d92" fill-opacity=".65" d="M594.03 188.24-85.06 324.39l1165.17-196.8Z" filter="url(#b)"/><path fill="#89ada8" fill-opacity=".55" d="m558.6 530 50.33-60.55-6.59 289.75Z" filter="url(#b)"/><path fill="#827595" fill-opacity=".75" d="m514.45 39.84 153.44 170.87L554.71-25.77Z" filter="url(#b)"/><path fill="#89d2ba" fill-opacity=".25" d="M745.68 181.07 846.99 376.2 717.63 167.92Z" filter="url(#b)"/><path fill="#7d6686" fill-opacity=".45" d="m8.8 231.78 13.78-41.82L336.76-28.11Z" filter="url(#b)"/><path fill="#753575" fill-opacity=".25" d="M645.21 207.51 348.69 53.23l486.15 204.4Z" filter="url(#b)"/><path fill="#8389a7" fill-opacity=".45" d="m331.56 427.06 17.9-40.8-145.99 89.11Z" filter="url(#b)"/><path fill="#6f0c41" fill-opacity=".25" d="m637.82 106.21 117.08 27.44-159.15 11.83Z" filter="url(#b)"/><path fill="#7e5786" fill-opacity=".55" d="M498.58 421.23 169.3 453.78l532.23-11.5Z" filter="url(#b)"/><path fill="#858ba4" fill-opacity=".75" d="M474.44 865.09 629.22 559.8l114.72-159.67Z" filter="url(#b)"/><path fill="#8abab8" fill-opacity=".35" d="m232.04 173.36 3.86 3.08L88.61 564.05Z" filter="url(#c)"/><path fill="#91e6b5" fill-opacity=".65" d="m464.88-360.27-80.27 339.4-85.46 35.42Z" filter="url(#c)"/><path fill="#7d5588" fill-opacity=".75" d="m263.31 427.32 122.01 210.45 57.58-191.45Z" filter="url(#c)"/><path fill="#7b545d" fill-opacity=".35" d="m774.92 400.86-50.67 11.99 118.63 75.42Z" filter="url(#c)"/><path fill="#816194" fill-opacity=".65" d="m905.64 91.05-188.48 21.99L819.11-224.4Z" filter="url(#c)"/><path fill="#90c8bf" fill-opacity=".25" d="m377.83-38.43 91.89 166.1 73.24 92.03Z" filter="url(#c)"/><path fill="#83759f" fill-opacity=".75" d="m410.88 301.95-89.42-51.24-48.03 68.71Z" filter="url(#c)"/><path fill="#805f93" fill-opacity=".55" d="M106 490.3-68.69 647.11l411.14-510.44Z" filter="url(#c)"/><path fill="#774450" fill-opacity=".25" d="M600.16-340.11 489.95 46.41l82.61-30.11Z" filter="url(#c)"/><path fill="#85639b" fill-opacity=".5" d="M770.76 269.51 942.35 476.2l71.07-92.22Z" filter="url(#c)"/><path fill="#7f6088" fill-opacity=".75" d="M670.91 158.34 939.17 355 636.39 156.02Z" filter="url(#c)"/><path fill="#7c527e" fill-opacity=".65" d="M311.5 63.99 208.56-152.2 321.71 44.85Z" filter="url(#c)"/><path fill="#859aa6" fill-opacity=".75" d="m914.15 109.97 4.07-45.72 51.21 23.33Z" filter="url(#c)"/><path fill="#722f0c" fill-opacity=".25" d="m376.33 35.71-194.32 113-24.24 25.38Z" filter="url(#c)"/><path fill="#7b497d" fill-opacity=".75" d="m660.45 230.15 93.17 89.74-49.83-153.91Z" filter="url(#c)"/><path fill="#783c60" fill-opacity=".25" d="M523.71-109.26 497.63-88.7l472.24 447.59Z" filter="url(#c)"/><path fill="#80799a" fill-opacity=".45" d="m-33.99 418.13 301.96-55.49-106.23 44.33Z" filter="url(#c)"/><path fill="#7d5384" fill-opacity=".75" d="m773.59 103.78-4.89 29.97-378.67 341.98Z" filter="url(#c)"/><path fill="#95f9e0" fill-opacity=".25" d="m92.25 605.53-288.94-140.24L4.25 605.58Z" filter="url(#c)"/><path fill="#93f8bf" fill-opacity=".5" d="m453.18 16.95-13.04-54.08-322.21-29.35Z" filter="url(#c)"/></svg>