<svg xmlns="http://www.w3.org/2000/svg" width="1024" height="576"><defs><filter id="a" width="1086" height="638" x="-31" y="-31" filterUnits="userSpaceOnUse" primitiveUnits="userSpaceOnUse"><feTurbulence baseFrequency=".00567" numOctaves="2" result="n" seed="98"/><feDisplacementMap in="SourceGraphic" in2="n" scale="53.6" xChannelSelector="R" yChannelSelector="G"/></filter><filter id="b" width="1077" height="629" x="-26" y="-26" filterUnits="userSpaceOnUse" primitiveUnits="userSpaceOnUse"><feTurbulence baseFrequency=".0241" numOctaves="2" result="n" seed="100"/><feDisplacementMap in="SourceGraphic" in2="n" scale="45" xChannelSelector="R" yChannelSelector="G"/></filter><filter id="c" width="1052" height="604" x="-14" y="-14" filterUnits="userSpaceOnUse" primitiveUnits="userSpaceOnUse"><feTurbulence baseFrequency=".15" numOctaves="2" result="n" seed="102"/><feDisplacementMap in="SourceGraphic" in2="n" scale="20" xChannelSelector="R" yChannelSelector="G"/></filter></defs><path fill="#85afbc" d="M0 0h1024v576H0z"/><path fill="#8ce6ec" fill-opacity=".45" d="m201.3-143.68 699.45 365.75-554.76 370.78Z" filter="url(#a)"/><path fill="#784360" fill-opacity=".25" d="M1379.16 235.87 978.72 570.38 681.71-122.01Z" filter="url(#a)"/><path fill="#7c5f6b" fill-opacity=".25" d="m9.5-60.46 338.16 738.22-447.13 107.66Z" filter="url(#a)"/><path fill="#89c8d3" fill-opacity=".75" d="m711.63 458.14-548.65-89.05L265.12-96.8Z" filter="url(#a)"/><path fill="#7d7587" fill-opacity=".75" d="m687.46-119.05 96.6 239.41-561.99-286.12Z" filter="url(#a)"/><path fill="#818e9c" fill-opacity=".75" d="m841.85 567.29-143.3-114.72-546.97 393.45Z" filter="url(#a)"/><path fill="#818e9c" fill-opacity=".75" d="M918.84-110.89 874.3 550.58l230.04 336.45Z" filter="url(#a)"/><path fill="#8bd7dd" fill-opacity=".45" d="m754.98 119.98 131.29 219.41-406.13 96.84Z" filter="url(#a)"/><path fill="#8291a4" fill-opacity=".55" d="M192.86-23.4 33.38-61.09l127.23 677.5Z" filter="url(#a)"/><path fill="#86b3c8" fill-opacity=".65" d="M352.08 279.27 166.46 424.36 563.1 643.49Z" filter="url(#a)"/><path fill="#88bae3" fill-opacity=".35" d="m1100.28 113.9-174.76 38.09-291.49-304.87Z" filter="url(#a)"/><path fill="#89ced5" fill-opacity=".75" d="m814.62 555.63 77.4-116.14-143.29-212.31Z" filter="url(#a)"/><path fill="#7c6068" fill-opacity=".25" d="m259.62 556.43 568.78 24.93-1042.65-13.17Z" filter="url(#a)"/><path fill="#828eaa" fill-opacity=".65" d="m-136.22-57.77 409.77 36.74-.98 103.49Z" filter="url(#a)"/><path fill="#88c3d3" fill-opacity=".65" d="m500.29 459.24 254.03-130.4-301.66 327.75Z" filter="url(#a)"/><path fill="#742815" fill-opacity=".25" d="m977.84 404.32 158.75 227.7-219.67-194.91Z" filter="url(#a)"/><path fill="#7b576a" fill-opacity=".25" d="m674.09 417.23 123.58-64.63-117.14 188.97Z" filter="url(#a)"/><path fill="#89cfd7" fill-opacity=".35" d="M335.32 380.24 109.97 137.62l449.72-97.94Z" filter="url(#a)"/><path fill="#86aeba" fill-opacity=".45" d="m844.84 383.2 206.53-14.09-44.53-135.38Z" filter="url(#a)"/><path fill="#86b7b9" fill-opacity=".35" d="m-69.21 450.99 222.05 37.84.71-176.16Z" filter="url(#a)"/><path fill="#84a2b7" fill-opacity=".75" d="m59.79 175.31-526.9 83.62L315.25-75.32Z" filter="url(#a)"/><path fill="#86abc3" fill-opacity=".5" d="m881.46 417.57-78.51-531.28 62.42 774.99Z" filter="url(#a)"/><path fill="#8bdadd" fill-opacity=".45" d="m778.85 485.72 64.63-280.65-46.19-80.72Z" filter="url(#a)"/><path fill="#818f98" fill-opacity=".5" d="m90.32 328.67 107.05 224.04 210.59 79.56Z" filter="url(#a)"/><path fill="#86afc5" fill-opacity=".55" d="m658.97 492.15 75.39-80.19 58.6-220.04Z" filter="url(#a)"/><path fill="#807da7" fill-opacity=".75" d="M1026.76-37.6 834.41-6.44l52.8 55.31Z" filter="url(#a)"/><path fill="#8ce6f2" fill-opacity=".25" d="m1088.59 594.83-91.36-16.05-47.93-91.27Z" filter="url(#a)"/><path fill="#6e0000" fill-opacity=".25" d="m1138.22 304.17 118.93-25.11-322.21 208.42Z" filter="url(#a)"/><path fill="#7d7688" fill-opacity=".55" d="m538-11.17 589.64 223.22-251.54-52.36Z" filter="url(#a)"/><path fill="#7b5a5e" fill-opacity=".35" d="m859.89 477.8 179.92 119.49-90.26-35.23Z" filter="url(#a)"/><path fill="#839da8" fill-opacity=".65" d="m185.88 538.03-21.9-467.9-78.03 687.86Z" filter="url(#a)"/><path fill="#7d5f8e" fill-opacity=".25" d="m-113.64 267.31 222.56-124.43-165.21 259.43Z" filter="url(#a)"/><path fill="#89c9d7" fill-opacity=".35" d="m730.19-67 267.25 208.82-90.56-5.48Z" filter="url(#a)"/><path fill="#84a5ae" fill-opacity=".75" d="m609.93 623.57 218.04-94.03-89.07-112.77Z" filter="url(#a)"/><path fill="#8bd4f1" fill-opacity=".25" d="m959.25 283.31 15.53 56.82-118.77-129.75Z" filter="url(#a)"/><path fill="#89ccd3" fill-opacity=".75" d="m437.59-17.16 245.85 440.59 14.16-315.28Z" filter="url(#a)"/><path fill="#91fffa" fill-opacity=".25" d="M631.67 353.38 430.93 511.96l-49.82-36.69Z" filter="url(#a)"/><path fill="#8acfe4" fill-opacity=".25" d="m66.47 285.04-263.24-385.78L82.05 228.31Z" filter="url(#a)"/><path fill="#7d6f79" fill-opacity=".25" d="M1102.65 523.55 921.61 215.57l36.16 1.09Z" filter="url(#a)"/><path fill="#7f7e88" fill-opacity=".75" d="m42.37 169.79 76.4 110.82 38.48-78.98Z" filter="url(#a)"/><path fill="#87bdd0" fill-opacity=".5" d="m161.73 279.4 392.52 94.77-359.79 50.63Z" filter="url(#a)"/><path fill="#86adbe" fill-opacity=".45" d="M-175.52 641.02 866.44 471.68-201.44 684.86Z" filter="url(#a)"/><path fill="#88bbd2" fill-opacity=".5" d="m984.88 343.87-26.36 14.78-199.12-50.11Z" filter="url(#a)"/><path fill="#86b0c5" fill-opacity=".75" d="m365.83 594.01 28.08-201.81-197.34 35.25Z" filter="url(#a)"/><path fill="#83999b" fill-opacity=".75" d="m990.48 481.38 32.85-104.03 261.55 64.24Z" filter="url(#a)"/><path fill="#80838c" fill-opacity=".55" d="m-9.35 247.31 57.86 206.32 9.81-64.77Z" filter="url(#a)"/><path fill="#89c6d1" fill-opacity=".35" d="m164.17 255.63 412.9 136.74L253.72 5.71Z" filter="url(#a)"/><path fill="#89ccd4" fill-opacity=".55" d="M749.14 151.59 791.11 307 126.26 128.74Z" filter="url(#a)"/><path fill="#84a0b1" fill-opacity=".5" d="M820.22 130.98 562.68-145.69l540.38 509.84Z" filter="url(#a)"/><path fill="#89cfd6" fill-opacity=".35" d="M648.25 376.13 895.3 216.76 682.38 99.52Z" filter="url(#a)"/><path fill="#7f8284" fill-opacity=".25" d="M-91.09 427.37 71.86 547.75l173.41 5.57Z" filter="url(#b)"/><path fill="#7e7696" fill-opacity=".25" d="m236.62 46.17-288.59-9.11L312.82-84.48Z" filter="url(#b)"/><path fill="#8bd6dc" fill-opacity=".25" d="m16.72 425.01 9.3 81.23 56.05-311.72Z" filter="url(#b)"/><path fill="#7b697d" fill-opacity=".65" d="m674.43-67.82 147.3 103.79-199.89-59.56Z" filter="url(#b)"/><path fill="#742034" fill-opacity=".25" d="m529.68 663.17-24.13 129.81 133.29-351.96Z" filter="url(#b)"/><path fill="#88cdd4" fill-opacity=".75" d="m889.17 635.22-45.3-174.68-22.1 84.36Z" filter="url(#b)"/><path fill="#794d6f" fill-opacity=".25" d="m253.95 459.27 19.97-5.6 329.31 188.17Z" filter="url(#b)"/><path fill="#85a8c0" fill-opacity=".45" d="M100.6 150.88-138.18-69.77l347.6 244.71Z" filter="url(#b)"/><path fill="#82929e" fill-opacity=".65" d="m208.47 486.13 46.43 76.5L10.16-70.25Z" filter="url(#b)"/><path fill="#7d6a71" fill-opacity=".25" d="M1116.76 706.51 960.55 228.07l-8.38-83.24Z" filter="url(#b)"/><path fill="#8081a2" fill-opacity=".25" d="M1066.58 80.65 685.15 14.71l320.16 97.11Z" filter="url(#b)"/><path fill="#89ced5" fill-opacity=".65" d="m636.46 111.73-479.38 30.94 273.88-165.7Z" filter="url(#b)"/><path fill="#84a2b5" fill-opacity=".75" d="m-345.01 363.49 493.69-241.05 26.51-169Z" filter="url(#b)"/><path fill="#88c5d0" fill-opacity=".75" d="m698.05 242.7-333.37-70.09-116.8 191.63Z" filter="url(#b)"/><path fill="#774c62" fill-opacity=".25" d="M-267.14-137.97 744-70.29 635.67 18.34Z" filter="url(#b)"/><path fill="#84a4ae" fill-opacity=".45" d="m907.73 477.47 339.79-572.82 41.81 149.05Z" filter="url(#b)"/><path fill="#7e738a" fill-opacity=".25" d="m924.73-56.37-22.24 535.12 19.28-136.84Z" filter="url(#b)"/><path fill="#808794" fill-opacity=".75" d="m-249.68 220.06 380.77 107.9L176 298.28Z" filter="url(#b)"/><path fill="#7e7780" fill-opacity=".35" d="m21.87 415.73 283.89 98.35-408.79-122.32Z" filter="url(#b)"/><path fill="#721823" fill-opacity=".45" d="m1005.6 420.96 113.07-23.58 44.73 160.27Z" filter="url(#b)"/><path fill="#88c0c9" fill-opacity=".45" d="M197.71 314.1-20.12 551.46l273.57-321.42Z" filter="url(#b)"/><path fill="#6e0000" fill-opacity=".35" d="m384.78 557.15 254.04 88.21-120.02 18.83Z" filter="url(#b)"/><path fill="#8ad5da" fill-opacity=".75" d="m722.98 339.34-268.5-3.37 274.01 48.02Z" filter="url(#b)"/><path fill="#8ad2d6" fill-opacity=".75" d="m722.06 120.38 84.36 41.39-38.6 179.78Z" filter="url(#b)"/><path fill="#88c0cf" fill-opacity=".65" d="m217.54 642.77 438.8-197.63-22.35-44.46Z" filter="url(#b)"/><path fill="#88c9d2" fill-opacity=".25" d="m16.42 652.73 68.04-9.57-22.84-193.02Z" filter="url(#b)"/><path fill="#818f92" fill-opacity=".65" d="m-215.2 532 389.17 19.05-303.78-42.57Z" filter="url(#b)"/><path fill="#8df3f2" fill-opacity=".25" d="m58.09 258.32-225.52 207.86 53.63 18.04Z" filter="url(#b)"/><path fill="#8180a8" fill-opacity=".75" d="M53.84 219.07-264.71 37.66 65.06 247.31Z" filter="url(#b)"/><path fill="#88bfcc" fill-opacity=".35" d="M735.79 557.17 599.7 555.4l248.25 75.02Z" filter="url(#b)"/><path fill="#818ea0" fill-opacity=".75" d="m220.54 169.08-1.35 9.89-2.6 293.67Z" filter="url(#c)"/><path fill="#89ccd2" fill-opacity=".25" d="m131.23 239.5 34.17-34.54-14.29 182.2Z" filter="url(#c)"/><path fill="#76516e" fill-opacity=".25" d="M149.69-174.62 574.67 26.74 169.4-75.02Z" filter="url(#c)"/><path fill="#7d7488" fill-opacity=".75" d="m1228.32 502.46 82.52-493.84-323.22 134.3Z" filter="url(#c)"/><path fill="#87aabb" fill-opacity=".45" d="m602.98-107.24-91.67 51.47L792.65 60.7Z" filter="url(#c)"/><path fill="#7e7079" fill-opacity=".75" d="m589.86 530.18-14.57 157.03-65.22-68.32Z" filter="url(#c)"/><path fill="#88c8d2" fill-opacity=".75" d="m534.16 84.68 149.37 252.08 28.19-173.59Z" filter="url(#c)"/><path fill="#85acbc" fill-opacity=".75" d="M-97.18-213.94 209.17 35.45l85.75-113.31Z" filter="url(#c)"/><path fill="#829ca9" fill-opacity=".75" d="m602.45 62.68-189.4-92.72L630.8 48.08Z" filter="url(#c)"/><path fill="#86abbf" fill-opacity=".45" d="m783.32 36.15 153.34 565.98-90.09-374.24Z" filter="url(#c)"/><path fill="#8297a1" fill-opacity=".75" d="m193.08 655.51-286.07-62.5-111.47-204.2Z" filter="url(#c)"/><path fill="#772777" fill-opacity=".25" d="m217.3 53.03 19.49-105.87L267.23.94Z" filter="url(#c)"/><path fill="#80819c" fill-opacity=".55" d="m650.66 803.86-23.81-284.91L373.4 722.72Z" filter="url(#c)"/><path fill="#7c5e65" fill-opacity=".25" d="m124.13 714.63 155.62-82.23 74.1-113.71Z" filter="url(#c)"/><path fill="#722931" fill-opacity=".25" d="m65.21 38 143.68-138.27L40.13 37.43Z" filter="url(#c)"/><path fill="#89cbd5" fill-opacity=".35" d="m580.61 243.19-264.89 360.2 429.7-438.72Z" filter="url(#c)"/><path fill="#90f8fd" fill-opacity=".25" d="m1161.01-60.08-770.85-44.65 621.95 125.38Z" filter="url(#c)"/><path fill="#808891" fill-opacity=".75" d="m603.59 602.51-33.74 6.03 191.19-133.98Z" filter="url(#c)"/><path fill="#7c6c7d" fill-opacity=".45" d="M870.28 138.69 725.96-54.11l175.45 183.77Z" filter="url(#c)"/><path fill="#89cbd6" fill-opacity=".45" d="m700.61 263.16-108.57 30.9 355.27-40.23Z" filter="url(#c)"/></svg>