<svg xmlns="http://www.w3.org/2000/svg" width="1024" height="576"><defs><filter id="t09-low"><feTurbulence type="fractalNoise" baseFrequency="0.006 0.018" numOctaves="2" seed="1546" result="n"/><feColorMatrix in="n" type="matrix" values="0.33 0.33 0.33 0 0 0.33 0.33 0.33 0 0 0.33 0.33 0.33 0 0 0 0 0 1 0" result="g"/><feComposite in="g" in2="SourceAlpha" operator="in" result="c"/><feBlend in="SourceGraphic" in2="c" mode="overlay"/></filter><filter id="t09-mid"><feTurbulence type="fractalNoise" baseFrequency="0.035" numOctaves="2" seed="1547" result="n"/><feColorMatrix in="n" type="matrix" values="0.33 0.33 0.33 0 0 0.33 0.33 0.33 0 0 0.33 0.33 0.33 0 0 0 0 0 1 0" result="g"/><feComposite in="g" in2="SourceAlpha" operator="in" result="c"/><feBlend in="SourceGraphic" in2="c" mode="overlay"/></filter><filter id="t09-high"><feTurbulence type="fractalNoise" baseFrequency="0.15" numOctaves="2" seed="1548" result="n"/><feColorMatrix in="n" type="matrix" values="0.33 0.33 0.33 0 0 0.33 0.33 0.33 0 0 0.33 0.33 0.33 0 0 0 0 0 1 0" result="g"/><feComposite in="g" in2="SourceAlpha" operator="in" result="c"/><feBlend in="SourceGraphic" in2="c" mode="overlay"/></filter></defs><path fill="#84b4b3" d="M0 0h1024v576H0z"/><g fill-opacity=".50196"><path fill="#785565" d="m772 566.667 256 50.666L1030.667 396z" filter="url(#t09-low)"/><path fill="#7c7787" d="m622.667 180 2.666-221.333 432 72z" filter="url(#t09-low)"/><path fill="#89d7cd" d="M721.333-41.333 268-38.667-4 614.667z" filter="url(#t09-low)"/><path fill="#7c7c85" d="m54.667-6.667 373.333 304-322.667-144z" filter="url(#t09-low)"/><path fill="#89d3cc" d="M212 180-41.333 324l698.666 218.667z" filter="url(#t09-low)"/><path fill="#7f8895" d="m1038.667 33.333-216 96L1065.333 196z" filter="url(#t09-low)"/><path fill="#89d7d1" d="m652 260 168 82.667-282.667 26.666z" filter="url(#t09-low)"/><path fill="#89d1ce" d="m950.667 494.667-64-157.334 120-21.333z" filter="url(#t09-low)"/><path fill="#89d5d0" d="M452 364 289.333 548l8-280z" filter="url(#t09-low)"/><path fill="#7b767c" d="m118.667 52-64 34.667L284 185.333z" filter="url(#t09-low)"/><path fill="#819b9f" d="M889.333 454.667 745.333 588l304-133.333z" filter="url(#t09-low)"/><path fill="#7b6f7a" d="m1065.333 558.667-178.666-96-109.334 154.666z" filter="url(#t09-low)"/><path fill="#7a7989" d="m612 81.333 32 85.334 197.333-208z" filter="url(#t09-low)"/><path fill="#7f8a96" d="m926.667 294.667-184 29.333L852 246.667z" filter="url(#t09-low)"/><path fill="#7e8c91" d="m433.333 326.667 114.667 40L497.333 428z" filter="url(#t09-low)"/><path fill="#89d5c9" d="m174.667-41.333 66.666 98.666L57.333 36z" filter="url(#t09-low)"/><path fill="#84b2af" d="M-41.333 6.667 76 300l154.667-104z" filter="url(#t09-low)"/><path fill="#89ccc7" d="m894.667 153.333 56 53.334L908 4z" filter="url(#t09-low)"/><path fill="#8098a0" d="m526.667 118.667 112 178.666-160-64z" filter="url(#t09-low)"/><path fill="#89d8cd" d="m161.333 81.333 96-64L414.667 252z" filter="url(#t09-low)"/><path fill="#7f969e" d="M281.333 254.667 268 156l205.333 178.667z" filter="url(#t09-low)"/><path fill="#88d0cc" d="M310.667 209.333 612 374.667 481.333 241.333z" filter="url(#t09-low)"/><path fill="#89d9cd" d="m116 425.333-117.333 40 32 152z" filter="url(#t09-low)"/><path fill="#86c5c3" d="M737.333 345.333 548 572 769.333 89.333z" filter="url(#t09-low)"/><path fill="#7c808a" d="m-36 76 82.667-34.667L20-41.333z" filter="url(#t09-low)"/><path fill="#87c8c5" d="m969.333 460-58.666 50.667 109.333-48z" filter="url(#t09-low)"/><path fill="#83aeb2" d="m870.667 316-80 301.333L577.333 516z" filter="url(#t09-low)"/><path fill="#7b767e" d="M102.667 108 140 124l56-101.333z" filter="url(#t09-low)"/><path fill="#83a9b0" d="m318.667 414.667 232 53.333-85.334 149.333z" filter="url(#t09-low)"/><path fill="#8adad6" d="M942.667 321.333 980 324l18.667-117.333z" filter="url(#t09-low)"/><path fill="#7f899a" d="m972 236-106.667-26.667L862.667 156z" filter="url(#t09-low)"/><path fill="#89cfc8" d="m761.333 153.333 146.667 8-173.333-58.666z" filter="url(#t09-low)"/><path fill="#89dbd2" d="m913.333 369.333-48-45.333-122.666 2.667z" filter="url(#t09-low)"/><path fill="#89cfc7" d="m638.667 142.667-40-66.667L572 204z" filter="url(#t09-mid)"/><path fill="#7d8995" d="m62.667 398.667-21.334-56-82.666 56z" filter="url(#t09-mid)"/><path fill="#80929f" d="m801.333 318.667-128-90.667L780 260z" filter="url(#t09-mid)"/><path fill="#819a9e" d="m998.667 206.667-16-237.334L820-17.333z" filter="url(#t09-mid)"/><path fill="#7d8289" d="M998.667 385.333 956 468l109.333-50.667z" filter="url(#t09-mid)"/><path fill="#8097a0" d="m961.333 489.333-61.333-112-106.667-32z" filter="url(#t09-mid)"/><path fill="#7c718a" d="M1001.333 233.333 996 276l56-85.333z" filter="url(#t09-mid)"/><path fill="#7b6875" d="m988 617.333 64-144-112 21.334z" filter="url(#t09-mid)"/><path fill="#89d5cd" d="m596 262.667 42.667-45.334L745.333 212z" filter="url(#t09-mid)"/><path fill="#84b2b3" d="m841.333 529.333 2.667 24 77.333-48z" filter="url(#t09-mid)"/><path fill="#7e8c93" d="M657.333 433.333 692 460l-72 24z" filter="url(#t09-mid)"/><path fill="#819ca3" d="m638.667 393.333 48-82.666-61.334 42.666z" filter="url(#t09-mid)"/><path fill="#82a3a7" d="m892 564 66.667-13.333L956 516z" filter="url(#t09-mid)"/><path fill="#88d4cc" d="m273.333-41.333 93.334 200 144 74.666z" filter="url(#t09-mid)"/><path fill="#85bebe" d="M428 617.333 177.333 398.667l154.667-48z" filter="url(#t09-mid)"/><path fill="#89d0cb" d="m929.333 230.667-146.666 2.666 45.333-40z" filter="url(#t09-mid)"/><path fill="#8be8df" d="m662.667 361.333-56 85.334L652 417.333z" filter="url(#t09-mid)"/><path fill="#8094a2" d="M401.333 617.333 420 510.667l72 2.666z" filter="url(#t09-mid)"/><path fill="#89d7cf" d="M540 460 209.333 185.333l128 200z" filter="url(#t09-mid)"/><path fill="#87c5bd" d="m-41.333 292 184-176-29.334 106.667z" filter="url(#t09-mid)"/><path fill="#7e8b8f" d="m33.333 140-10.666 48 56-29.333z" filter="url(#t09-mid)"/><path fill="#8ad3d3" d="m1014.667 209.333-18.667 32-77.333-80z" filter="url(#t09-mid)"/><path fill="#84b1b0" d="m806.667 108 184-85.333-5.334 58.666z" filter="url(#t09-mid)"/><path fill="#85c0bd" d="M54.667 25.333 84 9.333 134.667 84z" filter="url(#t09-mid)"/><path fill="#81a3ab" d="m44 273.333 149.333-144L100 294.667z" filter="url(#t09-mid)"/><path fill="#7b6e7c" d="m894.667 153.333 8-21.333-53.334-2.667z" filter="url(#t09-mid)"/><path fill="#87ccc7" d="m241.333 553.333 224-208L340 358.667z" filter="url(#t09-mid)"/><path fill="#82aaad" d="M270.667 489.333 116 462.667 57.333 556z" filter="url(#t09-mid)"/><path fill="#87c9c2" d="M300 300 38.667 388 188 172z" filter="url(#t09-mid)"/><path fill="#7c8491" d="m612 108 85.333-149.333-34.666 224z" filter="url(#t09-mid)"/><path fill="#7c7a81" d="M452 230.667 470.667 244l24-34.667z" filter="url(#t09-mid)"/><path fill="#7b7681" d="m1001.333 20 32 45.333-96-69.333z" filter="url(#t09-mid)"/><path fill="#8be8dc" d="M249.333 556 148 617.333 353.333 612z" filter="url(#t09-mid)"/><path fill="#85bcba" d="M425.333 236 526.667 17.333 716-41.333z" filter="url(#t09-mid)"/><path fill="#89dfd9" d="M942.667 462.667 937.333 428 980 433.333z" filter="url(#t09-high)"/><path fill="#829fa6" d="m977.333 366.667 82.667-96L1006.667 460z" filter="url(#t09-high)"/><path fill="#808799" d="m924 148 138.667-42.667L996 190.667z" filter="url(#t09-high)"/><path fill="#86c8c5" d="m817.333 556-74.666-80 50.666 96z" filter="url(#t09-high)"/><path fill="#7d848b" d="m420 310.667 64 8L364 252z" filter="url(#t09-high)"/><path fill="#7f959f" d="M540 305.333 577.333 220 500 270.667z" filter="url(#t09-high)"/><path fill="#8ae2d8" d="M462.667 238.667 473.333 292 516 257.333z" filter="url(#t09-high)"/><path fill="#89dbd1" d="m140 382.667-10.667 128 61.334-109.334z" filter="url(#t09-high)"/><path fill="#775b6c" d="M937.333 476 908 438.667l26.667 16z" filter="url(#t09-high)"/><path fill="#79606a" d="m948 468 58.667-16L980 433.333z" filter="url(#t09-high)"/><path fill="#8be8dd" d="m556 444 10.667 45.333L516 430.667z" filter="url(#t09-high)"/><path fill="#87c3bb" d="M750.667 76 788 25.333l21.333 16z" filter="url(#t09-high)"/><path fill="#86c1c1" d="m564 209.333-80 96-10.667 104z" filter="url(#t09-high)"/><path fill="#8df1de" d="m6.667 44 10.666-13.333-48-21.334z" filter="url(#t09-high)"/><path fill="#8ad8ce" d="M905.333 100 908 174.667l29.333-53.334z" filter="url(#t09-high)"/><path fill="#7f9096" d="m662.667 252-80 53.333L604 262.667z" filter="url(#t09-high)"/><path fill="#88cbbf" d="M1065.333 1.333 918.667-41.333 1065.333 76z" filter="url(#t09-high)"/><path fill="#7d748c" d="m1001.333 297.333 64-37.333L1036 321.333z" filter="url(#t09-high)"/><path fill="#87cbc4" d="m228 537.333-213.333 80-13.334-58.666z" filter="url(#t09-high)"/><path fill="#809a9e" d="m124 28-154.667 77.333 128-5.333z" filter="url(#t09-high)"/><path fill="#8be6d9" d="m694.667 241.333 13.333 80L742.667 332z" filter="url(#t09-high)"/><path fill="#8ae6de" d="M542.667 406.667 553.333 364l-26.666 29.333z" filter="url(#t09-high)"/><path fill="#7d7a86" d="m974.667 105.333-48-29.333 24 64z" filter="url(#t09-high)"/><path fill="#85bcba" d="m988 484 77.333-37.333L908 476z" filter="url(#t09-high)"/><path fill="#7f97a2" d="M118.667 350.667v24h-48z" filter="url(#t09-high)"/><path fill="#7f8595" d="m822.667 193.333 13.333-32-56 37.334z" filter="url(#t09-high)"/><path fill="#78585f" d="M910.667 14.667 932 36l-5.333-29.333z" filter="url(#t09-high)"/><path fill="#88d4c7" d="M118.667 345.333 6.667 244 20 348z" filter="url(#t09-high)"/><path fill="#732c24" d="M777.333-28 820 6.667l18.667-32z" filter="url(#t09-high)"/><path fill="#7b6c72" d="m513.333 420 13.334 13.333H556z" filter="url(#t09-high)"/><path fill="#88ccc8" d="M788 134.667 721.333 260l53.334-37.333z" filter="url(#t09-high)"/><path fill="#87cac4" d="m420 468 74.667 8L556 542.667z" filter="url(#t09-high)"/><path fill="#81999f" d="M681.333 278.667v-40l64-21.334z" filter="url(#t09-high)"/></g></svg>