<svg xmlns="http://www.w3.org/2000/svg" width="1024" height="576"><path fill="#818493" d="M0 0h1024v576H0z"/><g fill-opacity=".5"><path fill="#91f3c1" d="M612-4 388 492l677.33-34.67z"/><path fill="#783f77" d="m9.33 617.33 728-618.66L-20-38.67z"/><path fill="#72276a" d="m428 281.33 74.67 240-242.67-200z"/><path fill="#8ed4b4" d="m388 217.33 610.67-18.66L721.33 564z"/><path fill="#782c6d" d="M180 617.33 401.33 420l45.34 197.33z"/><path fill="#773072" d="m705.33 76 349.34 96L692-41.33z"/><path fill="#84a79d" d="m372 204 674.67 29.33L598.67 12z"/><path fill="#750d63" d="m1065.33 430.67-122.66 88 40 77.33z"/><path fill="#87b7a3" d="m446.67 78.67-285.34 40 133.34-88z"/><path fill="#783980" d="m94.67 604 74.66-645.33L-41.33 20z"/><path fill="#84ac9f" d="M617.33 580 254.67 334.67l-64 98.66z"/><path fill="#650000" d="m566.67 140-77.34 29.33 8-32z"/><path fill="#83a2a0" d="M966.67 257.33 801.33 516l264-64z"/><path fill="#772467" d="M1065.33 121.33 929.33 76l53.34 88z"/><path fill="#720969" d="M849.33 30.67v-72L964 6.67z"/><path fill="#7c5a7e" d="m716 529.33-242.67-74.66 69.34 82.66z"/><path fill="#8ed1b1" d="M721.33 532 534.67 142.67l-101.34 192z"/><path fill="#83a4a6" d="m-36 500 240 82.67 93.33-72z"/><path fill="#87c8a0" d="m278.67 164 130.66-10.67L284 198.67z"/><path fill="#794776" d="M470.67 209.33 369.33 342.67l-2.66 224z"/><path fill="#7c507d" d="m708 478.67 181.33 74.66-80 64z"/><path fill="#8dcdb2" d="m494.67 462.67 405.33 40-280-344z"/><path fill="#8cdeba" d="m417.33 380 29.34 146.67L409.33 460z"/><path fill="#84a7a4" d="m1028 193.33-458.67-26.66-16-146.67z"/><path fill="#7d558d" d="m60 582.67 50.67-149.34L300 452z"/><path fill="#743352" d="M460 60 428 6.67l-170.67 8z"/><path fill="#89dbc3" d="m716 145.33 213.33 152-34.66 120z"/><path fill="#794176" d="m500 534.67-301.33 82.66h466.66z"/><path fill="#88c7ae" d="M1065.33 4 956 92l24-133.33z"/><path fill="#838d79" d="m193.33 374.67-96 8L52 289.33z"/><path fill="#701a3f" d="M492 142.67 609.33 164l-64-34.67z"/><path fill="#762881" d="m60 492-74.67 10.67L44 364z"/><path fill="#839c9b" d="m892 196 72 312 101.33-112z"/><path fill="#7e7484" d="M668 182.67 740 68l-42.67 152z"/><path fill="#783a78" d="M534.67-41.33H660l160 170.66z"/><path fill="#7c577e" d="m86.67 428 344-304L380 308z"/><path fill="#6c246f" d="M246.67 329.33 377.33 332 428 406.67z"/><path fill="#8ef3c7" d="M566.67 566.67 513.33 524 620 569.33z"/><path fill="#7d5a7d" d="m425.33 385.33 24 112L508 470.67z"/><path fill="#85adab" d="M185.33 473.33 222.67 436 212 329.33z"/><path fill="#8be0b7" d="m382.67 105.33 26.66 13.34-10.66-48z"/><path fill="#7f7a8e" d="M940 542.67 918.67 428l-56-16z"/><path fill="#773b81" d="M100 246.67 161.33 60 156 364z"/><path fill="#88c5b1" d="M857.33 52 732-22.67h96z"/><path fill="#8bdfc3" d="m801.33 233.33-40-130.66-18.66 64z"/><path fill="#8ed3b0" d="M684 489.33H561.33L436 364z"/><path fill="#86b6a2" d="m668 537.33-29.33 61.34 168-93.34z"/><path fill="#8bd7ba" d="m916 502.67 29.33 90.66-29.33 16z"/><path fill="#8defc4" d="M468 510.67 478.67 548l-48-66.67z"/><path fill="#8adbb9" d="M769.33 4 748-41.33 697.33 1.33z"/><path fill="#85a79f" d="M468 142.67 660 100 470.67 89.33z"/><path fill="#793073" d="m772 516 90.67 29.33 64 72z"/><path fill="#7f6381" d="m449.33 513.33-122.66-58.66 122.66 162.66z"/><path fill="#91ffd6" d="m1014.67 84 50.66 112L1060-41.33z"/><path fill="#7a4375" d="m1001.33 78.67 64 106.66L932 140z"/><path fill="#85aea3" d="m932 9.33 50.67 77.34L873.33 44z"/><path fill="#86c2b1" d="M209.33 604 188 548l-90.67-40z"/><path fill="#742c5c" d="M84 22.67 44 161.33l48-24z"/><path fill="#8de0ba" d="m1004 604 2.67-56 58.66-26.67z"/><path fill="#78417a" d="m900 17.33-48 101.34-40-32z"/><path fill="#829c9d" d="M870.67 116 737.33 244l328-16z"/><path fill="#7c587c" d="m460-1.33 98.67 80-176 37.33z"/><path fill="#8cc5aa" d="M828 270.67 537.33 148l-96 178.67z"/><path fill="#8ad4bd" d="m937.33 444-24-29.33 72-93.34z"/><path fill="#793b89" d="m9.33 377.33 144 144L150.67 388z"/><path fill="#6c0007" d="M513.33 145.33 494.67 188l5.33-45.33z"/><path fill="#752c70" d="M494.67 617.33h202.66L646.67 556z"/><path fill="#829a9c" d="M393.33 46.67 204 124l26.67-74.67z"/><path fill="#85b2a5" d="m198.67 444 114.66-80L268 348z"/><path fill="#83a69c" d="m324 380 61.33 48-192 165.33z"/><path fill="#89cbaf" d="m601.33 510.67 13.34 58.66 16-26.66z"/><path fill="#808590" d="m1001.33 470.67-56-309.34 82.67 5.34z"/><path fill="#86a7ad" d="m222.67 302.67-5.34-80-16 72z"/><path fill="#7f6764" d="M4 473.33 44 356l-85.33-181.33z"/><path fill="#93ffd6" d="m396 12-90.67-53.33h64z"/><path fill="#7a4a7f" d="m57.33 617.33 64-90.66L-41.33 524z"/><path fill="#732e42" d="M713.33 220 684 185.33l-2.67 13.34z"/><path fill="#7b4c92" d="M134.67 321.33 116 190.67-9.33 316z"/><path fill="#79587e" d="m721.33 518.67-10.66-21.34 74.66-10.66z"/><path fill="#7d5880" d="m161.33 209.33 269.34 64 26.66 133.34z"/><path fill="#752c6e" d="m-41.33 222.67 82.66 42.66L6.67 102.67z"/><path fill="#86adaa" d="M118.67 524H-20l90.67-26.67z"/><path fill="#80898f" d="m625.33 150.67 26.67-80L545.33 172z"/><path fill="#869f9e" d="m857.33 574.67-74.66-48 40 88z"/><path fill="#8dceb0" d="m657.33 508-216-173.33L476 204z"/><path fill="#7c497a" d="M369.33 582.67 404 409.33 257.33 574.67z"/><path fill="#8bd6b8" d="m516 516-50.67-8 93.34 50.67z"/><path fill="#8ae3c5" d="M838.67 417.33 796 460l77.33 37.33z"/><path fill="#7d507d" d="m745.33 617.33-24-77.33 45.34 8z"/><path fill="#88bcb3" d="m756 60-5.33-29.33L777.33 60z"/><path fill="#793e79" d="m929.33 500 136 32-122.66 13.33z"/><path fill="#7d647a" d="m446.67 225.33 58.66-18.66-16-93.34z"/><path fill="#730c6e" d="m12 385.33 45.33-24-24 42.67z"/><path fill="#818e97" d="M926.67 244 956 353.33l-48 69.34z"/><path fill="#741b73" d="m41.33 308-72-16L76 356z"/><path fill="#7d699a" d="M-41.33 452 52 428l98.67 45.33z"/><path fill="#87c6a5" d="m401.33 241.33 40 24v-56z"/><path fill="#89cbb3" d="M929.33 89.33 910.67 92l40 26.67z"/><path fill="#86b7aa" d="m916 286.67 114.67 72-5.34 53.33z"/><path fill="#784572" d="m673.33 502.67 16 45.33 5.34-26.67z"/></g></svg>